%TF.GenerationSoftware,KiCad,Pcbnew,10.0.5*%
%TF.CreationDate,2026-08-18T14:00:30-04:00*%
%TF.ProjectId,STM32_BluePill,53544d33-325f-4426-9c75-6550696c6c2e,0.2*%
%TF.SameCoordinates,Original*%
%TF.FileFunction,Paste,Top*%
%TF.FilePolarity,Positive*%
%FSLAX46Y46*%
G04 Gerber Fmt 4.6, Leading zero omitted, Abs format (unit mm)*
G04 Created by KiCad (PCBNEW 10.0.5) date 2026-08-18 14:00:30*
%MOMM*%
%LPD*%
G01*
G04 APERTURE LIST*
G04 Aperture macros list*
%AMRoundRect*
0 Rectangle with rounded corners*
0 $1 Rounding radius*
0 $2 $3 $4 $5 $6 $7 $8 $9 X,Y pos of 4 corners*
0 Add a 4 corners polygon primitive as box body*
4,1,4,$2,$3,$4,$5,$6,$7,$8,$9,$2,$3,0*
0 Add four circle primitives for the rounded corners*
1,1,$1+$1,$2,$3*
1,1,$1+$1,$4,$5*
1,1,$1+$1,$6,$7*
1,1,$1+$1,$8,$9*
0 Add four rect primitives between the rounded corners*
20,1,$1+$1,$2,$3,$4,$5,0*
20,1,$1+$1,$4,$5,$6,$7,0*
20,1,$1+$1,$6,$7,$8,$9,0*
20,1,$1+$1,$8,$9,$2,$3,0*%
G04 Aperture macros list end*
%ADD10RoundRect,0.140000X-0.170000X0.140000X-0.170000X-0.140000X0.170000X-0.140000X0.170000X0.140000X0*%
%ADD11RoundRect,0.218750X0.256250X-0.218750X0.256250X0.218750X-0.256250X0.218750X-0.256250X-0.218750X0*%
%ADD12RoundRect,0.225000X-0.225000X-0.250000X0.225000X-0.250000X0.225000X0.250000X-0.225000X0.250000X0*%
%ADD13RoundRect,0.140000X0.140000X0.170000X-0.140000X0.170000X-0.140000X-0.170000X0.140000X-0.170000X0*%
%ADD14RoundRect,0.075000X-0.662500X-0.075000X0.662500X-0.075000X0.662500X0.075000X-0.662500X0.075000X0*%
%ADD15RoundRect,0.075000X-0.075000X-0.662500X0.075000X-0.662500X0.075000X0.662500X-0.075000X0.662500X0*%
%ADD16RoundRect,0.140000X0.170000X-0.140000X0.170000X0.140000X-0.170000X0.140000X-0.170000X-0.140000X0*%
%ADD17RoundRect,0.135000X-0.135000X-0.185000X0.135000X-0.185000X0.135000X0.185000X-0.135000X0.185000X0*%
%ADD18RoundRect,0.250000X-0.475000X0.250000X-0.475000X-0.250000X0.475000X-0.250000X0.475000X0.250000X0*%
%ADD19RoundRect,0.250000X-0.350000X0.450000X-0.350000X-0.450000X0.350000X-0.450000X0.350000X0.450000X0*%
%ADD20RoundRect,0.140000X-0.140000X-0.170000X0.140000X-0.170000X0.140000X0.170000X-0.140000X0.170000X0*%
%ADD21RoundRect,0.135000X0.185000X-0.135000X0.185000X0.135000X-0.185000X0.135000X-0.185000X-0.135000X0*%
%ADD22RoundRect,0.135000X0.135000X0.185000X-0.135000X0.185000X-0.135000X-0.185000X0.135000X-0.185000X0*%
%ADD23RoundRect,0.375000X0.625000X0.375000X-0.625000X0.375000X-0.625000X-0.375000X0.625000X-0.375000X0*%
%ADD24RoundRect,0.500000X0.500000X1.400000X-0.500000X1.400000X-0.500000X-1.400000X0.500000X-1.400000X0*%
%ADD25RoundRect,0.135000X-0.185000X0.135000X-0.185000X-0.135000X0.185000X-0.135000X0.185000X0.135000X0*%
%ADD26RoundRect,0.218750X-0.256250X0.218750X-0.256250X-0.218750X0.256250X-0.218750X0.256250X0.218750X0*%
%ADD27RoundRect,0.112500X0.577500X-0.112500X0.577500X0.112500X-0.577500X0.112500X-0.577500X-0.112500X0*%
%ADD28RoundRect,0.250000X0.400000X-0.575000X0.400000X0.575000X-0.400000X0.575000X-0.400000X-0.575000X0*%
%ADD29RoundRect,0.250000X0.525000X-0.462500X0.525000X0.462500X-0.525000X0.462500X-0.525000X-0.462500X0*%
%ADD30RoundRect,0.250000X0.700000X-0.650000X0.700000X0.650000X-0.700000X0.650000X-0.700000X-0.650000X0*%
%ADD31RoundRect,0.250000X0.700000X-0.250000X0.700000X0.250000X-0.700000X0.250000X-0.700000X-0.250000X0*%
%ADD32R,0.800000X1.000000*%
%ADD33R,1.500000X0.700000*%
G04 APERTURE END LIST*
D10*
%TO.C,C11*%
X142300000Y-124600000D03*
X142300000Y-125560000D03*
%TD*%
D11*
%TO.C,D1*%
X148900000Y-135175000D03*
X148900000Y-133600000D03*
%TD*%
D12*
%TO.C,C5*%
X145350000Y-116800000D03*
X146900000Y-116800000D03*
%TD*%
D13*
%TO.C,C6*%
X140900000Y-127000000D03*
X139940000Y-127000000D03*
%TD*%
%TO.C,C8*%
X140920000Y-129600000D03*
X139960000Y-129600000D03*
%TD*%
D14*
%TO.C,U1*%
X144487500Y-121512500D03*
X144487500Y-122012500D03*
X144487500Y-122512500D03*
X144487500Y-123012500D03*
X144487500Y-123512500D03*
X144487500Y-124012500D03*
X144487500Y-124512500D03*
X144487500Y-125012500D03*
X144487500Y-125512500D03*
X144487500Y-126012500D03*
X144487500Y-126512500D03*
X144487500Y-127012500D03*
D15*
X145900000Y-128425000D03*
X146400000Y-128425000D03*
X146900000Y-128425000D03*
X147400000Y-128425000D03*
X147900000Y-128425000D03*
X148400000Y-128425000D03*
X148900000Y-128425000D03*
X149400000Y-128425000D03*
X149900000Y-128425000D03*
X150400000Y-128425000D03*
X150900000Y-128425000D03*
X151400000Y-128425000D03*
D14*
X152812500Y-127012500D03*
X152812500Y-126512500D03*
X152812500Y-126012500D03*
X152812500Y-125512500D03*
X152812500Y-125012500D03*
X152812500Y-124512500D03*
X152812500Y-124012500D03*
X152812500Y-123512500D03*
X152812500Y-123012500D03*
X152812500Y-122512500D03*
X152812500Y-122012500D03*
X152812500Y-121512500D03*
D15*
X151400000Y-120100000D03*
X150900000Y-120100000D03*
X150400000Y-120100000D03*
X149900000Y-120100000D03*
X149400000Y-120100000D03*
X148900000Y-120100000D03*
X148400000Y-120100000D03*
X147900000Y-120100000D03*
X147400000Y-120100000D03*
X146900000Y-120100000D03*
X146400000Y-120100000D03*
X145900000Y-120100000D03*
%TD*%
D16*
%TO.C,C10*%
X142300000Y-123360000D03*
X142300000Y-122400000D03*
%TD*%
D17*
%TO.C,R5*%
X141980000Y-134700000D03*
X143000000Y-134700000D03*
%TD*%
D18*
%TO.C,C12*%
X160400000Y-132750000D03*
X160400000Y-134650000D03*
%TD*%
D10*
%TO.C,C2*%
X154500000Y-121320000D03*
X154500000Y-122280000D03*
%TD*%
D19*
%TO.C,Y1*%
X139000000Y-122400000D03*
X139000000Y-124600000D03*
X140700000Y-124600000D03*
X140700000Y-122400000D03*
%TD*%
D18*
%TO.C,C13*%
X160400000Y-136550000D03*
X160400000Y-138450000D03*
%TD*%
D20*
%TO.C,C9*%
X146000000Y-130200000D03*
X146960000Y-130200000D03*
%TD*%
D21*
%TO.C,R1*%
X135900000Y-119110000D03*
X135900000Y-118090000D03*
%TD*%
D16*
%TO.C,C4*%
X142600000Y-121160000D03*
X142600000Y-120200000D03*
%TD*%
D22*
%TO.C,R4*%
X140600000Y-134700000D03*
X139580000Y-134700000D03*
%TD*%
D23*
%TO.C,U2*%
X157900000Y-137900000D03*
X157900000Y-135600000D03*
D24*
X151600000Y-135600000D03*
D23*
X157900000Y-133300000D03*
%TD*%
D25*
%TO.C,R2*%
X157950000Y-123840000D03*
X157950000Y-124860000D03*
%TD*%
D26*
%TO.C,FB1*%
X142420000Y-127812500D03*
X142420000Y-129387500D03*
%TD*%
D25*
%TO.C,R3*%
X148900000Y-136580000D03*
X148900000Y-137600000D03*
%TD*%
D20*
%TO.C,C1*%
X145670000Y-118262500D03*
X146630000Y-118262500D03*
%TD*%
D13*
%TO.C,C3*%
X152080000Y-130200000D03*
X151120000Y-130200000D03*
%TD*%
%TO.C,C7*%
X140920000Y-128300000D03*
X139960000Y-128300000D03*
%TD*%
D27*
%TO.C,J1*%
X162290000Y-126225000D03*
X162290000Y-125575000D03*
X162290000Y-124925000D03*
X162290000Y-124275000D03*
X162290000Y-123625000D03*
D28*
X164950000Y-128300000D03*
D29*
X162375000Y-127412500D03*
D30*
X164950000Y-126075000D03*
D31*
X164950000Y-123375000D03*
D29*
X162375000Y-122437500D03*
D28*
X164950000Y-121550000D03*
%TD*%
D32*
%TO.C,SW1*%
X132800000Y-116700000D03*
X130590000Y-116700000D03*
X132800000Y-124000000D03*
X130590000Y-124000000D03*
D33*
X133450000Y-118100000D03*
X133450000Y-121100000D03*
X133450000Y-122600000D03*
%TD*%
M02*
