%TF.GenerationSoftware,KiCad,Pcbnew,10.0.5*%
%TF.CreationDate,2026-08-18T14:00:30-04:00*%
%TF.ProjectId,STM32_BluePill,53544d33-325f-4426-9c75-6550696c6c2e,0.2*%
%TF.SameCoordinates,Original*%
%TF.FileFunction,Legend,Top*%
%TF.FilePolarity,Positive*%
%FSLAX46Y46*%
G04 Gerber Fmt 4.6, Leading zero omitted, Abs format (unit mm)*
G04 Created by KiCad (PCBNEW 10.0.5) date 2026-08-18 14:00:30*
%MOMM*%
%LPD*%
G01*
G04 APERTURE LIST*
%ADD10C,0.100000*%
%ADD11C,0.150000*%
%ADD12C,0.120000*%
G04 APERTURE END LIST*
D10*
X130927217Y-125748609D02*
X131070074Y-125796228D01*
X131070074Y-125796228D02*
X131117693Y-125843847D01*
X131117693Y-125843847D02*
X131165312Y-125939085D01*
X131165312Y-125939085D02*
X131165312Y-126081942D01*
X131165312Y-126081942D02*
X131117693Y-126177180D01*
X131117693Y-126177180D02*
X131070074Y-126224800D01*
X131070074Y-126224800D02*
X130974836Y-126272419D01*
X130974836Y-126272419D02*
X130593884Y-126272419D01*
X130593884Y-126272419D02*
X130593884Y-125272419D01*
X130593884Y-125272419D02*
X130927217Y-125272419D01*
X130927217Y-125272419D02*
X131022455Y-125320038D01*
X131022455Y-125320038D02*
X131070074Y-125367657D01*
X131070074Y-125367657D02*
X131117693Y-125462895D01*
X131117693Y-125462895D02*
X131117693Y-125558133D01*
X131117693Y-125558133D02*
X131070074Y-125653371D01*
X131070074Y-125653371D02*
X131022455Y-125700990D01*
X131022455Y-125700990D02*
X130927217Y-125748609D01*
X130927217Y-125748609D02*
X130593884Y-125748609D01*
X131784360Y-125272419D02*
X131974836Y-125272419D01*
X131974836Y-125272419D02*
X132070074Y-125320038D01*
X132070074Y-125320038D02*
X132165312Y-125415276D01*
X132165312Y-125415276D02*
X132212931Y-125605752D01*
X132212931Y-125605752D02*
X132212931Y-125939085D01*
X132212931Y-125939085D02*
X132165312Y-126129561D01*
X132165312Y-126129561D02*
X132070074Y-126224800D01*
X132070074Y-126224800D02*
X131974836Y-126272419D01*
X131974836Y-126272419D02*
X131784360Y-126272419D01*
X131784360Y-126272419D02*
X131689122Y-126224800D01*
X131689122Y-126224800D02*
X131593884Y-126129561D01*
X131593884Y-126129561D02*
X131546265Y-125939085D01*
X131546265Y-125939085D02*
X131546265Y-125605752D01*
X131546265Y-125605752D02*
X131593884Y-125415276D01*
X131593884Y-125415276D02*
X131689122Y-125320038D01*
X131689122Y-125320038D02*
X131784360Y-125272419D01*
X132831979Y-125272419D02*
X133022455Y-125272419D01*
X133022455Y-125272419D02*
X133117693Y-125320038D01*
X133117693Y-125320038D02*
X133212931Y-125415276D01*
X133212931Y-125415276D02*
X133260550Y-125605752D01*
X133260550Y-125605752D02*
X133260550Y-125939085D01*
X133260550Y-125939085D02*
X133212931Y-126129561D01*
X133212931Y-126129561D02*
X133117693Y-126224800D01*
X133117693Y-126224800D02*
X133022455Y-126272419D01*
X133022455Y-126272419D02*
X132831979Y-126272419D01*
X132831979Y-126272419D02*
X132736741Y-126224800D01*
X132736741Y-126224800D02*
X132641503Y-126129561D01*
X132641503Y-126129561D02*
X132593884Y-125939085D01*
X132593884Y-125939085D02*
X132593884Y-125605752D01*
X132593884Y-125605752D02*
X132641503Y-125415276D01*
X132641503Y-125415276D02*
X132736741Y-125320038D01*
X132736741Y-125320038D02*
X132831979Y-125272419D01*
X133546265Y-125272419D02*
X134117693Y-125272419D01*
X133831979Y-126272419D02*
X133831979Y-125272419D01*
X135494360Y-120362475D02*
X135589598Y-120362475D01*
X135589598Y-120362475D02*
X135684836Y-120410094D01*
X135684836Y-120410094D02*
X135732455Y-120457713D01*
X135732455Y-120457713D02*
X135780074Y-120552951D01*
X135780074Y-120552951D02*
X135827693Y-120743427D01*
X135827693Y-120743427D02*
X135827693Y-120981522D01*
X135827693Y-120981522D02*
X135780074Y-121171998D01*
X135780074Y-121171998D02*
X135732455Y-121267236D01*
X135732455Y-121267236D02*
X135684836Y-121314856D01*
X135684836Y-121314856D02*
X135589598Y-121362475D01*
X135589598Y-121362475D02*
X135494360Y-121362475D01*
X135494360Y-121362475D02*
X135399122Y-121314856D01*
X135399122Y-121314856D02*
X135351503Y-121267236D01*
X135351503Y-121267236D02*
X135303884Y-121171998D01*
X135303884Y-121171998D02*
X135256265Y-120981522D01*
X135256265Y-120981522D02*
X135256265Y-120743427D01*
X135256265Y-120743427D02*
X135303884Y-120552951D01*
X135303884Y-120552951D02*
X135351503Y-120457713D01*
X135351503Y-120457713D02*
X135399122Y-120410094D01*
X135399122Y-120410094D02*
X135494360Y-120362475D01*
X135827693Y-122972419D02*
X135256265Y-122972419D01*
X135541979Y-122972419D02*
X135541979Y-121972419D01*
X135541979Y-121972419D02*
X135446741Y-122115276D01*
X135446741Y-122115276D02*
X135351503Y-122210514D01*
X135351503Y-122210514D02*
X135256265Y-122258133D01*
X136003884Y-135072419D02*
X136003884Y-134072419D01*
X136432455Y-134167657D02*
X136480074Y-134120038D01*
X136480074Y-134120038D02*
X136575312Y-134072419D01*
X136575312Y-134072419D02*
X136813407Y-134072419D01*
X136813407Y-134072419D02*
X136908645Y-134120038D01*
X136908645Y-134120038D02*
X136956264Y-134167657D01*
X136956264Y-134167657D02*
X137003883Y-134262895D01*
X137003883Y-134262895D02*
X137003883Y-134358133D01*
X137003883Y-134358133D02*
X136956264Y-134500990D01*
X136956264Y-134500990D02*
X136384836Y-135072419D01*
X136384836Y-135072419D02*
X137003883Y-135072419D01*
X138003883Y-134977180D02*
X137956264Y-135024800D01*
X137956264Y-135024800D02*
X137813407Y-135072419D01*
X137813407Y-135072419D02*
X137718169Y-135072419D01*
X137718169Y-135072419D02*
X137575312Y-135024800D01*
X137575312Y-135024800D02*
X137480074Y-134929561D01*
X137480074Y-134929561D02*
X137432455Y-134834323D01*
X137432455Y-134834323D02*
X137384836Y-134643847D01*
X137384836Y-134643847D02*
X137384836Y-134500990D01*
X137384836Y-134500990D02*
X137432455Y-134310514D01*
X137432455Y-134310514D02*
X137480074Y-134215276D01*
X137480074Y-134215276D02*
X137575312Y-134120038D01*
X137575312Y-134120038D02*
X137718169Y-134072419D01*
X137718169Y-134072419D02*
X137813407Y-134072419D01*
X137813407Y-134072419D02*
X137956264Y-134120038D01*
X137956264Y-134120038D02*
X138003883Y-134167657D01*
X139203884Y-114972419D02*
X139203884Y-115781942D01*
X139203884Y-115781942D02*
X139251503Y-115877180D01*
X139251503Y-115877180D02*
X139299122Y-115924800D01*
X139299122Y-115924800D02*
X139394360Y-115972419D01*
X139394360Y-115972419D02*
X139584836Y-115972419D01*
X139584836Y-115972419D02*
X139680074Y-115924800D01*
X139680074Y-115924800D02*
X139727693Y-115877180D01*
X139727693Y-115877180D02*
X139775312Y-115781942D01*
X139775312Y-115781942D02*
X139775312Y-114972419D01*
X140203884Y-115686704D02*
X140680074Y-115686704D01*
X140108646Y-115972419D02*
X140441979Y-114972419D01*
X140441979Y-114972419D02*
X140775312Y-115972419D01*
X141680074Y-115972419D02*
X141346741Y-115496228D01*
X141108646Y-115972419D02*
X141108646Y-114972419D01*
X141108646Y-114972419D02*
X141489598Y-114972419D01*
X141489598Y-114972419D02*
X141584836Y-115020038D01*
X141584836Y-115020038D02*
X141632455Y-115067657D01*
X141632455Y-115067657D02*
X141680074Y-115162895D01*
X141680074Y-115162895D02*
X141680074Y-115305752D01*
X141680074Y-115305752D02*
X141632455Y-115400990D01*
X141632455Y-115400990D02*
X141584836Y-115448609D01*
X141584836Y-115448609D02*
X141489598Y-115496228D01*
X141489598Y-115496228D02*
X141108646Y-115496228D01*
X141965789Y-114972419D02*
X142537217Y-114972419D01*
X142251503Y-115972419D02*
X142251503Y-114972419D01*
X154056265Y-116024800D02*
X154199122Y-116072419D01*
X154199122Y-116072419D02*
X154437217Y-116072419D01*
X154437217Y-116072419D02*
X154532455Y-116024800D01*
X154532455Y-116024800D02*
X154580074Y-115977180D01*
X154580074Y-115977180D02*
X154627693Y-115881942D01*
X154627693Y-115881942D02*
X154627693Y-115786704D01*
X154627693Y-115786704D02*
X154580074Y-115691466D01*
X154580074Y-115691466D02*
X154532455Y-115643847D01*
X154532455Y-115643847D02*
X154437217Y-115596228D01*
X154437217Y-115596228D02*
X154246741Y-115548609D01*
X154246741Y-115548609D02*
X154151503Y-115500990D01*
X154151503Y-115500990D02*
X154103884Y-115453371D01*
X154103884Y-115453371D02*
X154056265Y-115358133D01*
X154056265Y-115358133D02*
X154056265Y-115262895D01*
X154056265Y-115262895D02*
X154103884Y-115167657D01*
X154103884Y-115167657D02*
X154151503Y-115120038D01*
X154151503Y-115120038D02*
X154246741Y-115072419D01*
X154246741Y-115072419D02*
X154484836Y-115072419D01*
X154484836Y-115072419D02*
X154627693Y-115120038D01*
X154961027Y-115072419D02*
X155199122Y-116072419D01*
X155199122Y-116072419D02*
X155389598Y-115358133D01*
X155389598Y-115358133D02*
X155580074Y-116072419D01*
X155580074Y-116072419D02*
X155818170Y-115072419D01*
X156199122Y-116072419D02*
X156199122Y-115072419D01*
X156199122Y-115072419D02*
X156437217Y-115072419D01*
X156437217Y-115072419D02*
X156580074Y-115120038D01*
X156580074Y-115120038D02*
X156675312Y-115215276D01*
X156675312Y-115215276D02*
X156722931Y-115310514D01*
X156722931Y-115310514D02*
X156770550Y-115500990D01*
X156770550Y-115500990D02*
X156770550Y-115643847D01*
X156770550Y-115643847D02*
X156722931Y-115834323D01*
X156722931Y-115834323D02*
X156675312Y-115929561D01*
X156675312Y-115929561D02*
X156580074Y-116024800D01*
X156580074Y-116024800D02*
X156437217Y-116072419D01*
X156437217Y-116072419D02*
X156199122Y-116072419D01*
X159572419Y-128196115D02*
X160381942Y-128196115D01*
X160381942Y-128196115D02*
X160477180Y-128148496D01*
X160477180Y-128148496D02*
X160524800Y-128100877D01*
X160524800Y-128100877D02*
X160572419Y-128005639D01*
X160572419Y-128005639D02*
X160572419Y-127815163D01*
X160572419Y-127815163D02*
X160524800Y-127719925D01*
X160524800Y-127719925D02*
X160477180Y-127672306D01*
X160477180Y-127672306D02*
X160381942Y-127624687D01*
X160381942Y-127624687D02*
X159572419Y-127624687D01*
X160524800Y-127196115D02*
X160572419Y-127053258D01*
X160572419Y-127053258D02*
X160572419Y-126815163D01*
X160572419Y-126815163D02*
X160524800Y-126719925D01*
X160524800Y-126719925D02*
X160477180Y-126672306D01*
X160477180Y-126672306D02*
X160381942Y-126624687D01*
X160381942Y-126624687D02*
X160286704Y-126624687D01*
X160286704Y-126624687D02*
X160191466Y-126672306D01*
X160191466Y-126672306D02*
X160143847Y-126719925D01*
X160143847Y-126719925D02*
X160096228Y-126815163D01*
X160096228Y-126815163D02*
X160048609Y-127005639D01*
X160048609Y-127005639D02*
X160000990Y-127100877D01*
X160000990Y-127100877D02*
X159953371Y-127148496D01*
X159953371Y-127148496D02*
X159858133Y-127196115D01*
X159858133Y-127196115D02*
X159762895Y-127196115D01*
X159762895Y-127196115D02*
X159667657Y-127148496D01*
X159667657Y-127148496D02*
X159620038Y-127100877D01*
X159620038Y-127100877D02*
X159572419Y-127005639D01*
X159572419Y-127005639D02*
X159572419Y-126767544D01*
X159572419Y-126767544D02*
X159620038Y-126624687D01*
X160048609Y-125862782D02*
X160096228Y-125719925D01*
X160096228Y-125719925D02*
X160143847Y-125672306D01*
X160143847Y-125672306D02*
X160239085Y-125624687D01*
X160239085Y-125624687D02*
X160381942Y-125624687D01*
X160381942Y-125624687D02*
X160477180Y-125672306D01*
X160477180Y-125672306D02*
X160524800Y-125719925D01*
X160524800Y-125719925D02*
X160572419Y-125815163D01*
X160572419Y-125815163D02*
X160572419Y-126196115D01*
X160572419Y-126196115D02*
X159572419Y-126196115D01*
X159572419Y-126196115D02*
X159572419Y-125862782D01*
X159572419Y-125862782D02*
X159620038Y-125767544D01*
X159620038Y-125767544D02*
X159667657Y-125719925D01*
X159667657Y-125719925D02*
X159762895Y-125672306D01*
X159762895Y-125672306D02*
X159858133Y-125672306D01*
X159858133Y-125672306D02*
X159953371Y-125719925D01*
X159953371Y-125719925D02*
X160000990Y-125767544D01*
X160000990Y-125767544D02*
X160048609Y-125862782D01*
X160048609Y-125862782D02*
X160048609Y-126196115D01*
D11*
X147838095Y-117854819D02*
X147838095Y-118664342D01*
X147838095Y-118664342D02*
X147885714Y-118759580D01*
X147885714Y-118759580D02*
X147933333Y-118807200D01*
X147933333Y-118807200D02*
X148028571Y-118854819D01*
X148028571Y-118854819D02*
X148219047Y-118854819D01*
X148219047Y-118854819D02*
X148314285Y-118807200D01*
X148314285Y-118807200D02*
X148361904Y-118759580D01*
X148361904Y-118759580D02*
X148409523Y-118664342D01*
X148409523Y-118664342D02*
X148409523Y-117854819D01*
X149409523Y-118854819D02*
X148838095Y-118854819D01*
X149123809Y-118854819D02*
X149123809Y-117854819D01*
X149123809Y-117854819D02*
X149028571Y-117997676D01*
X149028571Y-117997676D02*
X148933333Y-118092914D01*
X148933333Y-118092914D02*
X148838095Y-118140533D01*
X150488095Y-132054819D02*
X150488095Y-132864342D01*
X150488095Y-132864342D02*
X150535714Y-132959580D01*
X150535714Y-132959580D02*
X150583333Y-133007200D01*
X150583333Y-133007200D02*
X150678571Y-133054819D01*
X150678571Y-133054819D02*
X150869047Y-133054819D01*
X150869047Y-133054819D02*
X150964285Y-133007200D01*
X150964285Y-133007200D02*
X151011904Y-132959580D01*
X151011904Y-132959580D02*
X151059523Y-132864342D01*
X151059523Y-132864342D02*
X151059523Y-132054819D01*
X151488095Y-132150057D02*
X151535714Y-132102438D01*
X151535714Y-132102438D02*
X151630952Y-132054819D01*
X151630952Y-132054819D02*
X151869047Y-132054819D01*
X151869047Y-132054819D02*
X151964285Y-132102438D01*
X151964285Y-132102438D02*
X152011904Y-132150057D01*
X152011904Y-132150057D02*
X152059523Y-132245295D01*
X152059523Y-132245295D02*
X152059523Y-132340533D01*
X152059523Y-132340533D02*
X152011904Y-132483390D01*
X152011904Y-132483390D02*
X151440476Y-133054819D01*
X151440476Y-133054819D02*
X152059523Y-133054819D01*
%TO.C,C11*%
D12*
X141940000Y-124972164D02*
X141940000Y-125187836D01*
X142660000Y-124972164D02*
X142660000Y-125187836D01*
%TO.C,D1*%
X148165000Y-133587500D02*
X148165000Y-135872500D01*
X148165000Y-135872500D02*
X149635000Y-135872500D01*
X149635000Y-135872500D02*
X149635000Y-133587500D01*
%TO.C,C5*%
X145984420Y-116290000D02*
X146265580Y-116290000D01*
X145984420Y-117310000D02*
X146265580Y-117310000D01*
%TO.C,J2*%
X150080000Y-111620000D02*
X150080000Y-114380000D01*
X157810000Y-111620000D02*
X150080000Y-111620000D01*
X157810000Y-111620000D02*
X157810000Y-114380000D01*
X157810000Y-114380000D02*
X150080000Y-114380000D01*
X159080000Y-111620000D02*
X160460000Y-111620000D01*
X160460000Y-111620000D02*
X160460000Y-113000000D01*
%TO.C,C6*%
X140527836Y-126640000D02*
X140312164Y-126640000D01*
X140527836Y-127360000D02*
X140312164Y-127360000D01*
%TO.C,C8*%
X140547836Y-129240000D02*
X140332164Y-129240000D01*
X140547836Y-129960000D02*
X140332164Y-129960000D01*
%TO.C,U1*%
X145040000Y-120652500D02*
X145490000Y-120652500D01*
X145040000Y-121102500D02*
X145040000Y-120652500D01*
X145040000Y-127872500D02*
X145040000Y-127422500D01*
X145490000Y-127872500D02*
X145040000Y-127872500D01*
X151810000Y-120652500D02*
X152260000Y-120652500D01*
X152260000Y-120652500D02*
X152260000Y-121102500D01*
X152260000Y-127422500D02*
X152260000Y-127872500D01*
X152260000Y-127872500D02*
X151810000Y-127872500D01*
X144400000Y-121102500D02*
X144060000Y-120632500D01*
X144740000Y-120632500D01*
X144400000Y-121102500D01*
G36*
X144400000Y-121102500D02*
G01*
X144060000Y-120632500D01*
X144740000Y-120632500D01*
X144400000Y-121102500D01*
G37*
%TO.C,C10*%
X141940000Y-122987836D02*
X141940000Y-122772164D01*
X142660000Y-122987836D02*
X142660000Y-122772164D01*
%TO.C,R5*%
X142336359Y-134320000D02*
X142643641Y-134320000D01*
X142336359Y-135080000D02*
X142643641Y-135080000D01*
%TO.C,C12*%
X159665000Y-133438748D02*
X159665000Y-133961252D01*
X161135000Y-133438748D02*
X161135000Y-133961252D01*
%TO.C,C2*%
X154140000Y-121692164D02*
X154140000Y-121907836D01*
X154860000Y-121692164D02*
X154860000Y-121907836D01*
%TO.C,Y1*%
X138140000Y-121440000D02*
X138140000Y-125560000D01*
X141560000Y-121440000D02*
X138140000Y-121440000D01*
%TO.C,C13*%
X159665000Y-137238748D02*
X159665000Y-137761252D01*
X161135000Y-137238748D02*
X161135000Y-137761252D01*
%TO.C,C9*%
X146372164Y-129840000D02*
X146587836Y-129840000D01*
X146372164Y-130560000D02*
X146587836Y-130560000D01*
%TO.C,R1*%
X135520000Y-118753641D02*
X135520000Y-118446359D01*
X136280000Y-118753641D02*
X136280000Y-118446359D01*
%TO.C,C4*%
X142240000Y-120787836D02*
X142240000Y-120572164D01*
X142960000Y-120787836D02*
X142960000Y-120572164D01*
%TO.C,J3*%
X136620000Y-111620000D02*
X136620000Y-114380000D01*
X144350000Y-111620000D02*
X136620000Y-111620000D01*
X144350000Y-111620000D02*
X144350000Y-114380000D01*
X144350000Y-114380000D02*
X136620000Y-114380000D01*
X145620000Y-111620000D02*
X147000000Y-111620000D01*
X147000000Y-111620000D02*
X147000000Y-113000000D01*
%TO.C,R4*%
X140243641Y-134320000D02*
X139936359Y-134320000D01*
X140243641Y-135080000D02*
X139936359Y-135080000D01*
%TO.C,U2*%
X152840000Y-132190000D02*
X152840000Y-133450000D01*
X152840000Y-139010000D02*
X152840000Y-137750000D01*
X156600000Y-132190000D02*
X152840000Y-132190000D01*
X156600000Y-139010000D02*
X152840000Y-139010000D01*
X157880000Y-138910000D02*
X158120000Y-139240000D01*
X157640000Y-139240000D01*
X157880000Y-138910000D01*
G36*
X158120000Y-139240000D02*
G01*
X157640000Y-139240000D01*
X157880000Y-138910000D01*
X158120000Y-139240000D01*
G37*
%TO.C,R2*%
X157570000Y-124196359D02*
X157570000Y-124503641D01*
X158330000Y-124196359D02*
X158330000Y-124503641D01*
%TO.C,FB1*%
X141910000Y-128437221D02*
X141910000Y-128762779D01*
X142930000Y-128437221D02*
X142930000Y-128762779D01*
%TO.C,J4*%
X136040000Y-138530000D02*
X136040000Y-137150000D01*
X137420000Y-138530000D02*
X136040000Y-138530000D01*
X138690000Y-135770000D02*
X146420000Y-135770000D01*
X138690000Y-138530000D02*
X138690000Y-135770000D01*
X138690000Y-138530000D02*
X146420000Y-138530000D01*
X146420000Y-138530000D02*
X146420000Y-135770000D01*
%TO.C,R3*%
X148520000Y-136936359D02*
X148520000Y-137243641D01*
X149280000Y-136936359D02*
X149280000Y-137243641D01*
%TO.C,C1*%
X146042164Y-117902500D02*
X146257836Y-117902500D01*
X146042164Y-118622500D02*
X146257836Y-118622500D01*
%TO.C,C3*%
X151707836Y-129840000D02*
X151492164Y-129840000D01*
X151707836Y-130560000D02*
X151492164Y-130560000D01*
%TO.C,C7*%
X140547836Y-127940000D02*
X140332164Y-127940000D01*
X140547836Y-128660000D02*
X140332164Y-128660000D01*
%TO.C,J1*%
X162040000Y-121115000D02*
X162040000Y-121495000D01*
X162040000Y-121115000D02*
X163810000Y-121115000D01*
X162040000Y-128735000D02*
X162040000Y-128355000D01*
X163810000Y-128735000D02*
X162040000Y-128735000D01*
X166090000Y-121115000D02*
X166350000Y-121115000D01*
X166350000Y-128735000D02*
X166090000Y-128735000D01*
%TO.C,SW1*%
X130290000Y-117500000D02*
X130290000Y-123200000D01*
X131300000Y-123800000D02*
X132090000Y-123800000D01*
X132090000Y-116900000D02*
X131300000Y-116900000D01*
X133140000Y-118750000D02*
X133140000Y-120450000D01*
X133140000Y-121750000D02*
X133140000Y-121950000D01*
%TD*%
M02*
