%TF.GenerationSoftware,KiCad,Pcbnew,10.0.5*%
%TF.CreationDate,2026-08-18T20:29:32-04:00*%
%TF.ProjectId,STM32_BluePill,53544d33-325f-4426-9c75-6550696c6c2e,0.2*%
%TF.SameCoordinates,Original*%
%TF.FileFunction,Copper,L1,Top*%
%TF.FilePolarity,Positive*%
%FSLAX46Y46*%
G04 Gerber Fmt 4.6, Leading zero omitted, Abs format (unit mm)*
G04 Created by KiCad (PCBNEW 10.0.5) date 2026-08-18 20:29:32*
%MOMM*%
%LPD*%
G01*
G04 APERTURE LIST*
G04 Aperture macros list*
%AMRoundRect*
0 Rectangle with rounded corners*
0 $1 Rounding radius*
0 $2 $3 $4 $5 $6 $7 $8 $9 X,Y pos of 4 corners*
0 Add a 4 corners polygon primitive as box body*
4,1,4,$2,$3,$4,$5,$6,$7,$8,$9,$2,$3,0*
0 Add four circle primitives for the rounded corners*
1,1,$1+$1,$2,$3*
1,1,$1+$1,$4,$5*
1,1,$1+$1,$6,$7*
1,1,$1+$1,$8,$9*
0 Add four rect primitives between the rounded corners*
20,1,$1+$1,$2,$3,$4,$5,0*
20,1,$1+$1,$4,$5,$6,$7,0*
20,1,$1+$1,$6,$7,$8,$9,0*
20,1,$1+$1,$8,$9,$2,$3,0*%
G04 Aperture macros list end*
%TA.AperFunction,SMDPad,CuDef*%
%ADD10RoundRect,0.140000X-0.170000X0.140000X-0.170000X-0.140000X0.170000X-0.140000X0.170000X0.140000X0*%
%TD*%
%TA.AperFunction,SMDPad,CuDef*%
%ADD11RoundRect,0.218750X0.256250X-0.218750X0.256250X0.218750X-0.256250X0.218750X-0.256250X-0.218750X0*%
%TD*%
%TA.AperFunction,SMDPad,CuDef*%
%ADD12RoundRect,0.225000X-0.225000X-0.250000X0.225000X-0.250000X0.225000X0.250000X-0.225000X0.250000X0*%
%TD*%
%TA.AperFunction,ComponentPad*%
%ADD13C,1.700000*%
%TD*%
%TA.AperFunction,ComponentPad*%
%ADD14R,1.700000X1.700000*%
%TD*%
%TA.AperFunction,SMDPad,CuDef*%
%ADD15RoundRect,0.140000X0.140000X0.170000X-0.140000X0.170000X-0.140000X-0.170000X0.140000X-0.170000X0*%
%TD*%
%TA.AperFunction,SMDPad,CuDef*%
%ADD16RoundRect,0.075000X-0.075000X-0.662500X0.075000X-0.662500X0.075000X0.662500X-0.075000X0.662500X0*%
%TD*%
%TA.AperFunction,SMDPad,CuDef*%
%ADD17RoundRect,0.075000X-0.662500X-0.075000X0.662500X-0.075000X0.662500X0.075000X-0.662500X0.075000X0*%
%TD*%
%TA.AperFunction,SMDPad,CuDef*%
%ADD18RoundRect,0.140000X0.170000X-0.140000X0.170000X0.140000X-0.170000X0.140000X-0.170000X-0.140000X0*%
%TD*%
%TA.AperFunction,SMDPad,CuDef*%
%ADD19RoundRect,0.135000X-0.135000X-0.185000X0.135000X-0.185000X0.135000X0.185000X-0.135000X0.185000X0*%
%TD*%
%TA.AperFunction,SMDPad,CuDef*%
%ADD20RoundRect,0.250000X-0.475000X0.250000X-0.475000X-0.250000X0.475000X-0.250000X0.475000X0.250000X0*%
%TD*%
%TA.AperFunction,SMDPad,CuDef*%
%ADD21RoundRect,0.250000X-0.350000X0.450000X-0.350000X-0.450000X0.350000X-0.450000X0.350000X0.450000X0*%
%TD*%
%TA.AperFunction,SMDPad,CuDef*%
%ADD22RoundRect,0.140000X-0.140000X-0.170000X0.140000X-0.170000X0.140000X0.170000X-0.140000X0.170000X0*%
%TD*%
%TA.AperFunction,SMDPad,CuDef*%
%ADD23RoundRect,0.135000X0.185000X-0.135000X0.185000X0.135000X-0.185000X0.135000X-0.185000X-0.135000X0*%
%TD*%
%TA.AperFunction,SMDPad,CuDef*%
%ADD24RoundRect,0.135000X0.135000X0.185000X-0.135000X0.185000X-0.135000X-0.185000X0.135000X-0.185000X0*%
%TD*%
%TA.AperFunction,SMDPad,CuDef*%
%ADD25RoundRect,0.375000X0.625000X0.375000X-0.625000X0.375000X-0.625000X-0.375000X0.625000X-0.375000X0*%
%TD*%
%TA.AperFunction,SMDPad,CuDef*%
%ADD26RoundRect,0.500000X0.500000X1.400000X-0.500000X1.400000X-0.500000X-1.400000X0.500000X-1.400000X0*%
%TD*%
%TA.AperFunction,SMDPad,CuDef*%
%ADD27RoundRect,0.135000X-0.185000X0.135000X-0.185000X-0.135000X0.185000X-0.135000X0.185000X0.135000X0*%
%TD*%
%TA.AperFunction,SMDPad,CuDef*%
%ADD28RoundRect,0.218750X-0.256250X0.218750X-0.256250X-0.218750X0.256250X-0.218750X0.256250X0.218750X0*%
%TD*%
%TA.AperFunction,SMDPad,CuDef*%
%ADD29RoundRect,0.250000X0.400000X-0.575000X0.400000X0.575000X-0.400000X0.575000X-0.400000X-0.575000X0*%
%TD*%
%TA.AperFunction,SMDPad,CuDef*%
%ADD30RoundRect,0.250000X0.525000X-0.462500X0.525000X0.462500X-0.525000X0.462500X-0.525000X-0.462500X0*%
%TD*%
%TA.AperFunction,SMDPad,CuDef*%
%ADD31RoundRect,0.250000X0.700000X-0.250000X0.700000X0.250000X-0.700000X0.250000X-0.700000X-0.250000X0*%
%TD*%
%TA.AperFunction,SMDPad,CuDef*%
%ADD32RoundRect,0.250000X0.700000X-0.650000X0.700000X0.650000X-0.700000X0.650000X-0.700000X-0.650000X0*%
%TD*%
%TA.AperFunction,SMDPad,CuDef*%
%ADD33RoundRect,0.112500X0.577500X-0.112500X0.577500X0.112500X-0.577500X0.112500X-0.577500X-0.112500X0*%
%TD*%
%TA.AperFunction,SMDPad,CuDef*%
%ADD34R,1.500000X0.700000*%
%TD*%
%TA.AperFunction,SMDPad,CuDef*%
%ADD35R,0.800000X1.000000*%
%TD*%
%TA.AperFunction,ViaPad*%
%ADD36C,0.700000*%
%TD*%
%TA.AperFunction,ViaPad*%
%ADD37C,0.600000*%
%TD*%
%TA.AperFunction,Conductor*%
%ADD38C,0.300000*%
%TD*%
%TA.AperFunction,Conductor*%
%ADD39C,0.250000*%
%TD*%
%TA.AperFunction,Conductor*%
%ADD40C,0.500000*%
%TD*%
%TA.AperFunction,Conductor*%
%ADD41C,0.400000*%
%TD*%
%TA.AperFunction,Conductor*%
%ADD42C,0.200000*%
%TD*%
G04 APERTURE END LIST*
D10*
%TO.P,C11,2*%
%TO.N,GND*%
X142300000Y-125560000D03*
%TO.P,C11,1*%
%TO.N,/HSE_OUT*%
X142300000Y-124600000D03*
%TD*%
D11*
%TO.P,D1,2,A_2*%
%TO.N,+3.3V*%
X148900000Y-133600000D03*
%TO.P,D1,1,K_1*%
%TO.N,/PWR_LED_K*%
X148900000Y-135175000D03*
%TD*%
D12*
%TO.P,C5,2*%
%TO.N,GND*%
X146900000Y-116800000D03*
%TO.P,C5,1*%
%TO.N,+3.3V*%
X145350000Y-116800000D03*
%TD*%
D13*
%TO.P,J2,4,Pin_4_4*%
%TO.N,GND*%
X151460000Y-113000000D03*
%TO.P,J2,3,Pin_3_3*%
%TO.N,/SWCLK*%
X154000000Y-113000000D03*
%TO.P,J2,2,Pin_2_2*%
%TO.N,/SWDIO*%
X156540000Y-113000000D03*
D14*
%TO.P,J2,1,Pin_1_1*%
%TO.N,+3.3V*%
X159080000Y-113000000D03*
%TD*%
D15*
%TO.P,C6,2*%
%TO.N,GND*%
X139940000Y-127000000D03*
%TO.P,C6,1*%
%TO.N,+3.3VADC*%
X140900000Y-127000000D03*
%TD*%
%TO.P,C8,2*%
%TO.N,GND*%
X139960000Y-129600000D03*
%TO.P,C8,1*%
%TO.N,+3.3V*%
X140920000Y-129600000D03*
%TD*%
D16*
%TO.P,U1,48,VDD_48*%
%TO.N,+3.3V*%
X145900000Y-120100000D03*
%TO.P,U1,47,VSS_47*%
%TO.N,GND*%
X146400000Y-120100000D03*
%TO.P,U1,46,PB9_46*%
%TO.N,unconnected-(U1-PB9-Pad46)*%
X146900000Y-120100000D03*
%TO.P,U1,45,PB8_45*%
%TO.N,unconnected-(U1-PB8-Pad45)*%
X147400000Y-120100000D03*
%TO.P,U1,44,BOOT0_44*%
%TO.N,/BOOT0*%
X147900000Y-120100000D03*
%TO.P,U1,43,PB7_43*%
%TO.N,/USART1_RX*%
X148400000Y-120100000D03*
%TO.P,U1,42,PB6_42*%
%TO.N,/USART1_TX*%
X148900000Y-120100000D03*
%TO.P,U1,41,PB5_41*%
%TO.N,unconnected-(U1-PB5-Pad41)*%
X149400000Y-120100000D03*
%TO.P,U1,40,PB4_40*%
%TO.N,unconnected-(U1-PB4-Pad40)*%
X149900000Y-120100000D03*
%TO.P,U1,39,PB3_39*%
%TO.N,unconnected-(U1-PB3-Pad39)*%
X150400000Y-120100000D03*
%TO.P,U1,38,PA15_38*%
%TO.N,unconnected-(U1-PA15-Pad38)*%
X150900000Y-120100000D03*
%TO.P,U1,37,PA14_37*%
%TO.N,/SWCLK*%
X151400000Y-120100000D03*
D17*
%TO.P,U1,36,VDD_36*%
%TO.N,+3.3V*%
X152812500Y-121512500D03*
%TO.P,U1,35,VSS_35*%
%TO.N,GND*%
X152812500Y-122012500D03*
%TO.P,U1,34,PA13_34*%
%TO.N,/SWDIO*%
X152812500Y-122512500D03*
%TO.P,U1,33,PA12_33*%
%TO.N,/USB_D+*%
X152812500Y-123012500D03*
%TO.P,U1,32,PA11_32*%
%TO.N,/USB_D-*%
X152812500Y-123512500D03*
%TO.P,U1,31,PA10_31*%
%TO.N,unconnected-(U1-PA10-Pad31)*%
X152812500Y-124012500D03*
%TO.P,U1,30,PA9_30*%
%TO.N,unconnected-(U1-PA9-Pad30)*%
X152812500Y-124512500D03*
%TO.P,U1,29,PA8_29*%
%TO.N,unconnected-(U1-PA8-Pad29)*%
X152812500Y-125012500D03*
%TO.P,U1,28,PB15_28*%
%TO.N,unconnected-(U1-PB15-Pad28)*%
X152812500Y-125512500D03*
%TO.P,U1,27,PB14_27*%
%TO.N,unconnected-(U1-PB14-Pad27)*%
X152812500Y-126012500D03*
%TO.P,U1,26,PB13_26*%
%TO.N,unconnected-(U1-PB13-Pad26)*%
X152812500Y-126512500D03*
%TO.P,U1,25,PB12_25*%
%TO.N,unconnected-(U1-PB12-Pad25)*%
X152812500Y-127012500D03*
D16*
%TO.P,U1,24,VDD_24*%
%TO.N,+3.3V*%
X151400000Y-128425000D03*
%TO.P,U1,23,VSS_23*%
%TO.N,GND*%
X150900000Y-128425000D03*
%TO.P,U1,22,PB11_22*%
%TO.N,/I2C2_SDA*%
X150400000Y-128425000D03*
%TO.P,U1,21,PB10_21*%
%TO.N,/I2C2_SCL*%
X149900000Y-128425000D03*
%TO.P,U1,20,PB2_20*%
%TO.N,unconnected-(U1-PB2-Pad20)*%
X149400000Y-128425000D03*
%TO.P,U1,19,PB1_19*%
%TO.N,unconnected-(U1-PB1-Pad19)*%
X148900000Y-128425000D03*
%TO.P,U1,18,PB0_18*%
%TO.N,unconnected-(U1-PB0-Pad18)*%
X148400000Y-128425000D03*
%TO.P,U1,17,PA7_17*%
%TO.N,unconnected-(U1-PA7-Pad17)*%
X147900000Y-128425000D03*
%TO.P,U1,16,PA6_16*%
%TO.N,unconnected-(U1-PA6-Pad16)*%
X147400000Y-128425000D03*
%TO.P,U1,15,PA5_15*%
%TO.N,unconnected-(U1-PA5-Pad15)*%
X146900000Y-128425000D03*
%TO.P,U1,14,PA4_14*%
%TO.N,unconnected-(U1-PA4-Pad14)*%
X146400000Y-128425000D03*
%TO.P,U1,13,PA3_13*%
%TO.N,unconnected-(U1-PA3-Pad13)*%
X145900000Y-128425000D03*
D17*
%TO.P,U1,12,PA2_12*%
%TO.N,unconnected-(U1-PA2-Pad12)*%
X144487500Y-127012500D03*
%TO.P,U1,11,PA1_11*%
%TO.N,unconnected-(U1-PA1-Pad11)*%
X144487500Y-126512500D03*
%TO.P,U1,10,PA0_10*%
%TO.N,unconnected-(U1-PA0-Pad10)*%
X144487500Y-126012500D03*
%TO.P,U1,9,VDDA_9*%
%TO.N,+3.3VADC*%
X144487500Y-125512500D03*
%TO.P,U1,8,VSSA_8*%
%TO.N,GND*%
X144487500Y-125012500D03*
%TO.P,U1,7,NRST_7*%
%TO.N,/NRST*%
X144487500Y-124512500D03*
%TO.P,U1,6,PD1_6*%
%TO.N,/HSE_OUT*%
X144487500Y-124012500D03*
%TO.P,U1,5,PD0_5*%
%TO.N,/HSE_IN*%
X144487500Y-123512500D03*
%TO.P,U1,4,PC15_4*%
%TO.N,unconnected-(U1-PC15-Pad4)*%
X144487500Y-123012500D03*
%TO.P,U1,3,PC14_3*%
%TO.N,unconnected-(U1-PC14-Pad3)*%
X144487500Y-122512500D03*
%TO.P,U1,2,PC13_2*%
%TO.N,unconnected-(U1-PC13-Pad2)*%
X144487500Y-122012500D03*
%TO.P,U1,1,VBAT_1*%
%TO.N,+3.3V*%
X144487500Y-121512500D03*
%TD*%
D18*
%TO.P,C10,2*%
%TO.N,GND*%
X142300000Y-122400000D03*
%TO.P,C10,1*%
%TO.N,/HSE_IN*%
X142300000Y-123360000D03*
%TD*%
D19*
%TO.P,R5,2*%
%TO.N,/I2C2_SDA*%
X143000000Y-134700000D03*
%TO.P,R5,1*%
%TO.N,+3.3V*%
X141980000Y-134700000D03*
%TD*%
D20*
%TO.P,C12,2*%
%TO.N,GND*%
X160400000Y-134650000D03*
%TO.P,C12,1*%
%TO.N,VBUS*%
X160400000Y-132750000D03*
%TD*%
D10*
%TO.P,C2,2*%
%TO.N,GND*%
X154500000Y-122280000D03*
%TO.P,C2,1*%
%TO.N,+3.3V*%
X154500000Y-121320000D03*
%TD*%
D21*
%TO.P,Y1,4,G_4*%
%TO.N,GND*%
X140700000Y-122400000D03*
%TO.P,Y1,3,3_3*%
%TO.N,/HSE_OUT*%
X140700000Y-124600000D03*
%TO.P,Y1,2,G_2*%
%TO.N,GND*%
X139000000Y-124600000D03*
%TO.P,Y1,1,1_1*%
%TO.N,/HSE_IN*%
X139000000Y-122400000D03*
%TD*%
D20*
%TO.P,C13,2*%
%TO.N,GND*%
X160400000Y-138450000D03*
%TO.P,C13,1*%
%TO.N,+3.3V*%
X160400000Y-136550000D03*
%TD*%
D22*
%TO.P,C9,2*%
%TO.N,GND*%
X146960000Y-130200000D03*
%TO.P,C9,1*%
%TO.N,/NRST*%
X146000000Y-130200000D03*
%TD*%
D23*
%TO.P,R1,2*%
%TO.N,/BOOT0*%
X135900000Y-118090000D03*
%TO.P,R1,1*%
%TO.N,/SW_BOOT0*%
X135900000Y-119110000D03*
%TD*%
D18*
%TO.P,C4,2*%
%TO.N,GND*%
X142600000Y-120200000D03*
%TO.P,C4,1*%
%TO.N,+3.3V*%
X142600000Y-121160000D03*
%TD*%
D13*
%TO.P,J3,4,Pin_4_4*%
%TO.N,GND*%
X138000000Y-113000000D03*
%TO.P,J3,3,Pin_3_3*%
%TO.N,/USART1_RX*%
X140540000Y-113000000D03*
%TO.P,J3,2,Pin_2_2*%
%TO.N,/USART1_TX*%
X143080000Y-113000000D03*
D14*
%TO.P,J3,1,Pin_1_1*%
%TO.N,+3.3V*%
X145620000Y-113000000D03*
%TD*%
D24*
%TO.P,R4,2*%
%TO.N,/I2C2_SCL*%
X139580000Y-134700000D03*
%TO.P,R4,1*%
%TO.N,+3.3V*%
X140600000Y-134700000D03*
%TD*%
D25*
%TO.P,U2,3,VI_3*%
%TO.N,VBUS*%
X157900000Y-133300000D03*
D26*
%TO.P,U2,2,VO_2*%
%TO.N,+3.3V*%
X151600000Y-135600000D03*
D25*
X157900000Y-135600000D03*
%TO.P,U2,1,GND_1*%
%TO.N,GND*%
X157900000Y-137900000D03*
%TD*%
D27*
%TO.P,R2,2*%
%TO.N,/USB_D+*%
X157950000Y-124860000D03*
%TO.P,R2,1*%
%TO.N,+3.3V*%
X157950000Y-123840000D03*
%TD*%
D28*
%TO.P,FB1,2*%
%TO.N,+3.3V*%
X142420000Y-129387500D03*
%TO.P,FB1,1*%
%TO.N,+3.3VADC*%
X142420000Y-127812500D03*
%TD*%
D13*
%TO.P,J4,4,Pin_4_4*%
%TO.N,GND*%
X145040000Y-137150000D03*
%TO.P,J4,3,Pin_3_3*%
%TO.N,/I2C2_SDA*%
X142500000Y-137150000D03*
%TO.P,J4,2,Pin_2_2*%
%TO.N,/I2C2_SCL*%
X139960000Y-137150000D03*
D14*
%TO.P,J4,1,Pin_1_1*%
%TO.N,+3.3V*%
X137420000Y-137150000D03*
%TD*%
D27*
%TO.P,R3,2*%
%TO.N,GND*%
X148900000Y-137600000D03*
%TO.P,R3,1*%
%TO.N,/PWR_LED_K*%
X148900000Y-136580000D03*
%TD*%
D22*
%TO.P,C1,2*%
%TO.N,GND*%
X146630000Y-118262500D03*
%TO.P,C1,1*%
%TO.N,+3.3V*%
X145670000Y-118262500D03*
%TD*%
D15*
%TO.P,C3,2*%
%TO.N,GND*%
X151120000Y-130200000D03*
%TO.P,C3,1*%
%TO.N,+3.3V*%
X152080000Y-130200000D03*
%TD*%
%TO.P,C7,2*%
%TO.N,GND*%
X139960000Y-128300000D03*
%TO.P,C7,1*%
%TO.N,+3.3VADC*%
X140920000Y-128300000D03*
%TD*%
D29*
%TO.P,J1,SH,Shield_SH*%
%TO.N,GND*%
X164950000Y-121550000D03*
D30*
X162375000Y-122437500D03*
D31*
X164950000Y-123375000D03*
D32*
X164950000Y-126075000D03*
D30*
X162375000Y-127412500D03*
D29*
X164950000Y-128300000D03*
D33*
%TO.P,J1,5,GND_5*%
X162290000Y-123625000D03*
%TO.P,J1,4,ID_4*%
%TO.N,unconnected-(J1-ID-Pad4)*%
X162290000Y-124275000D03*
%TO.P,J1,3,D+_3*%
%TO.N,/USB_D+*%
X162290000Y-124925000D03*
%TO.P,J1,2,D-_2*%
%TO.N,/USB_D-*%
X162290000Y-125575000D03*
%TO.P,J1,1,VBUS_1*%
%TO.N,VBUS*%
X162290000Y-126225000D03*
%TD*%
D34*
%TO.P,SW1,3,C_3*%
%TO.N,+3.3V*%
X133450000Y-122600000D03*
%TO.P,SW1,2,B_2*%
%TO.N,/SW_BOOT0*%
X133450000Y-121100000D03*
%TO.P,SW1,1,A_1*%
%TO.N,GND*%
X133450000Y-118100000D03*
D35*
%TO.P,SW1,*%
%TO.N,*%
X130590000Y-124000000D03*
X132800000Y-124000000D03*
X130590000Y-116700000D03*
X132800000Y-116700000D03*
%TD*%
D36*
%TO.N,GND*%
X137200000Y-124600000D03*
X150900000Y-126750000D03*
%TO.N,+3.3V*%
X147150000Y-133600000D03*
X142000000Y-131460000D03*
%TO.N,GND*%
X148300000Y-130200000D03*
%TO.N,+3.3V*%
X142000000Y-133700000D03*
%TO.N,GND*%
X156380000Y-122440000D03*
X162300000Y-130300000D03*
X162400000Y-119500000D03*
X156380000Y-121210000D03*
X142600000Y-118900000D03*
%TO.N,+3.3V*%
X145000000Y-133600000D03*
%TO.N,GND*%
X164900000Y-130200000D03*
X146800000Y-121600000D03*
X146000000Y-125500000D03*
X160400000Y-123600000D03*
D37*
X143130000Y-122410000D03*
D36*
X162200000Y-133650000D03*
X160400000Y-122450000D03*
%TD*%
%TO.N,/HSE_IN*%
D38*
X139000000Y-122800000D02*
X139000000Y-122400000D01*
%TO.N,+3.3V*%
X143675000Y-121425000D02*
X143762500Y-121512500D01*
%TO.N,/USB_D+*%
D39*
X152812500Y-123012500D02*
X153918751Y-123012500D01*
%TO.N,/SWDIO*%
D38*
X151600000Y-121300000D02*
X156540000Y-116360000D01*
%TO.N,/USART1_TX*%
X143900000Y-114500000D02*
X148300000Y-114500000D01*
%TO.N,GND*%
D40*
X162290000Y-123625000D02*
X160925000Y-123625000D01*
D38*
X139960000Y-129600000D02*
X139960000Y-128300000D01*
%TO.N,/USART1_RX*%
X141900000Y-115100000D02*
X140540000Y-113740000D01*
%TO.N,+3.3V*%
D40*
X145000000Y-133600000D02*
X142100000Y-133600000D01*
%TO.N,+3.3VADC*%
D38*
X143200000Y-125807107D02*
X143200000Y-126200000D01*
%TO.N,GND*%
X146800000Y-121500000D02*
X146800000Y-121600000D01*
%TO.N,+3.3V*%
D40*
X136740000Y-121160000D02*
X135300000Y-122600000D01*
%TO.N,/HSE_OUT*%
D38*
X142300000Y-124600000D02*
X143000000Y-124600000D01*
%TO.N,/NRST*%
X145500000Y-130200000D02*
X144900000Y-129600000D01*
%TO.N,+3.3V*%
D40*
X154500000Y-121320000D02*
X152905000Y-121320000D01*
%TO.N,/SW_BOOT0*%
D38*
X135900000Y-119800000D02*
X134600000Y-121100000D01*
%TO.N,GND*%
X146630000Y-118870000D02*
X146630000Y-118262500D01*
%TO.N,+3.3V*%
X145900000Y-121200000D02*
X145900000Y-120100000D01*
D40*
X137400000Y-133900000D02*
X137350000Y-133900000D01*
X142207500Y-129600000D02*
X142420000Y-129387500D01*
X142000000Y-134680000D02*
X141980000Y-134700000D01*
%TO.N,/I2C2_SCL*%
D38*
X139580000Y-134980000D02*
X139600000Y-135000000D01*
%TO.N,+3.3V*%
D40*
X158800000Y-135600000D02*
X157900000Y-135600000D01*
X166400000Y-121028122D02*
X161351878Y-115980000D01*
X152080000Y-135120000D02*
X152080000Y-130200000D01*
%TO.N,/SWCLK*%
D38*
X151400000Y-118300000D02*
X154000000Y-115700000D01*
%TO.N,/I2C2_SCL*%
X149900000Y-130100000D02*
X148500000Y-131500000D01*
%TO.N,/I2C2_SDA*%
X146900000Y-132100000D02*
X146100000Y-132900000D01*
%TO.N,+3.3V*%
D40*
X159080000Y-111480000D02*
X158600000Y-111000000D01*
%TO.N,/USB_D+*%
D39*
X153918751Y-123012500D02*
X153943751Y-123037500D01*
%TO.N,+3.3V*%
D41*
X142600000Y-121160000D02*
X143410000Y-121160000D01*
%TO.N,GND*%
D40*
X146630000Y-117870000D02*
X146630000Y-118262500D01*
%TO.N,/SWDIO*%
D38*
X152812500Y-122512500D02*
X151971880Y-122512500D01*
%TO.N,/USB_D-*%
D39*
X153918751Y-123512500D02*
X153943751Y-123487500D01*
%TO.N,GND*%
D38*
X146400000Y-120100000D02*
X146400000Y-121100000D01*
%TO.N,+3.3V*%
D40*
X160400000Y-136550000D02*
X159750000Y-136550000D01*
%TO.N,/I2C2_SCL*%
D38*
X139960000Y-136060000D02*
X139960000Y-137150000D01*
%TO.N,/USB_D+*%
D39*
X161454999Y-125025000D02*
X161554999Y-124925000D01*
%TO.N,+3.3VADC*%
D38*
X140920000Y-128300000D02*
X140920000Y-127020000D01*
X142420000Y-126980000D02*
X142420000Y-127812500D01*
%TO.N,+3.3V*%
D40*
X161125000Y-136550000D02*
X166400000Y-131275000D01*
%TO.N,GND*%
D38*
X151120000Y-129720000D02*
X151120000Y-130200000D01*
D40*
X142600000Y-120200000D02*
X142600000Y-118900000D01*
%TO.N,+3.3V*%
D38*
X145900000Y-119150000D02*
X145670000Y-118920000D01*
D40*
X159020000Y-115980000D02*
X159080000Y-115980000D01*
%TO.N,/PWR_LED_K*%
D38*
X148900000Y-135175000D02*
X148900000Y-136580000D01*
%TO.N,+3.3V*%
D40*
X166400000Y-131275000D02*
X166400000Y-121028122D01*
D38*
X152080000Y-129780000D02*
X152080000Y-130200000D01*
%TO.N,/USB_D+*%
D39*
X156843198Y-125025000D02*
X161454999Y-125025000D01*
%TO.N,GND*%
D38*
X139940000Y-128280000D02*
X139960000Y-128300000D01*
%TO.N,/HSE_IN*%
X141700000Y-123360000D02*
X141560000Y-123500000D01*
%TO.N,+3.3VADC*%
X142400000Y-127000000D02*
X142420000Y-126980000D01*
%TO.N,/USART1_RX*%
X140540000Y-113740000D02*
X140540000Y-113000000D01*
%TO.N,/BOOT0*%
X141700000Y-115700000D02*
X140100000Y-117300000D01*
%TO.N,+3.3V*%
D40*
X140600000Y-134700000D02*
X141980000Y-134700000D01*
X142000000Y-133700000D02*
X142000000Y-134680000D01*
%TO.N,/USB_D+*%
D39*
X153943751Y-123037500D02*
X154855698Y-123037500D01*
%TO.N,/USART1_TX*%
D38*
X143080000Y-113680000D02*
X143900000Y-114500000D01*
%TO.N,/BOOT0*%
X147900000Y-115900000D02*
X147700000Y-115700000D01*
%TO.N,/USART1_TX*%
X148300000Y-114500000D02*
X148900000Y-115100000D01*
%TO.N,GND*%
X154060000Y-122260000D02*
X153812500Y-122012500D01*
%TO.N,/BOOT0*%
X136690000Y-117300000D02*
X135900000Y-118090000D01*
%TO.N,/I2C2_SCL*%
X140100000Y-132700000D02*
X139580000Y-133220000D01*
%TO.N,/NRST*%
X144900000Y-129600000D02*
X144900000Y-128000000D01*
%TO.N,/USART1_TX*%
X143080000Y-113000000D02*
X143080000Y-113680000D01*
%TO.N,/HSE_IN*%
X139700000Y-123500000D02*
X139000000Y-122800000D01*
%TO.N,/USB_D+*%
D39*
X161554999Y-124925000D02*
X162590000Y-124925000D01*
%TO.N,/I2C2_SDA*%
D38*
X150400000Y-128425000D02*
X150400000Y-130600000D01*
%TO.N,+3.3V*%
D40*
X157950000Y-123840000D02*
X157950000Y-120170000D01*
D38*
X143762500Y-121512500D02*
X144487500Y-121512500D01*
%TO.N,GND*%
X153812500Y-122012500D02*
X152812500Y-122012500D01*
%TO.N,VBUS*%
D41*
X162590000Y-126225000D02*
X160825000Y-126225000D01*
%TO.N,+3.3VADC*%
D38*
X140900000Y-127000000D02*
X142400000Y-127000000D01*
X143494607Y-125512500D02*
X143200000Y-125807107D01*
%TO.N,GND*%
D40*
X146900000Y-117600000D02*
X146630000Y-117870000D01*
D38*
X139940000Y-127000000D02*
X139940000Y-128280000D01*
%TO.N,+3.3V*%
D40*
X137400000Y-133900000D02*
X138100000Y-133200000D01*
X137420000Y-137150000D02*
X137400000Y-137130000D01*
%TO.N,/HSE_IN*%
D38*
X141560000Y-123500000D02*
X139700000Y-123500000D01*
%TO.N,GND*%
X150900000Y-128425000D02*
X150900000Y-126750000D01*
%TO.N,+3.3V*%
D40*
X140920000Y-130380000D02*
X140920000Y-129600000D01*
%TO.N,/I2C2_SDA*%
D38*
X146100000Y-134200000D02*
X145600000Y-134700000D01*
%TO.N,/USART1_RX*%
X148400000Y-120100000D02*
X148400000Y-115500000D01*
%TO.N,+3.3V*%
D40*
X156800000Y-119020000D02*
X156800000Y-118200000D01*
%TO.N,GND*%
D38*
X146000000Y-125500000D02*
X146000000Y-125362500D01*
%TO.N,/I2C2_SDA*%
X145600000Y-134700000D02*
X143000000Y-134700000D01*
%TO.N,GND*%
D40*
X154080000Y-122280000D02*
X154060000Y-122260000D01*
X160400000Y-134650000D02*
X161350000Y-134650000D01*
%TO.N,+3.3V*%
D38*
X151400000Y-128425000D02*
X151400000Y-129100000D01*
%TO.N,/HSE_IN*%
X143312500Y-123512500D02*
X144487500Y-123512500D01*
%TO.N,+3.3V*%
D40*
X159080000Y-115980000D02*
X159080000Y-113000000D01*
%TO.N,/HSE_IN*%
D38*
X143160000Y-123360000D02*
X143312500Y-123512500D01*
%TO.N,GND*%
X142300000Y-125560000D02*
X142300000Y-125600000D01*
%TO.N,/SW_BOOT0*%
X134600000Y-121100000D02*
X133450000Y-121100000D01*
%TO.N,+3.3V*%
D40*
X152905000Y-121320000D02*
X152812500Y-121412500D01*
%TO.N,/I2C2_SCL*%
D38*
X148500000Y-131500000D02*
X145000000Y-131500000D01*
%TO.N,+3.3VADC*%
X144487500Y-125512500D02*
X143494607Y-125512500D01*
%TO.N,+3.3V*%
D40*
X137350000Y-133900000D02*
X135300000Y-131850000D01*
X142000000Y-131460000D02*
X140920000Y-130380000D01*
%TO.N,/HSE_OUT*%
D38*
X143587500Y-124012500D02*
X144487500Y-124012500D01*
%TO.N,/I2C2_SDA*%
X143000000Y-134700000D02*
X143000000Y-136650000D01*
X146100000Y-132900000D02*
X146100000Y-134200000D01*
%TO.N,/SWDIO*%
X156540000Y-116360000D02*
X156540000Y-113000000D01*
%TO.N,+3.3VADC*%
X143200000Y-126200000D02*
X142420000Y-126980000D01*
X140920000Y-127020000D02*
X140900000Y-127000000D01*
%TO.N,/HSE_IN*%
X142300000Y-123360000D02*
X143160000Y-123360000D01*
%TO.N,/NRST*%
X146900000Y-124900000D02*
X146512500Y-124512500D01*
%TO.N,/USB_D-*%
D39*
X152812500Y-123512500D02*
X153918751Y-123512500D01*
X154669302Y-123487500D02*
X156656802Y-125475000D01*
%TO.N,+3.3V*%
D40*
X135300000Y-131850000D02*
X135300000Y-122600000D01*
X145670000Y-117870000D02*
X145670000Y-118262500D01*
X138100000Y-133200000D02*
X140920000Y-130380000D01*
X148900000Y-133600000D02*
X147150000Y-133600000D01*
D38*
X145587500Y-121512500D02*
X145900000Y-121200000D01*
%TO.N,/I2C2_SCL*%
X139580000Y-133220000D02*
X139580000Y-134700000D01*
%TO.N,+3.3V*%
D40*
X142100000Y-133600000D02*
X142000000Y-133700000D01*
D41*
X143410000Y-121160000D02*
X143675000Y-121425000D01*
%TO.N,/I2C2_SCL*%
D38*
X139580000Y-134700000D02*
X139580000Y-134980000D01*
%TO.N,+3.3V*%
D40*
X145350000Y-117550000D02*
X145670000Y-117870000D01*
%TO.N,/USART1_RX*%
D38*
X148400000Y-115500000D02*
X148000000Y-115100000D01*
%TO.N,+3.3V*%
D40*
X157950000Y-120170000D02*
X156800000Y-119020000D01*
D38*
X145670000Y-118920000D02*
X145670000Y-118262500D01*
D40*
X140920000Y-129600000D02*
X142207500Y-129600000D01*
X161351878Y-115980000D02*
X159080000Y-115980000D01*
%TO.N,GND*%
X154500000Y-122280000D02*
X154080000Y-122280000D01*
%TO.N,/NRST*%
D38*
X146900000Y-126000000D02*
X146900000Y-124900000D01*
%TO.N,GND*%
X150900000Y-129500000D02*
X151120000Y-129720000D01*
%TO.N,+3.3V*%
D40*
X140600000Y-135019999D02*
X140600000Y-134700000D01*
%TO.N,/NRST*%
D38*
X144900000Y-128000000D02*
X146900000Y-126000000D01*
%TO.N,/BOOT0*%
X147900000Y-120100000D02*
X147900000Y-115900000D01*
%TO.N,+3.3V*%
D40*
X145350000Y-116800000D02*
X145350000Y-117550000D01*
%TO.N,GND*%
X146900000Y-116800000D02*
X146900000Y-117600000D01*
%TO.N,/I2C2_SCL*%
D38*
X143800000Y-132700000D02*
X140100000Y-132700000D01*
X139600000Y-135700000D02*
X139960000Y-136060000D01*
%TO.N,+3.3V*%
D40*
X159750000Y-136550000D02*
X158800000Y-135600000D01*
D38*
X144487500Y-121512500D02*
X145587500Y-121512500D01*
D40*
X135300000Y-122600000D02*
X133450000Y-122600000D01*
%TO.N,GND*%
D38*
X150900000Y-128425000D02*
X150900000Y-129500000D01*
%TO.N,+3.3V*%
D40*
X145620000Y-111680000D02*
X145620000Y-113000000D01*
%TO.N,/USART1_RX*%
D38*
X148000000Y-115100000D02*
X141900000Y-115100000D01*
%TO.N,GND*%
X139940000Y-126660000D02*
X139940000Y-127000000D01*
%TO.N,/I2C2_SDA*%
X143000000Y-136650000D02*
X142500000Y-137150000D01*
%TO.N,/NRST*%
X146000000Y-130200000D02*
X145500000Y-130200000D01*
%TO.N,/I2C2_SCL*%
X149900000Y-128425000D02*
X149900000Y-130100000D01*
%TO.N,/USB_D+*%
D39*
X154855698Y-123037500D02*
X156843198Y-125025000D01*
%TO.N,+3.3V*%
D40*
X159080000Y-113000000D02*
X159080000Y-111480000D01*
%TO.N,/SWCLK*%
D38*
X154000000Y-115700000D02*
X154000000Y-113000000D01*
%TO.N,/HSE_OUT*%
X143000000Y-124600000D02*
X143587500Y-124012500D01*
%TO.N,+3.3V*%
D40*
X160400000Y-136550000D02*
X161150000Y-136550000D01*
X151600000Y-135600000D02*
X152080000Y-135120000D01*
X154500000Y-121320000D02*
X156800000Y-119020000D01*
X146300000Y-111000000D02*
X145620000Y-111680000D01*
X142600000Y-121160000D02*
X136740000Y-121160000D01*
%TO.N,/USB_D-*%
D39*
X156656802Y-125475000D02*
X161454999Y-125475000D01*
%TO.N,/HSE_IN*%
D38*
X142300000Y-123360000D02*
X141700000Y-123360000D01*
%TO.N,GND*%
X146400000Y-120100000D02*
X146400000Y-119100000D01*
%TO.N,/I2C2_SCL*%
X139600000Y-135000000D02*
X139600000Y-135700000D01*
%TO.N,+3.3V*%
X145900000Y-120100000D02*
X145900000Y-119150000D01*
%TO.N,GND*%
X146400000Y-119100000D02*
X146630000Y-118870000D01*
%TO.N,/SW_BOOT0*%
X135900000Y-119110000D02*
X135900000Y-119800000D01*
%TO.N,GND*%
X145650000Y-125012500D02*
X144487500Y-125012500D01*
%TO.N,/USB_D-*%
D39*
X153943751Y-123487500D02*
X154669302Y-123487500D01*
%TO.N,/I2C2_SDA*%
D38*
X150400000Y-130600000D02*
X148900000Y-132100000D01*
%TO.N,/SWCLK*%
X151400000Y-120100000D02*
X151400000Y-118300000D01*
%TO.N,/I2C2_SCL*%
X145000000Y-131500000D02*
X143800000Y-132700000D01*
%TO.N,/BOOT0*%
X147700000Y-115700000D02*
X141700000Y-115700000D01*
%TO.N,/HSE_OUT*%
X140700000Y-124600000D02*
X142300000Y-124600000D01*
%TO.N,+3.3V*%
X151400000Y-129100000D02*
X152080000Y-129780000D01*
%TO.N,GND*%
D40*
X140700000Y-122400000D02*
X142300000Y-122400000D01*
%TO.N,/NRST*%
D38*
X146512500Y-124512500D02*
X144487500Y-124512500D01*
%TO.N,/USART1_TX*%
X148900000Y-115100000D02*
X148900000Y-120100000D01*
%TO.N,GND*%
X146400000Y-121100000D02*
X146800000Y-121500000D01*
%TO.N,VBUS*%
D42*
X160825000Y-126225000D02*
X160750000Y-126300000D01*
%TO.N,/USB_D-*%
D39*
X161454999Y-125475000D02*
X161554999Y-125575000D01*
%TO.N,+3.3V*%
D40*
X137400000Y-137130000D02*
X137400000Y-133900000D01*
X156800000Y-118200000D02*
X159020000Y-115980000D01*
%TO.N,/I2C2_SDA*%
D38*
X148900000Y-132100000D02*
X146900000Y-132100000D01*
%TO.N,/SWDIO*%
X151971880Y-122512500D02*
X151600000Y-122140620D01*
X151600000Y-122140620D02*
X151600000Y-121300000D01*
%TO.N,+3.3V*%
D40*
X160400000Y-136550000D02*
X161125000Y-136550000D01*
%TO.N,/USB_D-*%
D39*
X161554999Y-125575000D02*
X162590000Y-125575000D01*
%TO.N,/BOOT0*%
D38*
X140100000Y-117300000D02*
X136690000Y-117300000D01*
%TO.N,+3.3V*%
D40*
X158600000Y-111000000D02*
X146300000Y-111000000D01*
%TO.N,GND*%
D38*
X146000000Y-125362500D02*
X145650000Y-125012500D01*
%TD*%
%TA.AperFunction,Conductor*%
%TO.N,VBUS*%
G36*
X161223527Y-126004725D02*
G01*
X161253992Y-126012888D01*
X161283899Y-126025276D01*
X161350529Y-126063745D01*
X161355909Y-126069387D01*
X161356994Y-126069927D01*
X161357720Y-126068767D01*
X161363982Y-126072684D01*
X161363988Y-126072689D01*
X161363994Y-126072692D01*
X161363996Y-126072693D01*
X161371508Y-126076228D01*
X161393026Y-126089161D01*
X161464112Y-126142376D01*
X161464113Y-126142376D01*
X161464220Y-126142456D01*
X161466146Y-126143135D01*
X161494567Y-126153736D01*
X161525547Y-126170653D01*
X161535148Y-126177841D01*
X161577016Y-126233777D01*
X161581997Y-126303468D01*
X161550003Y-126363270D01*
X161542692Y-126370836D01*
X161516643Y-126391402D01*
X161461096Y-126424253D01*
X161443661Y-126431635D01*
X161439716Y-126433509D01*
X161437930Y-126434062D01*
X161430701Y-126437124D01*
X161423443Y-126439110D01*
X161423302Y-126438597D01*
X161411854Y-126442147D01*
X161411888Y-126442271D01*
X161408197Y-126443280D01*
X161406042Y-126443949D01*
X161405354Y-126444058D01*
X161401250Y-126445181D01*
X161399704Y-126445604D01*
X161366982Y-126450000D01*
X161250000Y-126450000D01*
X161250000Y-126548533D01*
X161249996Y-126549468D01*
X161249988Y-126550529D01*
X161249978Y-126551459D01*
X161248257Y-126665884D01*
X161246898Y-126682421D01*
X161244453Y-126698714D01*
X161240902Y-126714907D01*
X161202404Y-126847414D01*
X161202402Y-126847425D01*
X161202401Y-126847426D01*
X161202401Y-126847428D01*
X161199500Y-126884290D01*
X161199500Y-127940706D01*
X161202401Y-127977565D01*
X161202401Y-127977568D01*
X161202402Y-127977569D01*
X161219477Y-128036343D01*
X161223292Y-128054394D01*
X161225732Y-128072520D01*
X161226826Y-128090927D01*
X161152105Y-133060036D01*
X161146556Y-133094896D01*
X161141926Y-133109828D01*
X161103270Y-133168030D01*
X161103257Y-133168041D01*
X161101492Y-133169524D01*
X161047188Y-133195944D01*
X161040454Y-133197357D01*
X161014990Y-133200000D01*
X159700000Y-133200000D01*
X159048790Y-133944238D01*
X159022009Y-133967219D01*
X159000908Y-133980636D01*
X158934372Y-134000000D01*
X157091830Y-134000000D01*
X157056889Y-133994975D01*
X157041890Y-133990570D01*
X156983144Y-133952827D01*
X156981957Y-133951458D01*
X156954477Y-133896583D01*
X156952832Y-133889021D01*
X156950000Y-133862668D01*
X156950000Y-127992595D01*
X156955022Y-127957665D01*
X156959966Y-127940825D01*
X156995088Y-127884408D01*
X157004321Y-127875933D01*
X157030287Y-127857625D01*
X159509666Y-126549065D01*
X160508514Y-126021895D01*
X160536578Y-126011198D01*
X160565088Y-126004137D01*
X160594898Y-126000500D01*
X161191434Y-126000500D01*
X161223527Y-126004725D01*
G37*
%TD.AperFunction*%
%TD*%
%TA.AperFunction,Conductor*%
%TO.N,+3.3V*%
G36*
X150130156Y-133018847D02*
G01*
X150900000Y-133500000D01*
X153651766Y-133500000D01*
X153718805Y-133519685D01*
X153735556Y-133532593D01*
X154900000Y-134600000D01*
X158976521Y-134600000D01*
X159043560Y-134619685D01*
X159089315Y-134672489D01*
X159100520Y-134723478D01*
X159107400Y-136358714D01*
X159087998Y-136425836D01*
X159035387Y-136471813D01*
X158983923Y-136483235D01*
X155000000Y-136499999D01*
X153736319Y-137763681D01*
X153674996Y-137797166D01*
X153648638Y-137800000D01*
X150551362Y-137800000D01*
X150484323Y-137780315D01*
X150463681Y-137763681D01*
X150436319Y-137736319D01*
X150402834Y-137674996D01*
X150400000Y-137648638D01*
X150400000Y-134200000D01*
X148324000Y-134200000D01*
X148256961Y-134180315D01*
X148211206Y-134127511D01*
X148200000Y-134076000D01*
X148200000Y-133124000D01*
X148219685Y-133056961D01*
X148272489Y-133011206D01*
X148324000Y-133000000D01*
X150064437Y-133000000D01*
X150130156Y-133018847D01*
G37*
%TD.AperFunction*%
%TD*%
%TA.AperFunction,Conductor*%
%TO.N,GND*%
G36*
X146044567Y-110259521D02*
G01*
X146055420Y-110262707D01*
X146114201Y-110300477D01*
X146143230Y-110364031D01*
X146133291Y-110433190D01*
X146133281Y-110433211D01*
X146133027Y-110433767D01*
X146099198Y-110477853D01*
X146097464Y-110479285D01*
X146080505Y-110491061D01*
X145961996Y-110559481D01*
X145961985Y-110559488D01*
X145961977Y-110559495D01*
X145179491Y-111341981D01*
X145123617Y-111438761D01*
X145123605Y-111438782D01*
X145107025Y-111467497D01*
X145107008Y-111467528D01*
X145106957Y-111467630D01*
X145106534Y-111469312D01*
X145069500Y-111607525D01*
X145069500Y-111707670D01*
X145064475Y-111742612D01*
X145064242Y-111743406D01*
X145060070Y-111757612D01*
X145022327Y-111816355D01*
X145020958Y-111817542D01*
X144966097Y-111845018D01*
X144958539Y-111846663D01*
X144932168Y-111849500D01*
X144725143Y-111849500D01*
X144725127Y-111849501D01*
X144725113Y-111849502D01*
X144708860Y-111851387D01*
X144700012Y-111852413D01*
X144700011Y-111852413D01*
X144700005Y-111852414D01*
X144699559Y-111852547D01*
X144697303Y-111853609D01*
X144597236Y-111897792D01*
X144517793Y-111977234D01*
X144472414Y-112080005D01*
X144471844Y-112082710D01*
X144471589Y-112087124D01*
X144469500Y-112105127D01*
X144469500Y-112825041D01*
X144464477Y-112859977D01*
X144462756Y-112865838D01*
X144424981Y-112924616D01*
X144361425Y-112953640D01*
X144292267Y-112943696D01*
X144239463Y-112897941D01*
X144239231Y-112897580D01*
X144221074Y-112849939D01*
X144214274Y-112807006D01*
X144205821Y-112753637D01*
X144202171Y-112730591D01*
X144147713Y-112562986D01*
X144146655Y-112559232D01*
X144141885Y-112549871D01*
X144107091Y-112481585D01*
X144091823Y-112451619D01*
X144063999Y-112397011D01*
X144063994Y-112397003D01*
X144050396Y-112378287D01*
X144050395Y-112378284D01*
X143957570Y-112250522D01*
X143957558Y-112250505D01*
X143957554Y-112250500D01*
X143957551Y-112250497D01*
X143957548Y-112250493D01*
X143829507Y-112122452D01*
X143829498Y-112122444D01*
X143829474Y-112122426D01*
X143690888Y-112021738D01*
X143690555Y-112021454D01*
X143682987Y-112015998D01*
X143682623Y-112015815D01*
X143606906Y-111977235D01*
X143606906Y-111977234D01*
X143606904Y-111977234D01*
X143521639Y-111933788D01*
X143521563Y-111933762D01*
X143349412Y-111877829D01*
X143349413Y-111877829D01*
X143211009Y-111855908D01*
X143170551Y-111849500D01*
X143170550Y-111849500D01*
X142989450Y-111849500D01*
X142989449Y-111849500D01*
X142963506Y-111853609D01*
X142810585Y-111877829D01*
X142638386Y-111933778D01*
X142638363Y-111933786D01*
X142638359Y-111933788D01*
X142477005Y-112016004D01*
X142477002Y-112016005D01*
X142477002Y-112016006D01*
X142428169Y-112051484D01*
X142330499Y-112122445D01*
X142330491Y-112122452D01*
X142202452Y-112250491D01*
X142202445Y-112250499D01*
X142096004Y-112397005D01*
X142013788Y-112558359D01*
X142013786Y-112558363D01*
X142013778Y-112558386D01*
X141957829Y-112730585D01*
X141935262Y-112873067D01*
X141924834Y-112906792D01*
X141921857Y-112913071D01*
X141875350Y-112965213D01*
X141808035Y-112983935D01*
X141741285Y-112963292D01*
X141697021Y-112911466D01*
X141694560Y-112906078D01*
X141684879Y-112873963D01*
X141673740Y-112803639D01*
X141662171Y-112730591D01*
X141662134Y-112730478D01*
X141636181Y-112650602D01*
X141607713Y-112562986D01*
X141606655Y-112559232D01*
X141601885Y-112549871D01*
X141567091Y-112481585D01*
X141551823Y-112451619D01*
X141523999Y-112397011D01*
X141523994Y-112397003D01*
X141510396Y-112378287D01*
X141510395Y-112378284D01*
X141417570Y-112250522D01*
X141417558Y-112250505D01*
X141417554Y-112250500D01*
X141417551Y-112250497D01*
X141417548Y-112250493D01*
X141289507Y-112122452D01*
X141289498Y-112122444D01*
X141289474Y-112122426D01*
X141150888Y-112021738D01*
X141150555Y-112021454D01*
X141142987Y-112015998D01*
X141142623Y-112015815D01*
X141066906Y-111977235D01*
X141066906Y-111977234D01*
X141066904Y-111977234D01*
X140981639Y-111933788D01*
X140981563Y-111933762D01*
X140809412Y-111877829D01*
X140809413Y-111877829D01*
X140671009Y-111855908D01*
X140630551Y-111849500D01*
X140630550Y-111849500D01*
X140449450Y-111849500D01*
X140449449Y-111849500D01*
X140423506Y-111853609D01*
X140270585Y-111877829D01*
X140098386Y-111933778D01*
X140098363Y-111933786D01*
X140098359Y-111933788D01*
X139937005Y-112016004D01*
X139937002Y-112016005D01*
X139937002Y-112016006D01*
X139888169Y-112051484D01*
X139790499Y-112122445D01*
X139790491Y-112122452D01*
X139662450Y-112250493D01*
X139662428Y-112250522D01*
X139556004Y-112397002D01*
X139497002Y-112512799D01*
X139476663Y-112541649D01*
X139468897Y-112549871D01*
X139408554Y-112585090D01*
X139338748Y-112582095D01*
X139281646Y-112541838D01*
X139276875Y-112535830D01*
X139256050Y-112497034D01*
X139251094Y-112481780D01*
X139251093Y-112481779D01*
X139251093Y-112481777D01*
X139210099Y-112401324D01*
X139154624Y-112292449D01*
X139115270Y-112238282D01*
X139115269Y-112238282D01*
X139115268Y-112238282D01*
X138609702Y-112743849D01*
X138548379Y-112777334D01*
X138478687Y-112772350D01*
X138422754Y-112730478D01*
X138414634Y-112718169D01*
X138400099Y-112692993D01*
X138307007Y-112599901D01*
X138307004Y-112599899D01*
X138307000Y-112599896D01*
X138281828Y-112585363D01*
X138233613Y-112534796D01*
X138220391Y-112466189D01*
X138246359Y-112401324D01*
X138256135Y-112390310D01*
X138761716Y-111884728D01*
X138707550Y-111845375D01*
X138667103Y-111824766D01*
X138518214Y-111748902D01*
X138316130Y-111683242D01*
X138106251Y-111650000D01*
X138106246Y-111650000D01*
X137893754Y-111650000D01*
X137893749Y-111650000D01*
X137693513Y-111681715D01*
X137693505Y-111681715D01*
X137693506Y-111681716D01*
X137683865Y-111683242D01*
X137481784Y-111748903D01*
X137292438Y-111845380D01*
X137238282Y-111884727D01*
X137238282Y-111884728D01*
X137743850Y-112390296D01*
X137777335Y-112451619D01*
X137772351Y-112521311D01*
X137730479Y-112577244D01*
X137718173Y-112585362D01*
X137692996Y-112599898D01*
X137692990Y-112599903D01*
X137599903Y-112692990D01*
X137599898Y-112692996D01*
X137585362Y-112718173D01*
X137534793Y-112766387D01*
X137466185Y-112779607D01*
X137401322Y-112753637D01*
X137390296Y-112743850D01*
X136884728Y-112238282D01*
X136884727Y-112238282D01*
X136845380Y-112292438D01*
X136748903Y-112481784D01*
X136683242Y-112683865D01*
X136681798Y-112692990D01*
X136650000Y-112893753D01*
X136650000Y-113106246D01*
X136675843Y-113269409D01*
X136681715Y-113306485D01*
X136681716Y-113306493D01*
X136683242Y-113316133D01*
X136739506Y-113489293D01*
X136748904Y-113518217D01*
X136816828Y-113651524D01*
X136845374Y-113707548D01*
X136845375Y-113707550D01*
X136880674Y-113756137D01*
X136884728Y-113761716D01*
X137390297Y-113256147D01*
X137451619Y-113222663D01*
X137521311Y-113227647D01*
X137577244Y-113269519D01*
X137585363Y-113281828D01*
X137599896Y-113307000D01*
X137599899Y-113307004D01*
X137599901Y-113307007D01*
X137692993Y-113400099D01*
X137718169Y-113414634D01*
X137766384Y-113465202D01*
X137779606Y-113533809D01*
X137753638Y-113598673D01*
X137743849Y-113609702D01*
X137238282Y-114115268D01*
X137238282Y-114115269D01*
X137238282Y-114115270D01*
X137292449Y-114154624D01*
X137426618Y-114222987D01*
X137481784Y-114251096D01*
X137683866Y-114316756D01*
X137683867Y-114316756D01*
X137683870Y-114316757D01*
X137893754Y-114350000D01*
X138106245Y-114350000D01*
X138106246Y-114350000D01*
X138219050Y-114332132D01*
X138306487Y-114318284D01*
X138306493Y-114318283D01*
X138316127Y-114316757D01*
X138316130Y-114316757D01*
X138518217Y-114251095D01*
X138707554Y-114154622D01*
X138709976Y-114152862D01*
X138729121Y-114138953D01*
X138755858Y-114129412D01*
X138761717Y-114115269D01*
X138256149Y-113609702D01*
X138222664Y-113548379D01*
X138227648Y-113478688D01*
X138269519Y-113422754D01*
X138281822Y-113414639D01*
X138307007Y-113400099D01*
X138400099Y-113307007D01*
X138414634Y-113281830D01*
X138465199Y-113233616D01*
X138533805Y-113220391D01*
X138598671Y-113246358D01*
X138609702Y-113256149D01*
X139115269Y-113761717D01*
X139115269Y-113761716D01*
X139115270Y-113761717D01*
X139115270Y-113761716D01*
X139128738Y-113756137D01*
X139134955Y-113734967D01*
X139138954Y-113729118D01*
X139154622Y-113707554D01*
X139251095Y-113518217D01*
X139254982Y-113506254D01*
X139270550Y-113474586D01*
X139276934Y-113465248D01*
X139331019Y-113421015D01*
X139400432Y-113413044D01*
X139463136Y-113443867D01*
X139463140Y-113443871D01*
X139468791Y-113449057D01*
X139495432Y-113484119D01*
X139556004Y-113602995D01*
X139662441Y-113749494D01*
X139662445Y-113749499D01*
X139662450Y-113749505D01*
X139790491Y-113877546D01*
X139790500Y-113877554D01*
X139790524Y-113877572D01*
X139852574Y-113922654D01*
X139852578Y-113922656D01*
X139937006Y-113983996D01*
X140030451Y-114031609D01*
X140098360Y-114066211D01*
X140098366Y-114066213D01*
X140098375Y-114066216D01*
X140098389Y-114066221D01*
X140209136Y-114102204D01*
X140249764Y-114115404D01*
X140276236Y-114127608D01*
X140300575Y-114142523D01*
X140323466Y-114160569D01*
X141362607Y-115199710D01*
X141383759Y-115227966D01*
X141391251Y-115241687D01*
X141406103Y-115309947D01*
X141405974Y-115311753D01*
X141386606Y-115369956D01*
X141382425Y-115376462D01*
X141365789Y-115397105D01*
X139962323Y-116800573D01*
X139934072Y-116821722D01*
X139910984Y-116834330D01*
X139851554Y-116849500D01*
X136630691Y-116849500D01*
X136592380Y-116859765D01*
X136572416Y-116865114D01*
X136572401Y-116865114D01*
X136516118Y-116880198D01*
X136516102Y-116880205D01*
X136413400Y-116939500D01*
X136413396Y-116939502D01*
X136413392Y-116939505D01*
X136413384Y-116939511D01*
X136413380Y-116939514D01*
X136413378Y-116939515D01*
X135882321Y-117470573D01*
X135854070Y-117491722D01*
X135830982Y-117504330D01*
X135771552Y-117519500D01*
X135662546Y-117519500D01*
X135633124Y-117522258D01*
X135633118Y-117522259D01*
X135633114Y-117522260D01*
X135633110Y-117522261D01*
X135509211Y-117565616D01*
X135509209Y-117565617D01*
X135509208Y-117565617D01*
X135509207Y-117565618D01*
X135489548Y-117580127D01*
X135403576Y-117643576D01*
X135325617Y-117749207D01*
X135282257Y-117873117D01*
X135281883Y-117875319D01*
X135281717Y-117878888D01*
X135279500Y-117902538D01*
X135279500Y-118277453D01*
X135279502Y-118277475D01*
X135282257Y-118306867D01*
X135282260Y-118306887D01*
X135325223Y-118429664D01*
X135325596Y-118430764D01*
X135325619Y-118430795D01*
X135385569Y-118512025D01*
X135402272Y-118543116D01*
X135407635Y-118557801D01*
X135412143Y-118627522D01*
X135409966Y-118637211D01*
X135388752Y-118683661D01*
X135325598Y-118769231D01*
X135325224Y-118770333D01*
X135282257Y-118893117D01*
X135281883Y-118895317D01*
X135281717Y-118898888D01*
X135279500Y-118922538D01*
X135279500Y-119297453D01*
X135280445Y-119307535D01*
X135282257Y-119326871D01*
X135282260Y-119326886D01*
X135315842Y-119422854D01*
X135325618Y-119450792D01*
X135373318Y-119515424D01*
X135390019Y-119546512D01*
X135391395Y-119550278D01*
X135395384Y-119561200D01*
X135399893Y-119630917D01*
X135398477Y-119637220D01*
X135365173Y-119697721D01*
X134569221Y-120493673D01*
X134540965Y-120514825D01*
X134527244Y-120522317D01*
X134458984Y-120537169D01*
X134457178Y-120537040D01*
X134398977Y-120517672D01*
X134392462Y-120513485D01*
X134374280Y-120498832D01*
X134372769Y-120497798D01*
X134372765Y-120497794D01*
X134306910Y-120468716D01*
X134269993Y-120452415D01*
X134269994Y-120452415D01*
X134244868Y-120449500D01*
X134244865Y-120449500D01*
X132655143Y-120449500D01*
X132655127Y-120449501D01*
X132655113Y-120449502D01*
X132637255Y-120451573D01*
X132630012Y-120452413D01*
X132630011Y-120452413D01*
X132630005Y-120452414D01*
X132629559Y-120452547D01*
X132627303Y-120453609D01*
X132527236Y-120497792D01*
X132447793Y-120577234D01*
X132402414Y-120680005D01*
X132401844Y-120682710D01*
X132401589Y-120687124D01*
X132399500Y-120705127D01*
X132399500Y-121251651D01*
X132394476Y-121286589D01*
X132391289Y-121297442D01*
X132353514Y-121356219D01*
X132289957Y-121385242D01*
X132220807Y-121375301D01*
X132213829Y-121372114D01*
X132177656Y-121346999D01*
X132136549Y-121305891D01*
X132136544Y-121305887D01*
X132136543Y-121305886D01*
X132021823Y-121229232D01*
X132021822Y-121229231D01*
X132021817Y-121229228D01*
X132021804Y-121229221D01*
X132021797Y-121229217D01*
X131894354Y-121176429D01*
X131894340Y-121176424D01*
X131894332Y-121176421D01*
X131894322Y-121176418D01*
X131894319Y-121176417D01*
X131894315Y-121176416D01*
X131758998Y-121149500D01*
X131758995Y-121149500D01*
X131758993Y-121149500D01*
X131621007Y-121149500D01*
X131621005Y-121149500D01*
X131621000Y-121149500D01*
X131485683Y-121176416D01*
X131485677Y-121176418D01*
X131485667Y-121176421D01*
X131485662Y-121176422D01*
X131485644Y-121176429D01*
X131358201Y-121229217D01*
X131358192Y-121229222D01*
X131358175Y-121229232D01*
X131243455Y-121305886D01*
X131243454Y-121305887D01*
X131243448Y-121305892D01*
X131145892Y-121403448D01*
X131145887Y-121403454D01*
X131145886Y-121403455D01*
X131069232Y-121518175D01*
X131069222Y-121518192D01*
X131069217Y-121518201D01*
X131016429Y-121645644D01*
X131016416Y-121645683D01*
X130989500Y-121781000D01*
X130989500Y-121874626D01*
X130984237Y-121892546D01*
X131016416Y-122054315D01*
X131016417Y-122054319D01*
X131016418Y-122054322D01*
X131016421Y-122054332D01*
X131016424Y-122054340D01*
X131016429Y-122054354D01*
X131069217Y-122181797D01*
X131069222Y-122181806D01*
X131069232Y-122181823D01*
X131145886Y-122296543D01*
X131145887Y-122296544D01*
X131145892Y-122296550D01*
X131243448Y-122394106D01*
X131243454Y-122394111D01*
X131243458Y-122394114D01*
X131358182Y-122470771D01*
X131358195Y-122470778D01*
X131453647Y-122510315D01*
X131480060Y-122521255D01*
X131484470Y-122523341D01*
X131621001Y-122550500D01*
X131758995Y-122550500D01*
X131758996Y-122550500D01*
X131816686Y-122539024D01*
X131850041Y-122532389D01*
X131894328Y-122523580D01*
X132021811Y-122470775D01*
X132136542Y-122394114D01*
X132175213Y-122355442D01*
X132203459Y-122334296D01*
X132213395Y-122328871D01*
X132281665Y-122314020D01*
X132347129Y-122338437D01*
X132388997Y-122394360D01*
X132391678Y-122401549D01*
X132399500Y-122444890D01*
X132399500Y-122994849D01*
X132399502Y-122994885D01*
X132402414Y-123019993D01*
X132405503Y-123030362D01*
X132404264Y-123030730D01*
X132410757Y-123051954D01*
X132412441Y-123064821D01*
X132401623Y-123133848D01*
X132355204Y-123186069D01*
X132334254Y-123199161D01*
X132318626Y-123207439D01*
X132227240Y-123247789D01*
X132227236Y-123247792D01*
X132147793Y-123327234D01*
X132102414Y-123430005D01*
X132101844Y-123432710D01*
X132101589Y-123437124D01*
X132099500Y-123455127D01*
X132099500Y-124544849D01*
X132099502Y-124544885D01*
X132102414Y-124569993D01*
X132102546Y-124570438D01*
X132103609Y-124572696D01*
X132147791Y-124672760D01*
X132147793Y-124672764D01*
X132147794Y-124672765D01*
X132227235Y-124752206D01*
X132330009Y-124797585D01*
X132355135Y-124800500D01*
X133244864Y-124800499D01*
X133244879Y-124800499D01*
X133244978Y-124800492D01*
X133245733Y-124800398D01*
X133262893Y-124798408D01*
X133268611Y-124798078D01*
X133269225Y-124797978D01*
X133271863Y-124796758D01*
X133372765Y-124752206D01*
X133452206Y-124672765D01*
X133497585Y-124569991D01*
X133500500Y-124544865D01*
X133500499Y-123455136D01*
X133500497Y-123455117D01*
X133498409Y-123437117D01*
X133498078Y-123431384D01*
X133496925Y-123424313D01*
X133496032Y-123416619D01*
X133492674Y-123405378D01*
X133491072Y-123393142D01*
X133501887Y-123324117D01*
X133548301Y-123271897D01*
X133552383Y-123269345D01*
X133618100Y-123250499D01*
X134232060Y-123250499D01*
X134244856Y-123250499D01*
X134244864Y-123250499D01*
X134244879Y-123250497D01*
X134244882Y-123250497D01*
X134269987Y-123247586D01*
X134269988Y-123247585D01*
X134269991Y-123247585D01*
X134372765Y-123202206D01*
X134388152Y-123186819D01*
X134431622Y-123163082D01*
X134436561Y-123160919D01*
X134454470Y-123158627D01*
X134486314Y-123150500D01*
X134607670Y-123150500D01*
X134642606Y-123155523D01*
X134657604Y-123159927D01*
X134716355Y-123197672D01*
X134717542Y-123199041D01*
X134745018Y-123253902D01*
X134746663Y-123261460D01*
X134749500Y-123287831D01*
X134749500Y-131922475D01*
X134759588Y-131960123D01*
X134787016Y-132062486D01*
X134787017Y-132062487D01*
X134859485Y-132188008D01*
X134859487Y-132188010D01*
X134859491Y-132188016D01*
X134859495Y-132188021D01*
X136800573Y-134129098D01*
X136821723Y-134157350D01*
X136824416Y-134162281D01*
X136832161Y-134176466D01*
X136834331Y-134180439D01*
X136849500Y-134239868D01*
X136849500Y-135857670D01*
X136844475Y-135892614D01*
X136840070Y-135907612D01*
X136802327Y-135966355D01*
X136800958Y-135967542D01*
X136746097Y-135995018D01*
X136738539Y-135996663D01*
X136712168Y-135999500D01*
X136525143Y-135999500D01*
X136525127Y-135999501D01*
X136525113Y-135999502D01*
X136507255Y-136001573D01*
X136500012Y-136002413D01*
X136500011Y-136002413D01*
X136500005Y-136002414D01*
X136499559Y-136002547D01*
X136497303Y-136003609D01*
X136397236Y-136047792D01*
X136317793Y-136127234D01*
X136272414Y-136230005D01*
X136271844Y-136232710D01*
X136271589Y-136237124D01*
X136271348Y-136239207D01*
X136269500Y-136255131D01*
X136269500Y-138044856D01*
X136269502Y-138044882D01*
X136269783Y-138047302D01*
X136272414Y-138069993D01*
X136272546Y-138070438D01*
X136273609Y-138072696D01*
X136310960Y-138157288D01*
X136317793Y-138172764D01*
X136317794Y-138172765D01*
X136397235Y-138252206D01*
X136500009Y-138297585D01*
X136525135Y-138300500D01*
X138314864Y-138300499D01*
X138314879Y-138300499D01*
X138314978Y-138300492D01*
X138315733Y-138300398D01*
X138332893Y-138298408D01*
X138338611Y-138298078D01*
X138339225Y-138297978D01*
X138341863Y-138296758D01*
X138442765Y-138252206D01*
X138522206Y-138172765D01*
X138567585Y-138069991D01*
X138570500Y-138044865D01*
X138570499Y-137324953D01*
X138575520Y-137290026D01*
X138577240Y-137284167D01*
X138615011Y-137225387D01*
X138678565Y-137196358D01*
X138747724Y-137206298D01*
X138800531Y-137252050D01*
X138800619Y-137252187D01*
X138800851Y-137252549D01*
X138818924Y-137300058D01*
X138837829Y-137419413D01*
X138893778Y-137591612D01*
X138893786Y-137591635D01*
X138893788Y-137591639D01*
X138976006Y-137752997D01*
X139082441Y-137899494D01*
X139082445Y-137899499D01*
X139082452Y-137899507D01*
X139210493Y-138027548D01*
X139210496Y-138027550D01*
X139210500Y-138027554D01*
X139210505Y-138027558D01*
X139334565Y-138117692D01*
X139357006Y-138133996D01*
X139433094Y-138172765D01*
X139518360Y-138216211D01*
X139518363Y-138216212D01*
X139604476Y-138244191D01*
X139644136Y-138257077D01*
X139690584Y-138272169D01*
X139690585Y-138272169D01*
X139690591Y-138272171D01*
X139773429Y-138285291D01*
X139869449Y-138300500D01*
X139869454Y-138300500D01*
X140050548Y-138300500D01*
X140050551Y-138300500D01*
X140137259Y-138286765D01*
X140229409Y-138272171D01*
X140401639Y-138216211D01*
X140562994Y-138133996D01*
X140709501Y-138027553D01*
X140837553Y-137899501D01*
X140943996Y-137752994D01*
X141026211Y-137591639D01*
X141082171Y-137419409D01*
X141098511Y-137316243D01*
X141104738Y-137276923D01*
X141115162Y-137243213D01*
X141118143Y-137236925D01*
X141164649Y-137184785D01*
X141231964Y-137166063D01*
X141298714Y-137186706D01*
X141342978Y-137238532D01*
X141345439Y-137243920D01*
X141355121Y-137276040D01*
X141377829Y-137419413D01*
X141433778Y-137591612D01*
X141433786Y-137591635D01*
X141433788Y-137591639D01*
X141516006Y-137752997D01*
X141622441Y-137899494D01*
X141622445Y-137899499D01*
X141622452Y-137899507D01*
X141750493Y-138027548D01*
X141750496Y-138027550D01*
X141750500Y-138027554D01*
X141750505Y-138027558D01*
X141874565Y-138117692D01*
X141897006Y-138133996D01*
X141973094Y-138172765D01*
X142058360Y-138216211D01*
X142058363Y-138216212D01*
X142144476Y-138244191D01*
X142184136Y-138257077D01*
X142230584Y-138272169D01*
X142230585Y-138272169D01*
X142230591Y-138272171D01*
X142313429Y-138285291D01*
X142409449Y-138300500D01*
X142409454Y-138300500D01*
X142590548Y-138300500D01*
X142590551Y-138300500D01*
X142677259Y-138286765D01*
X142769409Y-138272171D01*
X142941639Y-138216211D01*
X143102994Y-138133996D01*
X143225669Y-138044868D01*
X143249495Y-138027558D01*
X143249497Y-138027555D01*
X143249501Y-138027553D01*
X143249503Y-138027550D01*
X143249555Y-138027513D01*
X143250257Y-138026796D01*
X143377553Y-137899501D01*
X143391873Y-137879792D01*
X143459049Y-137787331D01*
X143483996Y-137752994D01*
X143542996Y-137637197D01*
X143563330Y-137608354D01*
X143571097Y-137600130D01*
X143631436Y-137564908D01*
X143701242Y-137567899D01*
X143758347Y-137608153D01*
X143763125Y-137614170D01*
X143783948Y-137652963D01*
X143788904Y-137668218D01*
X143885374Y-137857548D01*
X143885375Y-137857550D01*
X143915847Y-137899493D01*
X143924728Y-137911716D01*
X144430297Y-137406147D01*
X144491619Y-137372663D01*
X144561311Y-137377647D01*
X144617244Y-137419519D01*
X144625363Y-137431828D01*
X144639896Y-137457000D01*
X144639899Y-137457004D01*
X144639901Y-137457007D01*
X144732993Y-137550099D01*
X144758169Y-137564634D01*
X144806384Y-137615202D01*
X144819606Y-137683809D01*
X144793638Y-137748673D01*
X144783849Y-137759702D01*
X144278282Y-138265268D01*
X144278282Y-138265269D01*
X144278282Y-138265270D01*
X144332449Y-138304624D01*
X144507512Y-138393824D01*
X144521784Y-138401096D01*
X144723866Y-138466756D01*
X144723867Y-138466756D01*
X144723870Y-138466757D01*
X144933754Y-138500000D01*
X145146245Y-138500000D01*
X145146246Y-138500000D01*
X145260161Y-138481957D01*
X145346487Y-138468284D01*
X145346493Y-138468283D01*
X145356127Y-138466757D01*
X145356130Y-138466757D01*
X145558217Y-138401095D01*
X145747554Y-138304622D01*
X145753229Y-138300499D01*
X145769121Y-138288953D01*
X145795858Y-138279412D01*
X145801717Y-138265269D01*
X145296149Y-137759702D01*
X145262664Y-137698379D01*
X145267648Y-137628688D01*
X145309519Y-137572754D01*
X145321822Y-137564639D01*
X145347007Y-137550099D01*
X145440099Y-137457007D01*
X145454634Y-137431830D01*
X145505199Y-137383616D01*
X145573805Y-137370391D01*
X145638671Y-137396358D01*
X145649702Y-137406149D01*
X146155269Y-137911717D01*
X146155269Y-137911716D01*
X146155270Y-137911717D01*
X146155270Y-137911716D01*
X146166194Y-137907191D01*
X146167997Y-137903225D01*
X146171076Y-137891425D01*
X146174648Y-137885043D01*
X146194622Y-137857554D01*
X146198471Y-137850000D01*
X148087156Y-137850000D01*
X148122742Y-137972489D01*
X148127595Y-137989194D01*
X148127597Y-137989198D01*
X148203588Y-138117693D01*
X148209261Y-138127285D01*
X148209268Y-138127294D01*
X148322705Y-138240731D01*
X148322714Y-138240738D01*
X148357672Y-138261412D01*
X148460804Y-138322404D01*
X148460805Y-138322404D01*
X148460808Y-138322406D01*
X148460811Y-138322407D01*
X148460833Y-138322413D01*
X148460838Y-138322415D01*
X148614860Y-138367163D01*
X148614863Y-138367163D01*
X148614871Y-138367166D01*
X148614877Y-138367167D01*
X148650000Y-138369931D01*
X148650000Y-137850000D01*
X148087157Y-137850000D01*
X148087156Y-137850000D01*
X146198471Y-137850000D01*
X146239845Y-137768801D01*
X146291095Y-137668217D01*
X146356757Y-137466130D01*
X146356757Y-137466127D01*
X146359486Y-137448901D01*
X146379117Y-137324954D01*
X146390000Y-137256246D01*
X146390000Y-137043753D01*
X146373710Y-136940907D01*
X146358284Y-136843511D01*
X146358283Y-136843505D01*
X146358283Y-136843506D01*
X146356756Y-136833865D01*
X146329473Y-136749898D01*
X146291095Y-136631782D01*
X146194624Y-136442449D01*
X146155270Y-136388282D01*
X146155269Y-136388282D01*
X146155268Y-136388282D01*
X145649702Y-136893849D01*
X145588379Y-136927334D01*
X145518687Y-136922350D01*
X145462754Y-136880478D01*
X145454634Y-136868169D01*
X145444170Y-136850045D01*
X145440099Y-136842993D01*
X145347007Y-136749901D01*
X145347004Y-136749899D01*
X145347000Y-136749896D01*
X145321828Y-136735363D01*
X145273613Y-136684796D01*
X145260391Y-136616189D01*
X145286359Y-136551324D01*
X145296135Y-136540310D01*
X145801716Y-136034728D01*
X145747550Y-135995375D01*
X145709908Y-135976195D01*
X145558214Y-135898902D01*
X145356130Y-135833242D01*
X145146251Y-135800000D01*
X145146246Y-135800000D01*
X144933754Y-135800000D01*
X144933749Y-135800000D01*
X144733513Y-135831715D01*
X144733505Y-135831715D01*
X144733506Y-135831716D01*
X144723865Y-135833242D01*
X144521784Y-135898903D01*
X144332438Y-135995380D01*
X144278282Y-136034727D01*
X144278282Y-136034728D01*
X144783850Y-136540296D01*
X144817335Y-136601619D01*
X144812351Y-136671311D01*
X144770479Y-136727244D01*
X144758173Y-136735362D01*
X144732996Y-136749898D01*
X144732990Y-136749903D01*
X144639903Y-136842990D01*
X144639898Y-136842996D01*
X144625362Y-136868173D01*
X144574793Y-136916387D01*
X144506185Y-136929607D01*
X144441322Y-136903637D01*
X144430296Y-136893850D01*
X143924728Y-136388282D01*
X143924727Y-136388282D01*
X143885380Y-136442438D01*
X143788904Y-136631780D01*
X143785015Y-136643752D01*
X143769441Y-136675427D01*
X143763056Y-136684764D01*
X143708965Y-136728990D01*
X143639551Y-136736952D01*
X143576852Y-136706122D01*
X143571198Y-136700933D01*
X143544566Y-136665879D01*
X143486196Y-136551324D01*
X143483997Y-136547008D01*
X143483993Y-136547002D01*
X143481450Y-136542851D01*
X143481854Y-136542603D01*
X143468189Y-136516703D01*
X143457708Y-136487326D01*
X143450500Y-136445664D01*
X143450500Y-135292329D01*
X143455523Y-135257393D01*
X143455801Y-135256448D01*
X143459927Y-135242394D01*
X143497672Y-135183644D01*
X143499041Y-135182457D01*
X143553920Y-135154977D01*
X143561479Y-135153333D01*
X143587832Y-135150500D01*
X145659308Y-135150500D01*
X145659309Y-135150500D01*
X145749673Y-135126286D01*
X145773887Y-135119799D01*
X145876614Y-135060489D01*
X146460490Y-134476614D01*
X146519799Y-134373887D01*
X146520743Y-134370362D01*
X146520749Y-134370352D01*
X146520746Y-134370352D01*
X146526197Y-134350010D01*
X146540799Y-134295513D01*
X146540799Y-134295511D01*
X146550500Y-134259309D01*
X146550500Y-134231592D01*
X146555523Y-134196658D01*
X146559360Y-134183590D01*
X146597134Y-134124812D01*
X146660689Y-134095786D01*
X146722710Y-134102736D01*
X146730428Y-134105693D01*
X146754938Y-134118377D01*
X146841866Y-134176461D01*
X146841870Y-134176463D01*
X146841873Y-134176465D01*
X146906004Y-134203029D01*
X146954645Y-134223177D01*
X146959052Y-134225261D01*
X146960253Y-134225500D01*
X146960256Y-134225501D01*
X146960258Y-134225501D01*
X146960260Y-134225501D01*
X146960261Y-134225502D01*
X147042846Y-134241930D01*
X147085927Y-134250500D01*
X147214071Y-134250500D01*
X147214072Y-134250500D01*
X147267519Y-134239868D01*
X147320208Y-134229387D01*
X147339744Y-134225501D01*
X147458127Y-134176465D01*
X147458139Y-134176456D01*
X147460006Y-134175460D01*
X147481417Y-134166479D01*
X147514363Y-134156164D01*
X147551412Y-134150500D01*
X147599729Y-134150500D01*
X147666768Y-134170185D01*
X147712523Y-134222989D01*
X147717383Y-134235341D01*
X147751384Y-134337497D01*
X147751386Y-134337503D01*
X147829171Y-134458537D01*
X147829179Y-134458548D01*
X147874923Y-134511340D01*
X147874926Y-134511343D01*
X147874930Y-134511347D01*
X147983664Y-134605567D01*
X147983667Y-134605568D01*
X147983668Y-134605569D01*
X148080222Y-134649665D01*
X148133026Y-134695420D01*
X148152710Y-134762460D01*
X148144065Y-134807947D01*
X148134521Y-134832149D01*
X148133872Y-134835565D01*
X148133635Y-134839525D01*
X148124500Y-134915595D01*
X148124500Y-135434402D01*
X148133635Y-135510472D01*
X148133872Y-135514434D01*
X148134521Y-135517848D01*
X148186884Y-135650631D01*
X148186885Y-135650633D01*
X148273131Y-135764367D01*
X148378455Y-135844236D01*
X148392284Y-135856444D01*
X148392738Y-135856909D01*
X148392738Y-135856910D01*
X148411586Y-135876229D01*
X148443165Y-135932893D01*
X148445834Y-135943624D01*
X148449500Y-135973553D01*
X148449500Y-136019255D01*
X148444477Y-136054191D01*
X148438132Y-136075799D01*
X148409627Y-136125661D01*
X148391793Y-136144687D01*
X148389952Y-136151356D01*
X148384337Y-136159645D01*
X148325617Y-136239206D01*
X148282257Y-136363117D01*
X148281883Y-136365319D01*
X148281717Y-136368888D01*
X148279500Y-136392538D01*
X148279500Y-136767453D01*
X148279501Y-136767461D01*
X148282258Y-136796874D01*
X148282258Y-136796876D01*
X148282260Y-136796883D01*
X148303214Y-136856767D01*
X148310011Y-136891399D01*
X148310843Y-136907696D01*
X148295226Y-136974550D01*
X148288132Y-136987233D01*
X148267591Y-137014382D01*
X148209272Y-137072700D01*
X148209264Y-137072709D01*
X148209260Y-137072714D01*
X148127596Y-137210801D01*
X148127595Y-137210805D01*
X148087156Y-137350000D01*
X148758170Y-137350000D01*
X148793106Y-137355023D01*
X148808104Y-137359427D01*
X148866855Y-137397172D01*
X148868042Y-137398541D01*
X148895518Y-137453402D01*
X148897163Y-137460960D01*
X148900000Y-137487331D01*
X148900000Y-137600000D01*
X149008170Y-137600000D01*
X149043106Y-137605023D01*
X149058104Y-137609427D01*
X149116855Y-137647172D01*
X149118042Y-137648541D01*
X149145518Y-137703402D01*
X149147163Y-137710960D01*
X149150000Y-137737331D01*
X149150000Y-138369929D01*
X149150000Y-138369930D01*
X149185122Y-138367167D01*
X149185128Y-138367166D01*
X149240437Y-138351097D01*
X156400000Y-138351097D01*
X156402896Y-138393826D01*
X156448829Y-138578518D01*
X156448832Y-138578526D01*
X156515350Y-138712648D01*
X156533390Y-138749022D01*
X156533392Y-138749025D01*
X156533397Y-138749031D01*
X156533401Y-138749037D01*
X156652623Y-138897355D01*
X156652632Y-138897366D01*
X156652643Y-138897375D01*
X156800961Y-139016597D01*
X156800964Y-139016599D01*
X156800974Y-139016607D01*
X156800977Y-139016609D01*
X156971476Y-139101168D01*
X157156175Y-139147102D01*
X157198903Y-139150000D01*
X157650000Y-139150000D01*
X157650000Y-138150000D01*
X156400000Y-138150000D01*
X156400000Y-138351097D01*
X149240437Y-138351097D01*
X149339188Y-138322407D01*
X149339191Y-138322406D01*
X149477285Y-138240738D01*
X149477294Y-138240731D01*
X149590731Y-138127294D01*
X149590738Y-138127285D01*
X149645010Y-138035517D01*
X149672406Y-137989191D01*
X149672407Y-137989188D01*
X149694915Y-137911716D01*
X149705279Y-137876045D01*
X149742885Y-137817159D01*
X149806358Y-137787953D01*
X149875544Y-137797699D01*
X149928479Y-137843303D01*
X149940537Y-137867306D01*
X149956247Y-137909427D01*
X149959168Y-137917257D01*
X149992653Y-137978580D01*
X150078877Y-138093761D01*
X150106239Y-138121123D01*
X150106246Y-138121129D01*
X150106262Y-138121144D01*
X150146480Y-138157271D01*
X150146492Y-138157281D01*
X150146500Y-138157288D01*
X150167142Y-138173922D01*
X150211026Y-138205567D01*
X150341903Y-138265338D01*
X150408942Y-138285023D01*
X150408946Y-138285024D01*
X150551362Y-138305500D01*
X150551365Y-138305500D01*
X153648638Y-138305500D01*
X153648640Y-138305500D01*
X153658786Y-138304955D01*
X153702678Y-138302603D01*
X153702686Y-138302602D01*
X153702688Y-138302602D01*
X153702689Y-138302602D01*
X153709682Y-138301849D01*
X153729036Y-138299769D01*
X153729046Y-138299767D01*
X153729049Y-138299767D01*
X153738648Y-138298211D01*
X153782448Y-138291114D01*
X153917257Y-138240832D01*
X153978580Y-138207347D01*
X154093762Y-138121123D01*
X154144898Y-138069987D01*
X154203929Y-138010957D01*
X154808736Y-137406148D01*
X155174162Y-137040720D01*
X155235483Y-137007237D01*
X155261317Y-137004404D01*
X156358347Y-136999787D01*
X156425467Y-137019189D01*
X156471444Y-137071800D01*
X156481678Y-137140916D01*
X156469956Y-137178878D01*
X156448832Y-137221471D01*
X156448829Y-137221480D01*
X156402896Y-137406172D01*
X156401157Y-137431832D01*
X156400000Y-137448903D01*
X156400000Y-137650000D01*
X157758170Y-137650000D01*
X157793106Y-137655023D01*
X157808104Y-137659427D01*
X157866855Y-137697172D01*
X157868042Y-137698541D01*
X157895518Y-137753402D01*
X157897163Y-137760960D01*
X157900000Y-137787331D01*
X157900000Y-137900000D01*
X158008170Y-137900000D01*
X158043106Y-137905023D01*
X158058104Y-137909427D01*
X158116855Y-137947172D01*
X158118042Y-137948541D01*
X158145518Y-138003402D01*
X158147163Y-138010960D01*
X158150000Y-138037331D01*
X158150000Y-139150000D01*
X158601094Y-139150000D01*
X158601097Y-139150000D01*
X158643824Y-139147102D01*
X158828523Y-139101168D01*
X158999021Y-139016610D01*
X159036775Y-138986261D01*
X159067147Y-138968290D01*
X159079982Y-138962992D01*
X159149459Y-138955611D01*
X159211895Y-138986959D01*
X159220707Y-138995183D01*
X159241639Y-139020737D01*
X159332684Y-139168345D01*
X159456654Y-139292315D01*
X159605875Y-139384356D01*
X159605880Y-139384358D01*
X159772299Y-139439504D01*
X159772300Y-139439504D01*
X159772302Y-139439505D01*
X159772309Y-139439506D01*
X159875019Y-139449999D01*
X160149999Y-139449999D01*
X160650000Y-139449999D01*
X160924960Y-139449999D01*
X160924972Y-139449999D01*
X160924986Y-139449998D01*
X161027697Y-139439505D01*
X161194119Y-139384358D01*
X161194124Y-139384356D01*
X161343345Y-139292315D01*
X161467315Y-139168345D01*
X161559356Y-139019124D01*
X161559358Y-139019119D01*
X161614505Y-138852697D01*
X161614506Y-138852690D01*
X161624999Y-138749986D01*
X161625000Y-138749973D01*
X161625000Y-138700000D01*
X160650000Y-138700000D01*
X160650000Y-139449999D01*
X160149999Y-139449999D01*
X160150000Y-139449998D01*
X160150000Y-138591829D01*
X160155023Y-138556893D01*
X160159427Y-138541895D01*
X160169069Y-138526886D01*
X160169685Y-138524790D01*
X160171334Y-138523360D01*
X160197172Y-138483144D01*
X160198541Y-138481957D01*
X160253420Y-138454477D01*
X160260979Y-138452833D01*
X160287332Y-138450000D01*
X160400000Y-138450000D01*
X160400000Y-138341829D01*
X160405023Y-138306893D01*
X160405433Y-138305499D01*
X160409427Y-138291894D01*
X160447172Y-138233144D01*
X160448541Y-138231957D01*
X160503420Y-138204477D01*
X160510979Y-138202833D01*
X160537332Y-138200000D01*
X161624999Y-138200000D01*
X161624999Y-138150032D01*
X161624999Y-138150028D01*
X161624998Y-138150013D01*
X161623361Y-138133993D01*
X161617099Y-138072696D01*
X161614505Y-138047302D01*
X161559358Y-137880880D01*
X161559356Y-137880875D01*
X161467315Y-137731654D01*
X161343345Y-137607684D01*
X161343341Y-137607681D01*
X161194127Y-137515644D01*
X161194119Y-137515641D01*
X161189164Y-137513999D01*
X161157579Y-137498240D01*
X161148279Y-137491801D01*
X161104369Y-137437455D01*
X161096811Y-137367995D01*
X161128001Y-137305482D01*
X161140920Y-137291568D01*
X161156855Y-137277147D01*
X161267922Y-137192922D01*
X161292696Y-137160253D01*
X161346942Y-137088717D01*
X161363712Y-137070657D01*
X161381938Y-137054581D01*
X161401953Y-137040195D01*
X161488015Y-136990509D01*
X161584811Y-136893713D01*
X162649500Y-136893713D01*
X162649500Y-136898003D01*
X162649500Y-137106286D01*
X162656066Y-137147742D01*
X162656066Y-137147743D01*
X162665340Y-137206298D01*
X162675776Y-137272193D01*
X162678237Y-137287728D01*
X162682752Y-137316236D01*
X162682753Y-137316239D01*
X162682754Y-137316243D01*
X162711966Y-137406148D01*
X162747536Y-137515622D01*
X162748444Y-137518415D01*
X162824772Y-137668217D01*
X162844951Y-137707820D01*
X162969890Y-137879786D01*
X162969892Y-137879788D01*
X163120216Y-138030112D01*
X163292183Y-138155052D01*
X163292471Y-138155197D01*
X163481588Y-138251557D01*
X163683757Y-138317246D01*
X163893713Y-138350500D01*
X163893714Y-138350500D01*
X164106286Y-138350500D01*
X164106287Y-138350500D01*
X164316243Y-138317246D01*
X164518412Y-138251557D01*
X164707816Y-138155051D01*
X164754486Y-138121144D01*
X164759236Y-138117693D01*
X164774593Y-138106535D01*
X164879786Y-138030109D01*
X164879788Y-138030106D01*
X164879792Y-138030104D01*
X164879795Y-138030100D01*
X164879847Y-138030063D01*
X164880592Y-138029303D01*
X165029303Y-137880592D01*
X165030065Y-137879845D01*
X165030107Y-137879787D01*
X165030109Y-137879786D01*
X165117354Y-137759702D01*
X165143294Y-137723999D01*
X165143295Y-137723998D01*
X165155045Y-137707825D01*
X165155046Y-137707823D01*
X165155048Y-137707820D01*
X165155051Y-137707816D01*
X165251557Y-137518412D01*
X165317246Y-137316243D01*
X165350500Y-137106287D01*
X165350500Y-136893713D01*
X165317246Y-136683757D01*
X165251557Y-136481588D01*
X165155197Y-136292471D01*
X165155052Y-136292183D01*
X165030112Y-136120216D01*
X164879788Y-135969892D01*
X164879786Y-135969890D01*
X164707820Y-135844951D01*
X164586986Y-135783383D01*
X164535911Y-135757359D01*
X164530571Y-135753479D01*
X164506254Y-135743406D01*
X164499734Y-135742374D01*
X164426122Y-135718456D01*
X164325074Y-135685623D01*
X164320552Y-135683770D01*
X164311362Y-135681600D01*
X164306599Y-135681226D01*
X164154957Y-135657208D01*
X164135489Y-135654124D01*
X164106290Y-135649500D01*
X164106287Y-135649500D01*
X163893713Y-135649500D01*
X163893709Y-135649500D01*
X163854776Y-135655666D01*
X163845042Y-135657208D01*
X163807654Y-135663129D01*
X163683763Y-135682752D01*
X163481582Y-135748445D01*
X163292182Y-135844949D01*
X163292179Y-135844950D01*
X163292179Y-135844951D01*
X163217918Y-135898904D01*
X163120210Y-135969892D01*
X162969892Y-136120210D01*
X162938002Y-136164103D01*
X162859289Y-136272445D01*
X162844949Y-136292182D01*
X162748417Y-136481637D01*
X162747945Y-136482580D01*
X162746864Y-136486443D01*
X162737468Y-136515364D01*
X162737467Y-136515368D01*
X162727187Y-136547006D01*
X162682752Y-136683759D01*
X162682752Y-136683760D01*
X162659863Y-136828281D01*
X162659853Y-136828347D01*
X162659771Y-136828866D01*
X162649500Y-136893713D01*
X161584811Y-136893713D01*
X161590509Y-136888015D01*
X161612435Y-136850034D01*
X161621436Y-136836563D01*
X161631259Y-136823761D01*
X161641940Y-136811582D01*
X166521214Y-131932309D01*
X166549457Y-131911165D01*
X166559391Y-131905741D01*
X166627661Y-131890888D01*
X166693126Y-131915302D01*
X166734999Y-131971234D01*
X166735001Y-131971238D01*
X166737682Y-131978426D01*
X166745500Y-132021760D01*
X166745500Y-137993357D01*
X166745421Y-137997784D01*
X166745263Y-138002207D01*
X166745026Y-138006627D01*
X166728681Y-138235142D01*
X166727734Y-138243951D01*
X166726474Y-138252710D01*
X166724903Y-138261412D01*
X166677622Y-138478762D01*
X166675433Y-138487339D01*
X166672941Y-138495826D01*
X166670146Y-138504224D01*
X166592409Y-138712648D01*
X166589019Y-138720833D01*
X166585349Y-138728868D01*
X166581389Y-138736777D01*
X166474783Y-138932011D01*
X166470264Y-138939628D01*
X166465477Y-138947076D01*
X166460431Y-138954342D01*
X166327133Y-139132408D01*
X166321579Y-139139300D01*
X166315783Y-139145989D01*
X166309751Y-139152468D01*
X166152468Y-139309751D01*
X166145989Y-139315783D01*
X166139300Y-139321579D01*
X166132408Y-139327133D01*
X165954342Y-139460431D01*
X165947076Y-139465477D01*
X165939628Y-139470264D01*
X165932011Y-139474783D01*
X165736777Y-139581389D01*
X165728868Y-139585349D01*
X165720833Y-139589019D01*
X165712648Y-139592409D01*
X165504224Y-139670146D01*
X165495826Y-139672941D01*
X165487339Y-139675433D01*
X165478762Y-139677622D01*
X165261412Y-139724903D01*
X165252708Y-139726474D01*
X165243948Y-139727734D01*
X165235141Y-139728681D01*
X165024727Y-139743731D01*
X165006623Y-139745026D01*
X165002206Y-139745262D01*
X164997780Y-139745421D01*
X164993356Y-139745500D01*
X131506643Y-139745500D01*
X131502220Y-139745421D01*
X131497792Y-139745262D01*
X131493377Y-139745026D01*
X131472868Y-139743559D01*
X131264857Y-139728681D01*
X131256050Y-139727734D01*
X131247290Y-139726474D01*
X131238586Y-139724903D01*
X131021236Y-139677622D01*
X131012659Y-139675433D01*
X131004172Y-139672941D01*
X130995774Y-139670146D01*
X130787350Y-139592409D01*
X130779180Y-139589025D01*
X130771125Y-139585346D01*
X130763221Y-139581389D01*
X130567987Y-139474783D01*
X130560370Y-139470264D01*
X130552922Y-139465477D01*
X130545656Y-139460431D01*
X130367590Y-139327133D01*
X130360698Y-139321579D01*
X130354009Y-139315783D01*
X130347530Y-139309751D01*
X130190247Y-139152468D01*
X130184215Y-139145989D01*
X130178419Y-139139300D01*
X130172865Y-139132408D01*
X130039567Y-138954342D01*
X130034521Y-138947076D01*
X130029734Y-138939628D01*
X130025215Y-138932011D01*
X130006298Y-138897367D01*
X129918606Y-138736772D01*
X129914647Y-138728863D01*
X129910982Y-138720839D01*
X129907596Y-138712666D01*
X129829850Y-138504219D01*
X129827056Y-138495824D01*
X129824567Y-138487348D01*
X129822380Y-138478780D01*
X129818557Y-138461206D01*
X129816119Y-138450000D01*
X129788363Y-138322404D01*
X129775090Y-138261393D01*
X129773520Y-138252687D01*
X129773358Y-138251557D01*
X129772262Y-138243939D01*
X129771318Y-138235151D01*
X129771317Y-138235142D01*
X129768804Y-138200000D01*
X129764083Y-138133997D01*
X129756409Y-138026694D01*
X129754973Y-138006624D01*
X129754737Y-138002206D01*
X129754579Y-137997780D01*
X129754500Y-137993356D01*
X129754500Y-136893713D01*
X131149500Y-136893713D01*
X131149500Y-136898003D01*
X131149500Y-137106286D01*
X131156066Y-137147742D01*
X131156066Y-137147743D01*
X131165340Y-137206298D01*
X131175776Y-137272193D01*
X131178237Y-137287728D01*
X131182752Y-137316236D01*
X131182753Y-137316239D01*
X131182754Y-137316243D01*
X131211966Y-137406148D01*
X131247536Y-137515622D01*
X131248444Y-137518415D01*
X131324772Y-137668217D01*
X131344951Y-137707820D01*
X131469890Y-137879786D01*
X131469892Y-137879788D01*
X131620216Y-138030112D01*
X131792183Y-138155052D01*
X131792471Y-138155197D01*
X131981588Y-138251557D01*
X132183757Y-138317246D01*
X132393713Y-138350500D01*
X132393714Y-138350500D01*
X132606286Y-138350500D01*
X132606287Y-138350500D01*
X132816243Y-138317246D01*
X133018412Y-138251557D01*
X133207816Y-138155051D01*
X133254486Y-138121144D01*
X133259236Y-138117693D01*
X133274593Y-138106535D01*
X133379786Y-138030109D01*
X133379788Y-138030106D01*
X133379792Y-138030104D01*
X133379795Y-138030100D01*
X133379847Y-138030063D01*
X133380592Y-138029303D01*
X133529303Y-137880592D01*
X133530065Y-137879845D01*
X133530107Y-137879787D01*
X133530109Y-137879786D01*
X133617354Y-137759702D01*
X133643294Y-137723999D01*
X133643295Y-137723998D01*
X133655045Y-137707825D01*
X133655046Y-137707823D01*
X133655048Y-137707820D01*
X133655051Y-137707816D01*
X133751557Y-137518412D01*
X133817246Y-137316243D01*
X133850500Y-137106287D01*
X133850500Y-136893713D01*
X133817246Y-136683757D01*
X133751557Y-136481588D01*
X133655197Y-136292471D01*
X133655052Y-136292183D01*
X133530112Y-136120216D01*
X133379788Y-135969892D01*
X133379786Y-135969890D01*
X133207820Y-135844951D01*
X133086986Y-135783383D01*
X133035911Y-135757359D01*
X133030571Y-135753479D01*
X133006254Y-135743406D01*
X132999734Y-135742374D01*
X132926122Y-135718456D01*
X132825074Y-135685623D01*
X132820552Y-135683770D01*
X132811362Y-135681600D01*
X132806599Y-135681226D01*
X132654957Y-135657208D01*
X132635489Y-135654124D01*
X132606290Y-135649500D01*
X132606287Y-135649500D01*
X132393713Y-135649500D01*
X132393709Y-135649500D01*
X132354776Y-135655666D01*
X132345042Y-135657208D01*
X132307654Y-135663129D01*
X132183763Y-135682752D01*
X131981582Y-135748445D01*
X131792182Y-135844949D01*
X131792179Y-135844950D01*
X131792179Y-135844951D01*
X131717918Y-135898904D01*
X131620210Y-135969892D01*
X131469892Y-136120210D01*
X131438002Y-136164103D01*
X131359289Y-136272445D01*
X131344949Y-136292182D01*
X131248417Y-136481637D01*
X131247945Y-136482580D01*
X131246864Y-136486443D01*
X131237468Y-136515364D01*
X131237467Y-136515368D01*
X131227187Y-136547006D01*
X131182752Y-136683759D01*
X131182752Y-136683760D01*
X131159863Y-136828281D01*
X131159853Y-136828347D01*
X131159771Y-136828866D01*
X131149500Y-136893713D01*
X129754500Y-136893713D01*
X129754500Y-124806662D01*
X129759521Y-124771735D01*
X129762707Y-124760882D01*
X129800477Y-124702101D01*
X129864031Y-124673072D01*
X129933186Y-124683010D01*
X129940172Y-124686200D01*
X129976342Y-124711313D01*
X130017235Y-124752206D01*
X130120009Y-124797585D01*
X130145135Y-124800500D01*
X131034864Y-124800499D01*
X131034879Y-124800499D01*
X131034978Y-124800492D01*
X131035733Y-124800398D01*
X131052893Y-124798408D01*
X131058611Y-124798078D01*
X131059225Y-124797978D01*
X131061863Y-124796758D01*
X131162765Y-124752206D01*
X131242206Y-124672765D01*
X131287585Y-124569991D01*
X131290500Y-124544865D01*
X131290499Y-123455136D01*
X131290497Y-123455117D01*
X131288409Y-123437113D01*
X131288078Y-123431390D01*
X131287955Y-123430630D01*
X131286406Y-123427339D01*
X131242206Y-123327235D01*
X131162765Y-123247794D01*
X131162764Y-123247793D01*
X131099847Y-123220013D01*
X131059993Y-123202415D01*
X131034868Y-123199500D01*
X131034865Y-123199500D01*
X130145143Y-123199500D01*
X130145127Y-123199501D01*
X130145113Y-123199502D01*
X130127255Y-123201573D01*
X130120012Y-123202413D01*
X130120011Y-123202413D01*
X130120005Y-123202414D01*
X130119559Y-123202547D01*
X130117303Y-123203609D01*
X130017236Y-123247792D01*
X130017233Y-123247794D01*
X130017228Y-123247800D01*
X130017227Y-123247799D01*
X129978788Y-123286240D01*
X129950533Y-123307392D01*
X129940607Y-123312812D01*
X129872334Y-123327664D01*
X129806870Y-123303247D01*
X129764999Y-123247316D01*
X129762313Y-123240112D01*
X129754500Y-123196792D01*
X129754500Y-118892546D01*
X130984237Y-118892546D01*
X131016416Y-119054315D01*
X131016417Y-119054319D01*
X131016418Y-119054322D01*
X131016421Y-119054332D01*
X131016424Y-119054340D01*
X131016429Y-119054354D01*
X131069217Y-119181797D01*
X131069222Y-119181806D01*
X131069232Y-119181823D01*
X131145886Y-119296543D01*
X131145887Y-119296544D01*
X131145892Y-119296550D01*
X131243448Y-119394106D01*
X131243454Y-119394111D01*
X131243458Y-119394114D01*
X131358182Y-119470771D01*
X131358195Y-119470778D01*
X131480072Y-119521260D01*
X131484494Y-119523352D01*
X131485225Y-119523493D01*
X131485879Y-119523621D01*
X131541472Y-119534679D01*
X131621002Y-119550500D01*
X131758995Y-119550500D01*
X131758996Y-119550500D01*
X131863229Y-119529766D01*
X131894328Y-119523580D01*
X132021811Y-119470775D01*
X132136542Y-119394114D01*
X132234114Y-119296542D01*
X132310775Y-119181811D01*
X132363580Y-119054328D01*
X132367999Y-119032110D01*
X132379739Y-118998832D01*
X132386173Y-118986532D01*
X132434689Y-118936254D01*
X132502674Y-118920185D01*
X132515481Y-118920871D01*
X132552169Y-118928509D01*
X132592620Y-118943596D01*
X132592627Y-118943598D01*
X132592629Y-118943599D01*
X132652138Y-118949998D01*
X132652155Y-118949999D01*
X132652172Y-118950000D01*
X133200000Y-118950000D01*
X133700000Y-118950000D01*
X134247828Y-118950000D01*
X134247836Y-118950000D01*
X134247847Y-118949999D01*
X134283560Y-118946158D01*
X134307372Y-118943598D01*
X134307379Y-118943596D01*
X134442086Y-118893354D01*
X134442093Y-118893350D01*
X134557187Y-118807190D01*
X134557190Y-118807187D01*
X134643350Y-118692093D01*
X134643354Y-118692086D01*
X134693596Y-118557379D01*
X134693598Y-118557372D01*
X134697813Y-118518175D01*
X134699998Y-118497860D01*
X134700000Y-118497827D01*
X134700000Y-118350000D01*
X133700000Y-118350000D01*
X133700000Y-118950000D01*
X133200000Y-118950000D01*
X133200000Y-118350000D01*
X132249849Y-118350000D01*
X132214912Y-118344976D01*
X132189671Y-118337564D01*
X132140299Y-118308270D01*
X132139867Y-118308769D01*
X132137109Y-118306377D01*
X132136927Y-118306269D01*
X132136550Y-118305892D01*
X132136544Y-118305887D01*
X132136543Y-118305886D01*
X132021823Y-118229232D01*
X132021822Y-118229231D01*
X132021817Y-118229228D01*
X132021804Y-118229221D01*
X132021797Y-118229217D01*
X131894354Y-118176429D01*
X131894340Y-118176424D01*
X131894332Y-118176421D01*
X131894322Y-118176418D01*
X131894319Y-118176417D01*
X131894315Y-118176416D01*
X131758998Y-118149500D01*
X131758995Y-118149500D01*
X131758993Y-118149500D01*
X131621007Y-118149500D01*
X131621005Y-118149500D01*
X131621000Y-118149500D01*
X131485683Y-118176416D01*
X131485677Y-118176418D01*
X131485667Y-118176421D01*
X131485662Y-118176422D01*
X131485644Y-118176429D01*
X131358201Y-118229217D01*
X131358192Y-118229222D01*
X131358175Y-118229232D01*
X131243455Y-118305886D01*
X131243454Y-118305887D01*
X131243448Y-118305892D01*
X131145892Y-118403448D01*
X131145887Y-118403454D01*
X131145886Y-118403455D01*
X131069232Y-118518175D01*
X131069222Y-118518192D01*
X131069217Y-118518201D01*
X131016429Y-118645644D01*
X131016416Y-118645683D01*
X130989500Y-118781000D01*
X130989500Y-118874626D01*
X130984237Y-118892546D01*
X129754500Y-118892546D01*
X129754500Y-117506662D01*
X129759521Y-117471735D01*
X129761181Y-117466079D01*
X129762707Y-117460880D01*
X129800477Y-117402101D01*
X129864031Y-117373072D01*
X129933186Y-117383010D01*
X129940172Y-117386200D01*
X129976342Y-117411313D01*
X130017235Y-117452206D01*
X130120009Y-117497585D01*
X130145135Y-117500500D01*
X131034864Y-117500499D01*
X131034879Y-117500499D01*
X131034978Y-117500492D01*
X131035733Y-117500398D01*
X131052893Y-117498408D01*
X131058611Y-117498078D01*
X131059225Y-117497978D01*
X131061863Y-117496758D01*
X131162765Y-117452206D01*
X131242206Y-117372765D01*
X131287585Y-117269991D01*
X131290500Y-117244865D01*
X131290499Y-116155136D01*
X131290499Y-116155135D01*
X131290499Y-116155130D01*
X131290499Y-116155127D01*
X132099500Y-116155127D01*
X132099500Y-117244849D01*
X132099502Y-117244885D01*
X132100095Y-117250000D01*
X132102413Y-117269987D01*
X132102415Y-117269991D01*
X132147793Y-117372764D01*
X132181580Y-117406551D01*
X132194832Y-117419803D01*
X132215984Y-117448059D01*
X132223476Y-117461780D01*
X132238327Y-117530051D01*
X132237212Y-117545641D01*
X132229710Y-117580127D01*
X132206403Y-117642616D01*
X132206400Y-117642628D01*
X132200000Y-117702146D01*
X132200000Y-117702155D01*
X132200000Y-117850000D01*
X134700000Y-117850000D01*
X134700000Y-117702172D01*
X134699999Y-117702155D01*
X134699998Y-117702146D01*
X134699998Y-117702138D01*
X134693598Y-117642628D01*
X134693596Y-117642621D01*
X134693596Y-117642620D01*
X134643354Y-117507913D01*
X134643350Y-117507906D01*
X134564144Y-117402101D01*
X134557191Y-117392813D01*
X134557185Y-117392807D01*
X134499317Y-117349487D01*
X134442093Y-117306649D01*
X134442088Y-117306646D01*
X134442089Y-117306646D01*
X134307377Y-117256402D01*
X134307370Y-117256400D01*
X134247852Y-117250000D01*
X134247844Y-117250000D01*
X133642330Y-117250000D01*
X133607389Y-117244975D01*
X133592390Y-117240570D01*
X133533644Y-117202827D01*
X133532457Y-117201458D01*
X133504981Y-117146597D01*
X133504543Y-117144587D01*
X133503335Y-117139033D01*
X133500499Y-117112677D01*
X133500499Y-116155143D01*
X133500499Y-116155136D01*
X133500290Y-116153334D01*
X133498409Y-116137118D01*
X133498079Y-116131391D01*
X133497954Y-116130630D01*
X133496406Y-116127340D01*
X133452206Y-116027235D01*
X133372765Y-115947794D01*
X133372764Y-115947793D01*
X133309847Y-115920013D01*
X133269993Y-115902415D01*
X133244868Y-115899500D01*
X133244865Y-115899500D01*
X132355143Y-115899500D01*
X132355127Y-115899501D01*
X132355113Y-115899502D01*
X132337255Y-115901573D01*
X132330012Y-115902413D01*
X132330011Y-115902413D01*
X132330005Y-115902414D01*
X132329559Y-115902547D01*
X132327303Y-115903609D01*
X132227236Y-115947792D01*
X132147793Y-116027234D01*
X132102414Y-116130005D01*
X132101844Y-116132710D01*
X132101589Y-116137124D01*
X132099500Y-116155127D01*
X131290499Y-116155127D01*
X131289962Y-116150500D01*
X131288411Y-116137119D01*
X131288080Y-116131398D01*
X131287954Y-116130629D01*
X131286393Y-116127309D01*
X131242206Y-116027235D01*
X131162764Y-115947793D01*
X131099847Y-115920013D01*
X131059993Y-115902415D01*
X131034868Y-115899500D01*
X131034865Y-115899500D01*
X130145143Y-115899500D01*
X130145127Y-115899501D01*
X130145113Y-115899502D01*
X130127255Y-115901573D01*
X130120012Y-115902413D01*
X130120011Y-115902413D01*
X130120005Y-115902414D01*
X130119559Y-115902547D01*
X130117303Y-115903609D01*
X130017236Y-115947792D01*
X130017233Y-115947794D01*
X130017228Y-115947800D01*
X130017227Y-115947799D01*
X129978788Y-115986240D01*
X129950533Y-116007392D01*
X129940607Y-116012812D01*
X129872334Y-116027664D01*
X129806870Y-116003247D01*
X129764999Y-115947316D01*
X129762313Y-115940112D01*
X129754500Y-115896792D01*
X129754500Y-112893707D01*
X131149500Y-112893707D01*
X131149500Y-113106291D01*
X131181291Y-113307009D01*
X131182735Y-113316127D01*
X131182753Y-113316239D01*
X131182754Y-113316242D01*
X131182755Y-113316246D01*
X131238981Y-113489293D01*
X131248442Y-113518410D01*
X131248443Y-113518412D01*
X131330645Y-113679744D01*
X131344951Y-113707820D01*
X131469890Y-113879786D01*
X131469892Y-113879788D01*
X131620216Y-114030112D01*
X131792183Y-114155052D01*
X131792471Y-114155197D01*
X131981588Y-114251557D01*
X132183757Y-114317246D01*
X132393713Y-114350500D01*
X132393714Y-114350500D01*
X132606286Y-114350500D01*
X132606287Y-114350500D01*
X132816243Y-114317246D01*
X133018412Y-114251557D01*
X133207816Y-114155051D01*
X133234223Y-114135865D01*
X133242458Y-114129883D01*
X133280555Y-114102204D01*
X133379786Y-114030109D01*
X133379788Y-114030106D01*
X133379792Y-114030104D01*
X133379794Y-114030101D01*
X133379845Y-114030065D01*
X133380592Y-114029303D01*
X133529290Y-113880605D01*
X133530065Y-113879845D01*
X133530124Y-113879765D01*
X133655048Y-113707820D01*
X133655047Y-113707820D01*
X133655051Y-113707816D01*
X133655053Y-113707810D01*
X133675445Y-113679744D01*
X133683730Y-113651529D01*
X133751557Y-113518412D01*
X133817246Y-113316243D01*
X133850500Y-113106287D01*
X133850500Y-112893713D01*
X133817246Y-112683757D01*
X133751557Y-112481588D01*
X133751555Y-112481585D01*
X133751555Y-112481583D01*
X133655228Y-112292532D01*
X133655052Y-112292183D01*
X133530112Y-112120216D01*
X133379788Y-111969892D01*
X133379786Y-111969890D01*
X133207820Y-111844951D01*
X133106011Y-111793077D01*
X133035911Y-111757359D01*
X133030571Y-111753479D01*
X133006254Y-111743406D01*
X132999734Y-111742374D01*
X132906770Y-111712168D01*
X132825074Y-111685623D01*
X132820552Y-111683770D01*
X132811362Y-111681600D01*
X132806599Y-111681226D01*
X132730601Y-111669189D01*
X132654957Y-111657208D01*
X132635489Y-111654124D01*
X132606290Y-111649500D01*
X132606287Y-111649500D01*
X132393713Y-111649500D01*
X132393709Y-111649500D01*
X132354776Y-111655666D01*
X132345042Y-111657208D01*
X132317054Y-111661641D01*
X132183763Y-111682752D01*
X132183760Y-111682753D01*
X131988855Y-111746082D01*
X131981582Y-111748445D01*
X131792182Y-111844949D01*
X131792179Y-111844950D01*
X131792179Y-111844951D01*
X131781907Y-111852414D01*
X131620210Y-111969892D01*
X131469892Y-112120210D01*
X131344949Y-112292182D01*
X131248445Y-112481580D01*
X131182752Y-112683759D01*
X131149500Y-112893707D01*
X129754500Y-112893707D01*
X129754500Y-112006642D01*
X129754579Y-112002218D01*
X129754737Y-111997792D01*
X129754974Y-111993369D01*
X129756653Y-111969895D01*
X129759235Y-111933787D01*
X129771318Y-111764835D01*
X129772265Y-111756039D01*
X129772314Y-111755703D01*
X129773524Y-111747288D01*
X129775090Y-111738607D01*
X129784689Y-111694485D01*
X129822379Y-111521222D01*
X129824565Y-111512657D01*
X129827050Y-111504192D01*
X129829839Y-111495807D01*
X129907603Y-111287316D01*
X129910967Y-111279193D01*
X129914658Y-111271110D01*
X129918592Y-111263252D01*
X130025228Y-111067963D01*
X130029729Y-111060376D01*
X130034521Y-111052920D01*
X130039562Y-111045662D01*
X130172883Y-110867566D01*
X130178424Y-110860691D01*
X130184208Y-110854016D01*
X130190225Y-110847552D01*
X130347552Y-110690225D01*
X130354016Y-110684208D01*
X130360691Y-110678424D01*
X130367566Y-110672883D01*
X130545671Y-110539555D01*
X130552920Y-110534521D01*
X130560376Y-110529729D01*
X130567963Y-110525228D01*
X130763252Y-110418592D01*
X130771110Y-110414658D01*
X130779193Y-110410967D01*
X130787316Y-110407603D01*
X130995807Y-110329839D01*
X131004181Y-110327053D01*
X131012657Y-110324564D01*
X131021215Y-110322380D01*
X131238607Y-110275090D01*
X131247294Y-110273523D01*
X131247929Y-110273431D01*
X131256050Y-110272263D01*
X131264820Y-110271319D01*
X131493375Y-110254973D01*
X131497792Y-110254737D01*
X131498530Y-110254710D01*
X131502219Y-110254579D01*
X131506643Y-110254500D01*
X146009640Y-110254500D01*
X146044567Y-110259521D01*
G37*
%TD.AperFunction*%
%TA.AperFunction,Conductor*%
G36*
X161089593Y-116535521D02*
G01*
X161114837Y-116542934D01*
X161167583Y-116574230D01*
X163486478Y-118893125D01*
X164044147Y-119450794D01*
X164594065Y-120000711D01*
X164615214Y-120028961D01*
X164620635Y-120038888D01*
X164635489Y-120107161D01*
X164611075Y-120172626D01*
X164555143Y-120214499D01*
X164555139Y-120214501D01*
X164547951Y-120217182D01*
X164504617Y-120225000D01*
X164500023Y-120225000D01*
X164499999Y-120225002D01*
X164397304Y-120235493D01*
X164397302Y-120235494D01*
X164230887Y-120290638D01*
X164230879Y-120290641D01*
X164230877Y-120290642D01*
X164230875Y-120290643D01*
X164177288Y-120323696D01*
X164081652Y-120382685D01*
X163957685Y-120506652D01*
X163957684Y-120506654D01*
X163871108Y-120647016D01*
X163865641Y-120655879D01*
X163865638Y-120655888D01*
X163810494Y-120822299D01*
X163810493Y-120822304D01*
X163800000Y-120925007D01*
X163800000Y-120925013D01*
X163800000Y-121300000D01*
X164808170Y-121300000D01*
X164843106Y-121305023D01*
X164858104Y-121309427D01*
X164916855Y-121347172D01*
X164918042Y-121348541D01*
X164945518Y-121403402D01*
X164947163Y-121410960D01*
X164950000Y-121437331D01*
X164950000Y-121550000D01*
X165058170Y-121550000D01*
X165093106Y-121555023D01*
X165108104Y-121559427D01*
X165166855Y-121597172D01*
X165168042Y-121598541D01*
X165195518Y-121653402D01*
X165197163Y-121660960D01*
X165200000Y-121687331D01*
X165200000Y-124374999D01*
X165699968Y-124374999D01*
X165699972Y-124374999D01*
X165699976Y-124374998D01*
X165700508Y-124374969D01*
X165700975Y-124374999D01*
X165703403Y-124374999D01*
X165703403Y-124375155D01*
X165730045Y-124376866D01*
X165741927Y-124379075D01*
X165744899Y-124379628D01*
X165807211Y-124411236D01*
X165841900Y-124469046D01*
X165845167Y-124481078D01*
X165849500Y-124513571D01*
X165849500Y-124535131D01*
X165844475Y-124570074D01*
X165840327Y-124584197D01*
X165802548Y-124642973D01*
X165741512Y-124671604D01*
X165728998Y-124673666D01*
X165702556Y-124674880D01*
X165702556Y-124675000D01*
X165701867Y-124675000D01*
X165701864Y-124675079D01*
X165700002Y-124675001D01*
X165699998Y-124675001D01*
X165699974Y-124675000D01*
X165699967Y-124675000D01*
X165200000Y-124675000D01*
X165200000Y-129624999D01*
X165399960Y-129624999D01*
X165399972Y-129624999D01*
X165399986Y-129624998D01*
X165502697Y-129614505D01*
X165666100Y-129560357D01*
X165686478Y-129555471D01*
X165704443Y-129552743D01*
X165773678Y-129562138D01*
X165826840Y-129607469D01*
X165829278Y-129611197D01*
X165849496Y-129678078D01*
X165849500Y-129679065D01*
X165849500Y-130977782D01*
X165844476Y-131012719D01*
X165837064Y-131037960D01*
X165805769Y-131090704D01*
X161847488Y-135048984D01*
X161819238Y-135070133D01*
X161809311Y-135075554D01*
X161741038Y-135090408D01*
X161675573Y-135065994D01*
X161633700Y-135010062D01*
X161632164Y-135005943D01*
X161625337Y-134952681D01*
X161624842Y-134952652D01*
X161624996Y-134950022D01*
X161624996Y-134950017D01*
X161624999Y-134949990D01*
X161625000Y-134949973D01*
X161625000Y-134900000D01*
X160541830Y-134900000D01*
X160536382Y-134898400D01*
X160530812Y-134899510D01*
X160506889Y-134894975D01*
X160491890Y-134890570D01*
X160476885Y-134880930D01*
X160474791Y-134880315D01*
X160473362Y-134878666D01*
X160433144Y-134852827D01*
X160431957Y-134851458D01*
X160404477Y-134796583D01*
X160402832Y-134789021D01*
X160400000Y-134762668D01*
X160400000Y-134541829D01*
X160405023Y-134506893D01*
X160409427Y-134491895D01*
X160417293Y-134479650D01*
X160420633Y-134465501D01*
X160435777Y-134450879D01*
X160447172Y-134433144D01*
X160448541Y-134431957D01*
X160462742Y-134424845D01*
X160470898Y-134416972D01*
X160483467Y-134414467D01*
X160503420Y-134404477D01*
X160510979Y-134402833D01*
X160537332Y-134400000D01*
X161624999Y-134400000D01*
X161624999Y-134350032D01*
X161624999Y-134350028D01*
X161624998Y-134350013D01*
X161614505Y-134247302D01*
X161559358Y-134080880D01*
X161559356Y-134080875D01*
X161467315Y-133931654D01*
X161343345Y-133807684D01*
X161343344Y-133807683D01*
X161258947Y-133755626D01*
X161212223Y-133703678D01*
X161201002Y-133634715D01*
X161228845Y-133570633D01*
X161269797Y-133538584D01*
X161278894Y-133534159D01*
X161362348Y-133479983D01*
X161364113Y-133478500D01*
X161365187Y-133477594D01*
X161365200Y-133477583D01*
X161365202Y-133477579D01*
X161365205Y-133477578D01*
X161441051Y-133392381D01*
X161441055Y-133392377D01*
X161479711Y-133334175D01*
X161529234Y-133229922D01*
X161533864Y-133214990D01*
X161547014Y-133158641D01*
X161552563Y-133123781D01*
X161557559Y-133066133D01*
X161619829Y-128924995D01*
X163800001Y-128924995D01*
X163810493Y-129027694D01*
X163810493Y-129027695D01*
X163810494Y-129027697D01*
X163823724Y-129067622D01*
X163858912Y-129173814D01*
X163865641Y-129194119D01*
X163865643Y-129194124D01*
X163957684Y-129343345D01*
X164081654Y-129467315D01*
X164230875Y-129559356D01*
X164230880Y-129559358D01*
X164397299Y-129614504D01*
X164397300Y-129614504D01*
X164397302Y-129614505D01*
X164397309Y-129614506D01*
X164500019Y-129624999D01*
X164699999Y-129624999D01*
X164700000Y-129624998D01*
X164700000Y-128550000D01*
X163800001Y-128550000D01*
X163800001Y-128924995D01*
X161619829Y-128924995D01*
X161622576Y-128742318D01*
X161643266Y-128675583D01*
X161696752Y-128630627D01*
X161759164Y-128620825D01*
X161800019Y-128624999D01*
X162124999Y-128624999D01*
X162125000Y-128624998D01*
X162125000Y-127554329D01*
X162126599Y-127548881D01*
X162125490Y-127543311D01*
X162130023Y-127519393D01*
X162134427Y-127504395D01*
X162144069Y-127489386D01*
X162144685Y-127487290D01*
X162146334Y-127485860D01*
X162172172Y-127445644D01*
X162173541Y-127444457D01*
X162228420Y-127416977D01*
X162235979Y-127415333D01*
X162262332Y-127412500D01*
X162483170Y-127412500D01*
X162518106Y-127417523D01*
X162533104Y-127421927D01*
X162545348Y-127429793D01*
X162559498Y-127433133D01*
X162574119Y-127448277D01*
X162591855Y-127459672D01*
X162593042Y-127461041D01*
X162600155Y-127475245D01*
X162608028Y-127483399D01*
X162610530Y-127495959D01*
X162620518Y-127515902D01*
X162622163Y-127523460D01*
X162625000Y-127549831D01*
X162625000Y-128624999D01*
X162949960Y-128624999D01*
X162949972Y-128624999D01*
X162949986Y-128624998D01*
X163052697Y-128614505D01*
X163219119Y-128559358D01*
X163219124Y-128559356D01*
X163368345Y-128467315D01*
X163424704Y-128410957D01*
X163450952Y-128384709D01*
X163492313Y-128343348D01*
X163492316Y-128343344D01*
X163584354Y-128194128D01*
X163584354Y-128194127D01*
X163584353Y-128194127D01*
X163584356Y-128194124D01*
X163584359Y-128194117D01*
X163605057Y-128131654D01*
X163620809Y-128100079D01*
X163623651Y-128095973D01*
X163628710Y-128088665D01*
X163683051Y-128044750D01*
X163752508Y-128037185D01*
X163756008Y-128037811D01*
X163774650Y-128045709D01*
X163775198Y-128044012D01*
X163793760Y-128050000D01*
X163793761Y-128050000D01*
X164700000Y-128050000D01*
X164700000Y-124675000D01*
X164200037Y-124675000D01*
X164200028Y-124675000D01*
X164200012Y-124675001D01*
X164200002Y-124675001D01*
X164200002Y-124675002D01*
X164097304Y-124685493D01*
X164097302Y-124685494D01*
X163930887Y-124740638D01*
X163930879Y-124740641D01*
X163930877Y-124740642D01*
X163930875Y-124740643D01*
X163837921Y-124797978D01*
X163781652Y-124832685D01*
X163657685Y-124956652D01*
X163648603Y-124971377D01*
X163565951Y-125105377D01*
X163565641Y-125105879D01*
X163565638Y-125105888D01*
X163510494Y-125272299D01*
X163510494Y-125272300D01*
X163510494Y-125272302D01*
X163510493Y-125272309D01*
X163508812Y-125288769D01*
X163508602Y-125290820D01*
X163500055Y-125325057D01*
X163496829Y-125332967D01*
X163496455Y-125333883D01*
X163452903Y-125388519D01*
X163386728Y-125410936D01*
X163318937Y-125394017D01*
X163274944Y-125350217D01*
X163269962Y-125341802D01*
X163269961Y-125341802D01*
X163268803Y-125339846D01*
X163265032Y-125332990D01*
X163259520Y-125322174D01*
X163248137Y-125288769D01*
X163245044Y-125272300D01*
X163244027Y-125266881D01*
X163246921Y-125209060D01*
X163248179Y-125204776D01*
X163256677Y-125183404D01*
X163258158Y-125180500D01*
X163265182Y-125166715D01*
X163266538Y-125158157D01*
X163269045Y-125142327D01*
X163280500Y-125070003D01*
X163280499Y-124779998D01*
X163280499Y-124779992D01*
X163280499Y-124779986D01*
X163266710Y-124692929D01*
X163266325Y-124688047D01*
X163265275Y-124683671D01*
X163265184Y-124683291D01*
X163265183Y-124683289D01*
X163265183Y-124683288D01*
X163265182Y-124683286D01*
X163265182Y-124683285D01*
X163259520Y-124672174D01*
X163248137Y-124638769D01*
X163245247Y-124623381D01*
X163244027Y-124616881D01*
X163246923Y-124559052D01*
X163248181Y-124554769D01*
X163256673Y-124533414D01*
X163259729Y-124527417D01*
X163263330Y-124520350D01*
X163265182Y-124516715D01*
X163280500Y-124420003D01*
X163280499Y-124259893D01*
X163281961Y-124254913D01*
X163280908Y-124249832D01*
X163285522Y-124224959D01*
X163287534Y-124218106D01*
X163292932Y-124199721D01*
X163324226Y-124146977D01*
X163355313Y-124115891D01*
X163355319Y-124115884D01*
X163396555Y-124046156D01*
X163418650Y-124018657D01*
X163428804Y-124009176D01*
X163491233Y-123977813D01*
X163560708Y-123985180D01*
X163563435Y-123986305D01*
X163609074Y-124018848D01*
X163610871Y-124020883D01*
X163623461Y-124037862D01*
X163654783Y-124088642D01*
X163656444Y-124091626D01*
X163657682Y-124093342D01*
X163657683Y-124093344D01*
X163781654Y-124217315D01*
X163930875Y-124309356D01*
X163930880Y-124309358D01*
X164097299Y-124364504D01*
X164097300Y-124364504D01*
X164097302Y-124364505D01*
X164097309Y-124364506D01*
X164200019Y-124374999D01*
X164699999Y-124374999D01*
X164700000Y-124374998D01*
X164700000Y-121800000D01*
X163786654Y-121800000D01*
X163771565Y-121803851D01*
X163771303Y-121802824D01*
X163719943Y-121813993D01*
X163654494Y-121789582D01*
X163651667Y-121787466D01*
X163616044Y-121745569D01*
X163615292Y-121744129D01*
X163607516Y-121725763D01*
X163584393Y-121655986D01*
X163584356Y-121655875D01*
X163584354Y-121655871D01*
X163492317Y-121506657D01*
X163492314Y-121506653D01*
X163368346Y-121382685D01*
X163368345Y-121382684D01*
X163219124Y-121290643D01*
X163219119Y-121290641D01*
X163185196Y-121279400D01*
X163052699Y-121235494D01*
X163052694Y-121235493D01*
X162949991Y-121225000D01*
X162949986Y-121225000D01*
X162625000Y-121225000D01*
X162625000Y-122295670D01*
X162619975Y-122330614D01*
X162615570Y-122345612D01*
X162577827Y-122404355D01*
X162576458Y-122405542D01*
X162521597Y-122433018D01*
X162514039Y-122434663D01*
X162487668Y-122437500D01*
X162375000Y-122437500D01*
X162375000Y-122545670D01*
X162369975Y-122580614D01*
X162365570Y-122595612D01*
X162327827Y-122654355D01*
X162326458Y-122655542D01*
X162271597Y-122683018D01*
X162264039Y-122684663D01*
X162237668Y-122687500D01*
X161100001Y-122687500D01*
X161100001Y-122949995D01*
X161110494Y-123052699D01*
X161145650Y-123158794D01*
X161151871Y-123193532D01*
X161152848Y-123221922D01*
X161146349Y-123263380D01*
X161146995Y-123263568D01*
X161107357Y-123399997D01*
X161107358Y-123399998D01*
X161107360Y-123400000D01*
X162148170Y-123400000D01*
X162183106Y-123405023D01*
X162198104Y-123409427D01*
X162256855Y-123447172D01*
X162258042Y-123448541D01*
X162285518Y-123503402D01*
X162287163Y-123510960D01*
X162290000Y-123537331D01*
X162290000Y-123607670D01*
X162284975Y-123642614D01*
X162280570Y-123657612D01*
X162242827Y-123716355D01*
X162241458Y-123717542D01*
X162186597Y-123745018D01*
X162179039Y-123746663D01*
X162152668Y-123749500D01*
X161656304Y-123749500D01*
X161647149Y-123754498D01*
X161640198Y-123755803D01*
X161614743Y-123759834D01*
X161592925Y-123763290D01*
X161588042Y-123763674D01*
X161583285Y-123764816D01*
X161503023Y-123805713D01*
X161503021Y-123805714D01*
X161474988Y-123819997D01*
X161457914Y-123827145D01*
X161453898Y-123828483D01*
X161446293Y-123832570D01*
X161417651Y-123842789D01*
X161375982Y-123850000D01*
X161107360Y-123850000D01*
X161107358Y-123850001D01*
X161107357Y-123850001D01*
X161145904Y-123982674D01*
X161145908Y-123982687D01*
X161209052Y-124089456D01*
X161224681Y-124115884D01*
X161224689Y-124115896D01*
X161250572Y-124141777D01*
X161254398Y-124148785D01*
X161271722Y-124170028D01*
X161284331Y-124193120D01*
X161299500Y-124252546D01*
X161299500Y-124420006D01*
X161300075Y-124423633D01*
X161302429Y-124438496D01*
X161302933Y-124473782D01*
X161301155Y-124487543D01*
X161273042Y-124551508D01*
X161218790Y-124587480D01*
X161218553Y-124587691D01*
X161218448Y-124587707D01*
X161214811Y-124590119D01*
X161202374Y-124593965D01*
X161165740Y-124599500D01*
X158658290Y-124599500D01*
X158623349Y-124594475D01*
X158608350Y-124590070D01*
X158549580Y-124552300D01*
X158539107Y-124540214D01*
X158527374Y-124523073D01*
X158526988Y-124523319D01*
X158524385Y-124519214D01*
X158524382Y-124519208D01*
X158524379Y-124519204D01*
X158524377Y-124519201D01*
X158524368Y-124519187D01*
X158524055Y-124518765D01*
X158464432Y-124437978D01*
X158447730Y-124406892D01*
X158446121Y-124402487D01*
X158442365Y-124392206D01*
X158437853Y-124322487D01*
X158440033Y-124312781D01*
X158461244Y-124266339D01*
X158524381Y-124180794D01*
X158538145Y-124141456D01*
X158547095Y-124115883D01*
X158547095Y-124115880D01*
X158555208Y-124092698D01*
X158567741Y-124056881D01*
X158568115Y-124054681D01*
X158568283Y-124051094D01*
X158570499Y-124027468D01*
X158570499Y-124027467D01*
X158570500Y-124027457D01*
X158570499Y-123652544D01*
X158570498Y-123652538D01*
X158569317Y-123639934D01*
X158567741Y-123623121D01*
X158567739Y-123623115D01*
X158536319Y-123533321D01*
X158536205Y-123531101D01*
X158508025Y-123453941D01*
X158500500Y-123411402D01*
X158500500Y-121925007D01*
X161100000Y-121925007D01*
X161100000Y-121925013D01*
X161100000Y-122187500D01*
X162125000Y-122187500D01*
X162125000Y-121225000D01*
X161800037Y-121225000D01*
X161800028Y-121225000D01*
X161800012Y-121225001D01*
X161800002Y-121225001D01*
X161800002Y-121225002D01*
X161697304Y-121235493D01*
X161697302Y-121235494D01*
X161530887Y-121290638D01*
X161530879Y-121290641D01*
X161530877Y-121290642D01*
X161530875Y-121290643D01*
X161478903Y-121322700D01*
X161381652Y-121382685D01*
X161257685Y-121506652D01*
X161235377Y-121542819D01*
X161165646Y-121655871D01*
X161165641Y-121655879D01*
X161165638Y-121655888D01*
X161110494Y-121822299D01*
X161110493Y-121822304D01*
X161100000Y-121925007D01*
X158500500Y-121925007D01*
X158500500Y-120097527D01*
X158500500Y-120097525D01*
X158462984Y-119957515D01*
X158462982Y-119957512D01*
X158462983Y-119957512D01*
X158458645Y-119949999D01*
X158458644Y-119949998D01*
X158390513Y-119831991D01*
X158390508Y-119831984D01*
X158390503Y-119831979D01*
X158362326Y-119803802D01*
X158288015Y-119729491D01*
X157399426Y-118840901D01*
X157378274Y-118812645D01*
X157365667Y-118789556D01*
X157350500Y-118730131D01*
X157350500Y-118497216D01*
X157355522Y-118462283D01*
X157362934Y-118437038D01*
X157394228Y-118384296D01*
X159199101Y-116579423D01*
X159227351Y-116558275D01*
X159250443Y-116545667D01*
X159309868Y-116530500D01*
X161054661Y-116530500D01*
X161089593Y-116535521D01*
G37*
%TD.AperFunction*%
%TA.AperFunction,Conductor*%
G36*
X138000409Y-121715523D02*
G01*
X138014188Y-121719569D01*
X138072966Y-121757344D01*
X138101776Y-121819469D01*
X138103788Y-121832391D01*
X138104380Y-121866247D01*
X138101970Y-121886327D01*
X138099500Y-121906898D01*
X138099500Y-122893102D01*
X138102578Y-122918735D01*
X138104206Y-122932297D01*
X138109238Y-122974198D01*
X138109603Y-122980313D01*
X138109729Y-122980616D01*
X138110520Y-122982572D01*
X138122280Y-123012390D01*
X138122281Y-123012395D01*
X138122282Y-123012395D01*
X138122282Y-123012396D01*
X138165639Y-123122343D01*
X138165640Y-123122345D01*
X138257073Y-123242917D01*
X138257077Y-123242922D01*
X138293744Y-123270727D01*
X138318545Y-123295838D01*
X138326794Y-123307001D01*
X138350805Y-123372615D01*
X138335530Y-123440795D01*
X138335526Y-123440801D01*
X138332760Y-123445792D01*
X138289400Y-123491223D01*
X138181656Y-123557681D01*
X138057685Y-123681652D01*
X137965640Y-123830880D01*
X137910494Y-123997299D01*
X137910493Y-123997304D01*
X137900000Y-124100007D01*
X137900000Y-124100012D01*
X137900000Y-124100013D01*
X137900000Y-124350000D01*
X138858170Y-124350000D01*
X138893106Y-124355023D01*
X138908104Y-124359427D01*
X138966855Y-124397172D01*
X138968042Y-124398541D01*
X138995518Y-124453402D01*
X138997163Y-124460960D01*
X139000000Y-124487331D01*
X139000000Y-124600000D01*
X139108170Y-124600000D01*
X139143106Y-124605023D01*
X139158104Y-124609427D01*
X139216855Y-124647172D01*
X139218042Y-124648541D01*
X139245518Y-124703402D01*
X139247163Y-124710960D01*
X139250000Y-124737331D01*
X139250000Y-125799999D01*
X139399960Y-125799999D01*
X139399972Y-125799999D01*
X139399986Y-125799998D01*
X139502697Y-125789505D01*
X139669119Y-125734358D01*
X139669124Y-125734356D01*
X139818342Y-125642317D01*
X139902519Y-125558139D01*
X139930766Y-125536994D01*
X139944490Y-125529500D01*
X140012749Y-125514649D01*
X140019026Y-125515098D01*
X140069944Y-125530131D01*
X140070221Y-125530284D01*
X140092980Y-125542802D01*
X140098132Y-125542856D01*
X140107443Y-125546107D01*
X140159019Y-125566446D01*
X140218436Y-125589877D01*
X140306898Y-125600500D01*
X140306903Y-125600500D01*
X141093097Y-125600500D01*
X141093102Y-125600500D01*
X141181564Y-125589877D01*
X141322342Y-125534361D01*
X141442922Y-125442922D01*
X141495734Y-125373277D01*
X141520842Y-125348479D01*
X141539297Y-125334843D01*
X141591379Y-125312468D01*
X141592622Y-125312248D01*
X141594608Y-125311897D01*
X141616214Y-125310000D01*
X142158170Y-125310000D01*
X142163617Y-125311599D01*
X142169188Y-125310490D01*
X142193106Y-125315023D01*
X142208104Y-125319427D01*
X142223112Y-125329069D01*
X142225209Y-125329685D01*
X142226638Y-125331334D01*
X142266855Y-125357172D01*
X142268042Y-125358541D01*
X142295518Y-125413402D01*
X142297163Y-125420960D01*
X142300000Y-125447331D01*
X142300000Y-125668170D01*
X142294975Y-125703114D01*
X142290570Y-125718112D01*
X142282704Y-125730354D01*
X142279366Y-125744498D01*
X142264223Y-125759117D01*
X142252827Y-125776855D01*
X142251458Y-125778042D01*
X142237253Y-125785155D01*
X142229100Y-125793028D01*
X142216539Y-125795530D01*
X142196597Y-125805518D01*
X142189039Y-125807163D01*
X142162668Y-125810000D01*
X141495496Y-125810000D01*
X141537968Y-125956195D01*
X141611187Y-126080003D01*
X141620278Y-126095374D01*
X141620285Y-126095383D01*
X141734616Y-126209714D01*
X141734625Y-126209721D01*
X141873803Y-126292030D01*
X141888908Y-126296418D01*
X141906218Y-126301448D01*
X141938360Y-126316015D01*
X141943509Y-126319303D01*
X141989417Y-126371974D01*
X141999561Y-126441103D01*
X141970720Y-126504743D01*
X141912067Y-126542683D01*
X141906382Y-126544371D01*
X141871087Y-126549500D01*
X141458691Y-126549500D01*
X141423755Y-126544477D01*
X141396946Y-126536605D01*
X141358249Y-126517398D01*
X141255635Y-126441666D01*
X141252103Y-126438626D01*
X141248155Y-126436145D01*
X141122831Y-126392292D01*
X141122827Y-126392291D01*
X141122822Y-126392290D01*
X141122785Y-126392285D01*
X141093074Y-126389500D01*
X141093070Y-126389500D01*
X141093066Y-126389500D01*
X140706934Y-126389500D01*
X140706930Y-126389500D01*
X140691298Y-126390965D01*
X140682950Y-126391748D01*
X140679381Y-126391914D01*
X140677180Y-126392288D01*
X140671395Y-126394313D01*
X140636767Y-126401109D01*
X140620473Y-126401941D01*
X140553609Y-126386318D01*
X140540925Y-126379222D01*
X140513785Y-126358687D01*
X140475383Y-126320285D01*
X140475371Y-126320276D01*
X140354235Y-126248637D01*
X140339068Y-126239667D01*
X140336839Y-126238266D01*
X140336190Y-126237964D01*
X140190002Y-126195492D01*
X140190001Y-126195492D01*
X140190000Y-126195493D01*
X140190000Y-127373566D01*
X140194833Y-127382418D01*
X140210000Y-127441843D01*
X140210000Y-129458170D01*
X140204975Y-129493114D01*
X140200570Y-129508112D01*
X140162827Y-129566855D01*
X140161458Y-129568042D01*
X140106597Y-129595518D01*
X140099039Y-129597163D01*
X140072668Y-129600000D01*
X139960000Y-129600000D01*
X139960000Y-129708170D01*
X139954975Y-129743114D01*
X139950570Y-129758112D01*
X139912827Y-129816855D01*
X139911458Y-129818042D01*
X139856597Y-129845518D01*
X139849039Y-129847163D01*
X139822668Y-129850000D01*
X139181209Y-129850000D01*
X139182852Y-129870905D01*
X139182854Y-129870912D01*
X139227966Y-130026190D01*
X139227968Y-130026195D01*
X139301481Y-130150500D01*
X139310278Y-130165374D01*
X139310285Y-130165383D01*
X139424616Y-130279714D01*
X139424625Y-130279721D01*
X139445210Y-130291895D01*
X139537681Y-130346582D01*
X139563803Y-130362030D01*
X139617089Y-130377511D01*
X139719086Y-130407144D01*
X139719087Y-130407144D01*
X139719090Y-130407145D01*
X139755362Y-130409999D01*
X139794283Y-130409999D01*
X139829213Y-130415020D01*
X139840067Y-130418207D01*
X139898846Y-130455981D01*
X139927872Y-130519536D01*
X139917930Y-130588693D01*
X139914744Y-130595670D01*
X139889629Y-130631843D01*
X137659490Y-132861985D01*
X137475288Y-133046186D01*
X137447032Y-133067338D01*
X137433311Y-133074830D01*
X137365051Y-133089682D01*
X137363245Y-133089553D01*
X137305044Y-133070185D01*
X137298529Y-133065998D01*
X137277893Y-133049368D01*
X135899426Y-131670901D01*
X135878274Y-131642645D01*
X135865667Y-131619556D01*
X135850500Y-131560131D01*
X135850500Y-129349999D01*
X139181209Y-129349999D01*
X139181210Y-129350000D01*
X139710000Y-129350000D01*
X139710000Y-128550000D01*
X139181209Y-128550000D01*
X139182852Y-128570905D01*
X139182854Y-128570912D01*
X139227966Y-128726190D01*
X139227968Y-128726195D01*
X139291105Y-128832954D01*
X139293194Y-128836629D01*
X139323257Y-128891687D01*
X139338109Y-128959952D01*
X139337980Y-128961757D01*
X139318610Y-129019958D01*
X139298341Y-129051495D01*
X139298172Y-129052954D01*
X139290762Y-129067622D01*
X139227972Y-129173794D01*
X139227967Y-129173805D01*
X139227963Y-129173814D01*
X139182857Y-129329070D01*
X139182855Y-129329078D01*
X139182855Y-129329081D01*
X139182854Y-129329087D01*
X139181209Y-129349999D01*
X135850500Y-129349999D01*
X135850500Y-127250000D01*
X139161209Y-127250000D01*
X139162852Y-127270905D01*
X139162854Y-127270912D01*
X139207966Y-127426190D01*
X139207968Y-127426195D01*
X139290276Y-127565371D01*
X139295061Y-127571540D01*
X139294200Y-127572207D01*
X139306718Y-127588918D01*
X139314210Y-127602639D01*
X139329061Y-127670908D01*
X139328638Y-127676824D01*
X139313279Y-127728327D01*
X139302307Y-127748022D01*
X139300714Y-127750796D01*
X139227967Y-127873805D01*
X139227963Y-127873814D01*
X139182857Y-128029070D01*
X139182855Y-128029078D01*
X139182855Y-128029081D01*
X139182854Y-128029087D01*
X139181209Y-128049999D01*
X139181210Y-128050000D01*
X139710000Y-128050000D01*
X139710000Y-127926433D01*
X139705166Y-127917581D01*
X139690000Y-127858157D01*
X139690000Y-127250000D01*
X139161210Y-127250000D01*
X139161209Y-127250000D01*
X135850500Y-127250000D01*
X135850500Y-126749999D01*
X139161209Y-126749999D01*
X139161210Y-126750000D01*
X139690000Y-126750000D01*
X139690000Y-126195494D01*
X139689999Y-126195493D01*
X139689995Y-126195492D01*
X139543808Y-126237964D01*
X139543156Y-126238268D01*
X139540924Y-126239671D01*
X139404627Y-126320276D01*
X139404615Y-126320285D01*
X139290285Y-126434615D01*
X139290276Y-126434627D01*
X139207969Y-126573801D01*
X139207967Y-126573805D01*
X139207963Y-126573814D01*
X139162857Y-126729070D01*
X139162855Y-126729078D01*
X139162855Y-126729081D01*
X139162854Y-126729087D01*
X139161209Y-126749999D01*
X135850500Y-126749999D01*
X135850500Y-125099995D01*
X137900001Y-125099995D01*
X137910493Y-125202694D01*
X137910493Y-125202695D01*
X137910494Y-125202697D01*
X137925717Y-125248636D01*
X137962135Y-125358541D01*
X137965641Y-125369119D01*
X137965643Y-125369124D01*
X138057684Y-125518345D01*
X138181654Y-125642315D01*
X138330875Y-125734356D01*
X138330880Y-125734358D01*
X138497299Y-125789504D01*
X138497300Y-125789504D01*
X138497302Y-125789505D01*
X138497309Y-125789506D01*
X138600019Y-125799999D01*
X138749999Y-125799999D01*
X138750000Y-125799998D01*
X138750000Y-124850000D01*
X137900001Y-124850000D01*
X137900001Y-125099995D01*
X135850500Y-125099995D01*
X135850500Y-122897215D01*
X135855522Y-122862282D01*
X135859584Y-122848449D01*
X135862934Y-122837037D01*
X135894228Y-122784295D01*
X136919100Y-121759423D01*
X136947350Y-121738275D01*
X136970442Y-121725667D01*
X137029867Y-121710500D01*
X137965473Y-121710500D01*
X138000409Y-121715523D01*
G37*
%TD.AperFunction*%
%TA.AperFunction,Conductor*%
G36*
X151263106Y-130205023D02*
G01*
X151278104Y-130209427D01*
X151336855Y-130247172D01*
X151338042Y-130248541D01*
X151356457Y-130285310D01*
X151361110Y-130291225D01*
X151362168Y-130296713D01*
X151365518Y-130303402D01*
X151367163Y-130310960D01*
X151366555Y-130319466D01*
X151370000Y-130337331D01*
X151370000Y-131004502D01*
X151372696Y-131006529D01*
X151388651Y-131004291D01*
X151402614Y-131004331D01*
X151469595Y-131024207D01*
X151515194Y-131077133D01*
X151518438Y-131084290D01*
X151529500Y-131135484D01*
X151529500Y-132870500D01*
X151509815Y-132937539D01*
X151457011Y-132983294D01*
X151405500Y-132994500D01*
X151080539Y-132994500D01*
X151014819Y-132975652D01*
X151001086Y-132967069D01*
X150398071Y-132590184D01*
X150390514Y-132586819D01*
X150269509Y-132532935D01*
X150269510Y-132532935D01*
X150269507Y-132532934D01*
X150269503Y-132532932D01*
X150269498Y-132532931D01*
X150203796Y-132514089D01*
X150203784Y-132514086D01*
X150064438Y-132494500D01*
X150064437Y-132494500D01*
X149441965Y-132494500D01*
X149374926Y-132474815D01*
X149329171Y-132422011D01*
X149319227Y-132352853D01*
X149348252Y-132289297D01*
X149354284Y-132282819D01*
X149666918Y-131970185D01*
X150621585Y-131015516D01*
X150649830Y-130994371D01*
X150665737Y-130985686D01*
X150729411Y-130970591D01*
X150740992Y-130970988D01*
X150771325Y-130975837D01*
X150870000Y-131004504D01*
X150870000Y-131004503D01*
X150870000Y-130341829D01*
X150875023Y-130306893D01*
X150879427Y-130291895D01*
X150899094Y-130261282D01*
X150910015Y-130240090D01*
X150914299Y-130237615D01*
X150917172Y-130233144D01*
X150918541Y-130231957D01*
X150960288Y-130211052D01*
X150970518Y-130205144D01*
X150972458Y-130204958D01*
X150973420Y-130204477D01*
X150980979Y-130202833D01*
X151007332Y-130200000D01*
X151228170Y-130200000D01*
X151263106Y-130205023D01*
G37*
%TD.AperFunction*%
%TA.AperFunction,Conductor*%
G36*
X149191957Y-129442869D02*
G01*
X149194402Y-129443587D01*
X149213904Y-129451158D01*
X149216375Y-129452366D01*
X149289364Y-129463000D01*
X149307670Y-129463000D01*
X149342606Y-129468023D01*
X149357604Y-129472427D01*
X149416355Y-129510172D01*
X149417542Y-129511541D01*
X149445018Y-129566402D01*
X149446663Y-129573960D01*
X149449500Y-129600331D01*
X149449500Y-129844205D01*
X149444476Y-129879142D01*
X149437064Y-129904383D01*
X149405769Y-129957127D01*
X148362323Y-131000573D01*
X148334072Y-131021722D01*
X148310984Y-131034330D01*
X148251554Y-131049500D01*
X147642790Y-131049500D01*
X147607855Y-131044477D01*
X147597001Y-131041290D01*
X147538223Y-131003516D01*
X147509198Y-130939960D01*
X147519141Y-130870803D01*
X147522331Y-130863820D01*
X147547437Y-130827660D01*
X147609714Y-130765383D01*
X147609721Y-130765374D01*
X147692031Y-130626195D01*
X147692033Y-130626190D01*
X147693344Y-130621680D01*
X147724988Y-130512757D01*
X147737144Y-130470918D01*
X147737145Y-130470912D01*
X147738790Y-130450000D01*
X147738789Y-130450000D01*
X147101830Y-130450000D01*
X147096382Y-130448400D01*
X147090812Y-130449510D01*
X147066889Y-130444975D01*
X147051890Y-130440570D01*
X147036885Y-130430930D01*
X147034791Y-130430315D01*
X147033362Y-130428666D01*
X146993144Y-130402827D01*
X146991957Y-130401458D01*
X146964477Y-130346583D01*
X146962832Y-130339021D01*
X146960000Y-130312668D01*
X146960000Y-130091829D01*
X146965023Y-130056893D01*
X146969427Y-130041895D01*
X146977293Y-130029650D01*
X146980633Y-130015501D01*
X146995777Y-130000879D01*
X147007172Y-129983144D01*
X147008541Y-129981957D01*
X147022742Y-129974845D01*
X147030898Y-129966972D01*
X147043467Y-129964467D01*
X147063420Y-129954477D01*
X147070979Y-129952833D01*
X147097332Y-129950000D01*
X147738790Y-129950000D01*
X147738790Y-129949999D01*
X147737145Y-129929092D01*
X147737145Y-129929089D01*
X147692032Y-129773806D01*
X147654640Y-129710581D01*
X147622796Y-129656735D01*
X147609337Y-129624113D01*
X147608519Y-129620888D01*
X147606382Y-129612465D01*
X147608973Y-129542647D01*
X147648901Y-129485310D01*
X147711323Y-129458910D01*
X147721745Y-129457619D01*
X147754867Y-129457973D01*
X147789364Y-129463000D01*
X147789370Y-129463000D01*
X148010630Y-129463000D01*
X148010636Y-129463000D01*
X148083625Y-129452366D01*
X148083628Y-129452364D01*
X148092828Y-129449522D01*
X148092985Y-129450032D01*
X148113107Y-129443540D01*
X148136133Y-129439609D01*
X148191957Y-129442869D01*
X148194402Y-129443587D01*
X148213904Y-129451158D01*
X148216375Y-129452366D01*
X148289364Y-129463000D01*
X148289370Y-129463000D01*
X148510630Y-129463000D01*
X148510636Y-129463000D01*
X148583625Y-129452366D01*
X148583628Y-129452364D01*
X148592828Y-129449522D01*
X148592985Y-129450032D01*
X148613107Y-129443540D01*
X148636133Y-129439609D01*
X148691957Y-129442869D01*
X148694402Y-129443587D01*
X148713904Y-129451158D01*
X148716375Y-129452366D01*
X148789364Y-129463000D01*
X148789370Y-129463000D01*
X149010630Y-129463000D01*
X149010636Y-129463000D01*
X149083625Y-129452366D01*
X149083628Y-129452364D01*
X149092828Y-129449522D01*
X149092985Y-129450032D01*
X149113107Y-129443540D01*
X149136133Y-129439609D01*
X149191957Y-129442869D01*
G37*
%TD.AperFunction*%
%TA.AperFunction,Conductor*%
G36*
X150691957Y-121117869D02*
G01*
X150694402Y-121118587D01*
X150713904Y-121126158D01*
X150716375Y-121127366D01*
X150789364Y-121138000D01*
X150789370Y-121138000D01*
X150995763Y-121138000D01*
X151013170Y-121139228D01*
X151028244Y-121141365D01*
X151039006Y-121142891D01*
X151102618Y-121171791D01*
X151140507Y-121230495D01*
X151144409Y-121243690D01*
X151149500Y-121278853D01*
X151149500Y-122199929D01*
X151151674Y-122208042D01*
X151166128Y-122261985D01*
X151175387Y-122296543D01*
X151180202Y-122314511D01*
X151188494Y-122328872D01*
X151188495Y-122328875D01*
X151239506Y-122417227D01*
X151239513Y-122417236D01*
X151695263Y-122872988D01*
X151695265Y-122872989D01*
X151695266Y-122872990D01*
X151696541Y-122873726D01*
X151697055Y-122874023D01*
X151724799Y-122895839D01*
X151737782Y-122909454D01*
X151768546Y-122965789D01*
X151771003Y-122975915D01*
X151774500Y-123005154D01*
X151774500Y-123123136D01*
X151776061Y-123133848D01*
X151778487Y-123150500D01*
X151778487Y-123150511D01*
X151785133Y-123196124D01*
X151787977Y-123205327D01*
X151787468Y-123205484D01*
X151793960Y-123225618D01*
X151797890Y-123248641D01*
X151794640Y-123304423D01*
X151793926Y-123306856D01*
X151786339Y-123326409D01*
X151785936Y-123327235D01*
X151785726Y-123327664D01*
X151785133Y-123328875D01*
X151778761Y-123372615D01*
X151774500Y-123401864D01*
X151774500Y-123401868D01*
X151774500Y-123623137D01*
X151778784Y-123652541D01*
X151778784Y-123652543D01*
X151778785Y-123652543D01*
X151778785Y-123652544D01*
X151785134Y-123696125D01*
X151785135Y-123696127D01*
X151787978Y-123705329D01*
X151787468Y-123705486D01*
X151793960Y-123725618D01*
X151797890Y-123748641D01*
X151794629Y-123804463D01*
X151793915Y-123806893D01*
X151786347Y-123826391D01*
X151785136Y-123828867D01*
X151785132Y-123828881D01*
X151784843Y-123830867D01*
X151784842Y-123830879D01*
X151784842Y-123830880D01*
X151774500Y-123901864D01*
X151774500Y-123901868D01*
X151774500Y-124123136D01*
X151782900Y-124180789D01*
X151782901Y-124180796D01*
X151785133Y-124196125D01*
X151787977Y-124205327D01*
X151787468Y-124205484D01*
X151793960Y-124225616D01*
X151797890Y-124248637D01*
X151794631Y-124304453D01*
X151793916Y-124306887D01*
X151786350Y-124326386D01*
X151785135Y-124328871D01*
X151785134Y-124328873D01*
X151785134Y-124328875D01*
X151774500Y-124401864D01*
X151774500Y-124623136D01*
X151781646Y-124672181D01*
X151785134Y-124696127D01*
X151787975Y-124705322D01*
X151787468Y-124705478D01*
X151793960Y-124725616D01*
X151797890Y-124748637D01*
X151794631Y-124804453D01*
X151793916Y-124806887D01*
X151786350Y-124826386D01*
X151785135Y-124828871D01*
X151785134Y-124828873D01*
X151785134Y-124828875D01*
X151774500Y-124901864D01*
X151774500Y-125123136D01*
X151778543Y-125150892D01*
X151782450Y-125177707D01*
X151785133Y-125196124D01*
X151787978Y-125205330D01*
X151787469Y-125205487D01*
X151793959Y-125225617D01*
X151797889Y-125248636D01*
X151794631Y-125304453D01*
X151793916Y-125306887D01*
X151786350Y-125326386D01*
X151785135Y-125328871D01*
X151785134Y-125328873D01*
X151785134Y-125328875D01*
X151774500Y-125401864D01*
X151774500Y-125401869D01*
X151774500Y-125401870D01*
X151774500Y-125623137D01*
X151777294Y-125642314D01*
X151777294Y-125642316D01*
X151777295Y-125642316D01*
X151777295Y-125642317D01*
X151785134Y-125696125D01*
X151785135Y-125696127D01*
X151787978Y-125705329D01*
X151787469Y-125705486D01*
X151793959Y-125725615D01*
X151795777Y-125736263D01*
X151797890Y-125748637D01*
X151794631Y-125804453D01*
X151793916Y-125806887D01*
X151786350Y-125826386D01*
X151785135Y-125828871D01*
X151785134Y-125828873D01*
X151785134Y-125828875D01*
X151774500Y-125901864D01*
X151774500Y-126123136D01*
X151777058Y-126140692D01*
X151779741Y-126159108D01*
X151779741Y-126159119D01*
X151785133Y-126196124D01*
X151787977Y-126205327D01*
X151787468Y-126205484D01*
X151793959Y-126225615D01*
X151796119Y-126238266D01*
X151797890Y-126248637D01*
X151794631Y-126304453D01*
X151793916Y-126306887D01*
X151786350Y-126326386D01*
X151785135Y-126328871D01*
X151785134Y-126328873D01*
X151785134Y-126328875D01*
X151774500Y-126401864D01*
X151774500Y-126401869D01*
X151774500Y-126401870D01*
X151774500Y-126623136D01*
X151783341Y-126683818D01*
X151783342Y-126683825D01*
X151785132Y-126696121D01*
X151787977Y-126705325D01*
X151787467Y-126705482D01*
X151793959Y-126725615D01*
X151794552Y-126729087D01*
X151797890Y-126748637D01*
X151794631Y-126804453D01*
X151793916Y-126806887D01*
X151786350Y-126826386D01*
X151785135Y-126828871D01*
X151785134Y-126828873D01*
X151785134Y-126828875D01*
X151774500Y-126901864D01*
X151774500Y-127123136D01*
X151780622Y-127165157D01*
X151783839Y-127187236D01*
X151783637Y-127188657D01*
X151783804Y-127190494D01*
X151785136Y-127196136D01*
X151785355Y-127196579D01*
X151811399Y-127249854D01*
X151822230Y-127283446D01*
X151824133Y-127294593D01*
X151816010Y-127363989D01*
X151771659Y-127417977D01*
X151705176Y-127439417D01*
X151703546Y-127439460D01*
X151701352Y-127439517D01*
X151643618Y-127426962D01*
X151584078Y-127397855D01*
X151583635Y-127397635D01*
X151579649Y-127396694D01*
X151574737Y-127396339D01*
X151568468Y-127395425D01*
X151510636Y-127387000D01*
X151510631Y-127387000D01*
X151488882Y-127387000D01*
X151461832Y-127383110D01*
X151458566Y-127383237D01*
X151457229Y-127382449D01*
X151453946Y-127381977D01*
X151427679Y-127374264D01*
X151384807Y-127351837D01*
X151359580Y-127331507D01*
X151351021Y-127326260D01*
X151264979Y-127260236D01*
X151264976Y-127260235D01*
X151125112Y-127202302D01*
X151125110Y-127202301D01*
X151125099Y-127202299D01*
X151125089Y-127202298D01*
X151050000Y-127192411D01*
X151050000Y-127437270D01*
X151044976Y-127472207D01*
X151037209Y-127498657D01*
X151018158Y-127536426D01*
X151018481Y-127536657D01*
X151017434Y-127538123D01*
X151017428Y-127538131D01*
X151015174Y-127541288D01*
X151015174Y-127541289D01*
X151012198Y-127545458D01*
X151012068Y-127545365D01*
X151000508Y-127560929D01*
X150991047Y-127571284D01*
X150931295Y-127607499D01*
X150861450Y-127605661D01*
X150805792Y-127568849D01*
X150800357Y-127562577D01*
X150785234Y-127540796D01*
X150780352Y-127531855D01*
X150780353Y-127531855D01*
X150765166Y-127504042D01*
X150750000Y-127444618D01*
X150750000Y-127192411D01*
X150749999Y-127192411D01*
X150749993Y-127192411D01*
X150674909Y-127202298D01*
X150674899Y-127202299D01*
X150674888Y-127202301D01*
X150674886Y-127202302D01*
X150535022Y-127260235D01*
X150535019Y-127260236D01*
X150426076Y-127343833D01*
X150410021Y-127354287D01*
X150377899Y-127371829D01*
X150318467Y-127387000D01*
X150289364Y-127387000D01*
X150226802Y-127396114D01*
X150226798Y-127396114D01*
X150216376Y-127397633D01*
X150207180Y-127400476D01*
X150207022Y-127399966D01*
X150186882Y-127406460D01*
X150163860Y-127410390D01*
X150108064Y-127407136D01*
X150105632Y-127406422D01*
X150086103Y-127398845D01*
X150083629Y-127397635D01*
X150083626Y-127397634D01*
X150073198Y-127396114D01*
X150010636Y-127387000D01*
X150010630Y-127387000D01*
X149789364Y-127387000D01*
X149726802Y-127396114D01*
X149726798Y-127396114D01*
X149716376Y-127397633D01*
X149707180Y-127400476D01*
X149707022Y-127399966D01*
X149686882Y-127406460D01*
X149663860Y-127410390D01*
X149608064Y-127407136D01*
X149605632Y-127406422D01*
X149586103Y-127398845D01*
X149583629Y-127397635D01*
X149583626Y-127397634D01*
X149573198Y-127396114D01*
X149510636Y-127387000D01*
X149510630Y-127387000D01*
X149289364Y-127387000D01*
X149226802Y-127396114D01*
X149226798Y-127396114D01*
X149216376Y-127397633D01*
X149207180Y-127400476D01*
X149207022Y-127399966D01*
X149186882Y-127406460D01*
X149163860Y-127410390D01*
X149108064Y-127407136D01*
X149105632Y-127406422D01*
X149086103Y-127398845D01*
X149083629Y-127397635D01*
X149083626Y-127397634D01*
X149073198Y-127396114D01*
X149010636Y-127387000D01*
X149010630Y-127387000D01*
X148789364Y-127387000D01*
X148726802Y-127396114D01*
X148726798Y-127396114D01*
X148716376Y-127397633D01*
X148707180Y-127400476D01*
X148707022Y-127399966D01*
X148686882Y-127406460D01*
X148663860Y-127410390D01*
X148608064Y-127407136D01*
X148605632Y-127406422D01*
X148586103Y-127398845D01*
X148583629Y-127397635D01*
X148583626Y-127397634D01*
X148573198Y-127396114D01*
X148510636Y-127387000D01*
X148510630Y-127387000D01*
X148289364Y-127387000D01*
X148226802Y-127396114D01*
X148226798Y-127396114D01*
X148216376Y-127397633D01*
X148207180Y-127400476D01*
X148207022Y-127399966D01*
X148186882Y-127406460D01*
X148163860Y-127410390D01*
X148108064Y-127407136D01*
X148105632Y-127406422D01*
X148086103Y-127398845D01*
X148083629Y-127397635D01*
X148083626Y-127397634D01*
X148073198Y-127396114D01*
X148010636Y-127387000D01*
X148010630Y-127387000D01*
X147789364Y-127387000D01*
X147726802Y-127396114D01*
X147726798Y-127396114D01*
X147716376Y-127397633D01*
X147707180Y-127400476D01*
X147707022Y-127399966D01*
X147686882Y-127406460D01*
X147663860Y-127410390D01*
X147608064Y-127407136D01*
X147605632Y-127406422D01*
X147586103Y-127398845D01*
X147583629Y-127397635D01*
X147583626Y-127397634D01*
X147573198Y-127396114D01*
X147510636Y-127387000D01*
X147510630Y-127387000D01*
X147289364Y-127387000D01*
X147226802Y-127396114D01*
X147226798Y-127396114D01*
X147216376Y-127397633D01*
X147207180Y-127400476D01*
X147207022Y-127399966D01*
X147186882Y-127406460D01*
X147163860Y-127410390D01*
X147108064Y-127407136D01*
X147105632Y-127406422D01*
X147086103Y-127398845D01*
X147083629Y-127397635D01*
X147083626Y-127397634D01*
X147073198Y-127396114D01*
X147010636Y-127387000D01*
X147010630Y-127387000D01*
X146789364Y-127387000D01*
X146726802Y-127396114D01*
X146726798Y-127396114D01*
X146716376Y-127397633D01*
X146707180Y-127400476D01*
X146707022Y-127399966D01*
X146686882Y-127406460D01*
X146663860Y-127410390D01*
X146608064Y-127407136D01*
X146605632Y-127406422D01*
X146586103Y-127398845D01*
X146583629Y-127397635D01*
X146583626Y-127397634D01*
X146573198Y-127396114D01*
X146510636Y-127387000D01*
X146510630Y-127387000D01*
X146467294Y-127387000D01*
X146432359Y-127381977D01*
X146421505Y-127378790D01*
X146362727Y-127341016D01*
X146333702Y-127277460D01*
X146343642Y-127208311D01*
X146346832Y-127201324D01*
X146371941Y-127165160D01*
X146674999Y-126862103D01*
X147260489Y-126276614D01*
X147319799Y-126173887D01*
X147321779Y-126166497D01*
X147323759Y-126159110D01*
X147323760Y-126159106D01*
X147328694Y-126140692D01*
X147333399Y-126123132D01*
X147344956Y-126079998D01*
X147350500Y-126059309D01*
X147350500Y-124840691D01*
X147319799Y-124726114D01*
X147319799Y-124726113D01*
X147319799Y-124726112D01*
X147311051Y-124710960D01*
X147260493Y-124623390D01*
X147260490Y-124623387D01*
X147260485Y-124623381D01*
X146789116Y-124152013D01*
X146789114Y-124152011D01*
X146699052Y-124100013D01*
X146699052Y-124100012D01*
X146686390Y-124092702D01*
X146686382Y-124092698D01*
X146674279Y-124089456D01*
X146662175Y-124086213D01*
X146662175Y-124086212D01*
X146662170Y-124086212D01*
X146634206Y-124078718D01*
X146623975Y-124075977D01*
X146623975Y-124075976D01*
X146571814Y-124062000D01*
X146571809Y-124062000D01*
X146571808Y-124062000D01*
X145667330Y-124062000D01*
X145632389Y-124056975D01*
X145617390Y-124052570D01*
X145558644Y-124014827D01*
X145557457Y-124013458D01*
X145529977Y-123958583D01*
X145528332Y-123951021D01*
X145525500Y-123924668D01*
X145525500Y-123901869D01*
X145525500Y-123901868D01*
X145525500Y-123901864D01*
X145514866Y-123828875D01*
X145514864Y-123828871D01*
X145514864Y-123828869D01*
X145512023Y-123819673D01*
X145512531Y-123819516D01*
X145506041Y-123799389D01*
X145502110Y-123776371D01*
X145505369Y-123720543D01*
X145506085Y-123718106D01*
X145513661Y-123698589D01*
X145514866Y-123696125D01*
X145525500Y-123623136D01*
X145525500Y-123401864D01*
X145514866Y-123328875D01*
X145514864Y-123328871D01*
X145514864Y-123328869D01*
X145512023Y-123319673D01*
X145512531Y-123319516D01*
X145506041Y-123299389D01*
X145502110Y-123276371D01*
X145505369Y-123220543D01*
X145506085Y-123218106D01*
X145513661Y-123198589D01*
X145514866Y-123196125D01*
X145525500Y-123123136D01*
X145525500Y-122901864D01*
X145514866Y-122828875D01*
X145514864Y-122828870D01*
X145514864Y-122828869D01*
X145512023Y-122819673D01*
X145512531Y-122819516D01*
X145506041Y-122799389D01*
X145502110Y-122776371D01*
X145505369Y-122720543D01*
X145506085Y-122718106D01*
X145513661Y-122698589D01*
X145514123Y-122697644D01*
X145514866Y-122696125D01*
X145525500Y-122623136D01*
X145525500Y-122401864D01*
X145514866Y-122328875D01*
X145514864Y-122328871D01*
X145514864Y-122328869D01*
X145512023Y-122319673D01*
X145512571Y-122319503D01*
X145506041Y-122299389D01*
X145502110Y-122276371D01*
X145505369Y-122220543D01*
X145506085Y-122218106D01*
X145513661Y-122198589D01*
X145514866Y-122196125D01*
X145525500Y-122123136D01*
X145525500Y-122104829D01*
X145530523Y-122069893D01*
X145532854Y-122061957D01*
X145534927Y-122054894D01*
X145572702Y-121996117D01*
X145572706Y-121996114D01*
X145574076Y-121994927D01*
X145628913Y-121967478D01*
X145638913Y-121965303D01*
X145638912Y-121965302D01*
X145666721Y-121959252D01*
X145667835Y-121958366D01*
X145682502Y-121953435D01*
X145737173Y-121938786D01*
X145761387Y-121932299D01*
X145864114Y-121872989D01*
X145991852Y-121745250D01*
X146016920Y-121725903D01*
X146027571Y-121719675D01*
X146080375Y-121673920D01*
X146080382Y-121673912D01*
X146080387Y-121673908D01*
X146122550Y-121629190D01*
X146122549Y-121629190D01*
X146122553Y-121629187D01*
X146128766Y-121616965D01*
X146151620Y-121585482D01*
X146171675Y-121565428D01*
X146260490Y-121476614D01*
X146319799Y-121373887D01*
X146319799Y-121373885D01*
X146320866Y-121372038D01*
X146327917Y-121358158D01*
X146333779Y-121348541D01*
X146337452Y-121342514D01*
X146389152Y-121295516D01*
X146458052Y-121283930D01*
X146461797Y-121284378D01*
X146513168Y-121302585D01*
X146514193Y-121303231D01*
X146529850Y-121314915D01*
X146550000Y-121332587D01*
X146550000Y-121332586D01*
X146550001Y-121332587D01*
X146572062Y-121329682D01*
X146625098Y-121322701D01*
X146625103Y-121322700D01*
X146764978Y-121264763D01*
X146873937Y-121181155D01*
X146889996Y-121170700D01*
X146892736Y-121169203D01*
X146892737Y-121169204D01*
X146908416Y-121160642D01*
X146922110Y-121153166D01*
X146981533Y-121138000D01*
X147010630Y-121138000D01*
X147010636Y-121138000D01*
X147083625Y-121127366D01*
X147083628Y-121127364D01*
X147092828Y-121124522D01*
X147092985Y-121125032D01*
X147113107Y-121118540D01*
X147136133Y-121114609D01*
X147191957Y-121117869D01*
X147194402Y-121118587D01*
X147213904Y-121126158D01*
X147216375Y-121127366D01*
X147289364Y-121138000D01*
X147289370Y-121138000D01*
X147510630Y-121138000D01*
X147510636Y-121138000D01*
X147583625Y-121127366D01*
X147583628Y-121127364D01*
X147592828Y-121124522D01*
X147592985Y-121125032D01*
X147613107Y-121118540D01*
X147636133Y-121114609D01*
X147691957Y-121117869D01*
X147694402Y-121118587D01*
X147713904Y-121126158D01*
X147716375Y-121127366D01*
X147789364Y-121138000D01*
X147789370Y-121138000D01*
X148010630Y-121138000D01*
X148010636Y-121138000D01*
X148083625Y-121127366D01*
X148083628Y-121127364D01*
X148092828Y-121124522D01*
X148092985Y-121125032D01*
X148113107Y-121118540D01*
X148136133Y-121114609D01*
X148191957Y-121117869D01*
X148194402Y-121118587D01*
X148213904Y-121126158D01*
X148216375Y-121127366D01*
X148289364Y-121138000D01*
X148289370Y-121138000D01*
X148510630Y-121138000D01*
X148510636Y-121138000D01*
X148583625Y-121127366D01*
X148583628Y-121127364D01*
X148592828Y-121124522D01*
X148592985Y-121125032D01*
X148613107Y-121118540D01*
X148636133Y-121114609D01*
X148691957Y-121117869D01*
X148694402Y-121118587D01*
X148713904Y-121126158D01*
X148716375Y-121127366D01*
X148789364Y-121138000D01*
X148789370Y-121138000D01*
X149010630Y-121138000D01*
X149010636Y-121138000D01*
X149083625Y-121127366D01*
X149083628Y-121127364D01*
X149092828Y-121124522D01*
X149092985Y-121125032D01*
X149113107Y-121118540D01*
X149136133Y-121114609D01*
X149191957Y-121117869D01*
X149194402Y-121118587D01*
X149213904Y-121126158D01*
X149216375Y-121127366D01*
X149289364Y-121138000D01*
X149289370Y-121138000D01*
X149510630Y-121138000D01*
X149510636Y-121138000D01*
X149583625Y-121127366D01*
X149583628Y-121127364D01*
X149592828Y-121124522D01*
X149592985Y-121125032D01*
X149613107Y-121118540D01*
X149636133Y-121114609D01*
X149691957Y-121117869D01*
X149694402Y-121118587D01*
X149713904Y-121126158D01*
X149716375Y-121127366D01*
X149789364Y-121138000D01*
X149789370Y-121138000D01*
X150010630Y-121138000D01*
X150010636Y-121138000D01*
X150083625Y-121127366D01*
X150083628Y-121127364D01*
X150092828Y-121124522D01*
X150092985Y-121125032D01*
X150113107Y-121118540D01*
X150136133Y-121114609D01*
X150191957Y-121117869D01*
X150194402Y-121118587D01*
X150213904Y-121126158D01*
X150216375Y-121127366D01*
X150289364Y-121138000D01*
X150289370Y-121138000D01*
X150510630Y-121138000D01*
X150510636Y-121138000D01*
X150583625Y-121127366D01*
X150583628Y-121127364D01*
X150592828Y-121124522D01*
X150592985Y-121125032D01*
X150613107Y-121118540D01*
X150636133Y-121114609D01*
X150691957Y-121117869D01*
G37*
%TD.AperFunction*%
%TA.AperFunction,Conductor*%
G36*
X146291637Y-124968021D02*
G01*
X146316881Y-124975434D01*
X146369627Y-125006730D01*
X146400573Y-125037676D01*
X146421723Y-125065928D01*
X146434331Y-125089017D01*
X146449500Y-125148446D01*
X146449500Y-125744204D01*
X146444476Y-125779141D01*
X146437064Y-125804382D01*
X146405769Y-125857126D01*
X145749788Y-126513107D01*
X145721538Y-126534256D01*
X145711611Y-126539677D01*
X145643338Y-126554531D01*
X145577873Y-126530117D01*
X145536000Y-126474185D01*
X145533313Y-126466979D01*
X145525500Y-126423659D01*
X145525500Y-126401869D01*
X145525500Y-126401864D01*
X145514866Y-126328875D01*
X145514864Y-126328871D01*
X145514864Y-126328869D01*
X145512023Y-126319673D01*
X145512531Y-126319516D01*
X145506041Y-126299389D01*
X145502110Y-126276371D01*
X145505369Y-126220543D01*
X145506085Y-126218106D01*
X145513661Y-126198589D01*
X145514866Y-126196125D01*
X145525500Y-126123136D01*
X145525500Y-125901864D01*
X145514866Y-125828875D01*
X145514864Y-125828871D01*
X145514864Y-125828869D01*
X145512023Y-125819673D01*
X145514276Y-125818976D01*
X145506041Y-125799389D01*
X145502110Y-125776371D01*
X145505369Y-125720543D01*
X145506085Y-125718106D01*
X145513661Y-125698589D01*
X145514866Y-125696125D01*
X145525500Y-125623136D01*
X145525500Y-125601381D01*
X145530523Y-125566446D01*
X145538236Y-125540178D01*
X145560662Y-125497307D01*
X145580445Y-125472757D01*
X145585841Y-125464041D01*
X145647320Y-125383919D01*
X145649999Y-125380865D01*
X145652248Y-125377497D01*
X145652261Y-125377481D01*
X145652263Y-125377479D01*
X145710198Y-125237608D01*
X145710199Y-125237603D01*
X145720659Y-125158159D01*
X145713315Y-125142327D01*
X145702959Y-125073229D01*
X145731605Y-125009501D01*
X145790154Y-124971378D01*
X145800648Y-124968229D01*
X145836279Y-124963000D01*
X146256705Y-124963000D01*
X146291637Y-124968021D01*
G37*
%TD.AperFunction*%
%TA.AperFunction,Conductor*%
G36*
X156811756Y-119855445D02*
G01*
X156869953Y-119874811D01*
X156876471Y-119879000D01*
X156897106Y-119895630D01*
X157350573Y-120349097D01*
X157371723Y-120377349D01*
X157384331Y-120400438D01*
X157399500Y-120459867D01*
X157399500Y-123408215D01*
X157394477Y-123443150D01*
X157390961Y-123455127D01*
X157384528Y-123477033D01*
X157377272Y-123494975D01*
X157377427Y-123495043D01*
X157375620Y-123499200D01*
X157332257Y-123623119D01*
X157331883Y-123625317D01*
X157331717Y-123628888D01*
X157329500Y-123652538D01*
X157329500Y-124027453D01*
X157330445Y-124037535D01*
X157332257Y-124056871D01*
X157332260Y-124056887D01*
X157375223Y-124179664D01*
X157375596Y-124180764D01*
X157375619Y-124180795D01*
X157435569Y-124262025D01*
X157452272Y-124293116D01*
X157457635Y-124307801D01*
X157462143Y-124377522D01*
X157459966Y-124387211D01*
X157438751Y-124433662D01*
X157397491Y-124489566D01*
X157393932Y-124492267D01*
X157357074Y-124543650D01*
X157302012Y-124586646D01*
X157291601Y-124590773D01*
X157245906Y-124599500D01*
X157088638Y-124599500D01*
X157053702Y-124594477D01*
X157028460Y-124587065D01*
X157024538Y-124584738D01*
X157020622Y-124584477D01*
X157006663Y-124574132D01*
X156975715Y-124555769D01*
X155281002Y-122861056D01*
X155259850Y-122832800D01*
X155252358Y-122819079D01*
X155237507Y-122750809D01*
X155237662Y-122748641D01*
X155238120Y-122742236D01*
X155255072Y-122687961D01*
X155262031Y-122676195D01*
X155304504Y-122530000D01*
X155304503Y-122530000D01*
X154641830Y-122530000D01*
X154636382Y-122528400D01*
X154630812Y-122529510D01*
X154606889Y-122524975D01*
X154591890Y-122520570D01*
X154576885Y-122510930D01*
X154574791Y-122510315D01*
X154573362Y-122508666D01*
X154533144Y-122482827D01*
X154531957Y-122481458D01*
X154504477Y-122426583D01*
X154502832Y-122419021D01*
X154500000Y-122392668D01*
X154500000Y-122171829D01*
X154505023Y-122136893D01*
X154509065Y-122123130D01*
X154509427Y-122121894D01*
X154517293Y-122109650D01*
X154520633Y-122095501D01*
X154535777Y-122080879D01*
X154547172Y-122063144D01*
X154548541Y-122061957D01*
X154562742Y-122054845D01*
X154570898Y-122046972D01*
X154583467Y-122044467D01*
X154603420Y-122034477D01*
X154610979Y-122032833D01*
X154637332Y-122030000D01*
X155304503Y-122030000D01*
X155304504Y-122030000D01*
X155262031Y-121883804D01*
X155179721Y-121744625D01*
X155179714Y-121744616D01*
X155141766Y-121706668D01*
X155120615Y-121678414D01*
X155117622Y-121672933D01*
X155112793Y-121664090D01*
X155097858Y-121597079D01*
X155098747Y-121582571D01*
X155105475Y-121549205D01*
X155107710Y-121542819D01*
X155107710Y-121542810D01*
X155109320Y-121535446D01*
X155110156Y-121535628D01*
X155115513Y-121513378D01*
X155126165Y-121486634D01*
X155153679Y-121444844D01*
X156699714Y-119898808D01*
X156727965Y-119877660D01*
X156741691Y-119870165D01*
X156809946Y-119855316D01*
X156811756Y-119855445D01*
G37*
%TD.AperFunction*%
%TA.AperFunction,Conductor*%
G36*
X143168426Y-121665521D02*
G01*
X143193670Y-121672934D01*
X143246416Y-121704230D01*
X143367686Y-121825500D01*
X143367687Y-121825501D01*
X143367689Y-121825502D01*
X143372059Y-121828025D01*
X143399803Y-121849843D01*
X143412786Y-121863459D01*
X143443548Y-121919793D01*
X143446004Y-121929916D01*
X143449500Y-121959152D01*
X143449500Y-122123136D01*
X143460134Y-122196125D01*
X143460134Y-122196126D01*
X143460135Y-122196128D01*
X143462977Y-122205326D01*
X143462469Y-122205482D01*
X143468960Y-122225616D01*
X143472890Y-122248637D01*
X143469631Y-122304453D01*
X143468916Y-122306887D01*
X143461350Y-122326386D01*
X143460135Y-122328871D01*
X143460135Y-122328872D01*
X143460134Y-122328875D01*
X143449500Y-122401864D01*
X143449500Y-122623136D01*
X143457231Y-122676195D01*
X143457245Y-122676292D01*
X143457245Y-122676305D01*
X143460133Y-122696121D01*
X143462978Y-122705329D01*
X143462468Y-122705486D01*
X143468960Y-122725618D01*
X143472890Y-122748641D01*
X143469636Y-122804436D01*
X143468922Y-122806868D01*
X143461346Y-122826394D01*
X143460135Y-122828870D01*
X143459770Y-122829872D01*
X143455979Y-122839092D01*
X143446434Y-122859888D01*
X143400579Y-122912605D01*
X143335093Y-122932155D01*
X143322097Y-122932297D01*
X143288651Y-122928079D01*
X143253776Y-122918735D01*
X143219310Y-122909500D01*
X143219309Y-122909500D01*
X143219308Y-122909500D01*
X143212096Y-122909500D01*
X143177157Y-122904476D01*
X143163839Y-122900565D01*
X143105062Y-122862789D01*
X143076041Y-122799240D01*
X143074922Y-122791459D01*
X143078582Y-122739224D01*
X143104504Y-122650000D01*
X143104503Y-122650000D01*
X140841830Y-122650000D01*
X140836382Y-122648400D01*
X140830812Y-122649510D01*
X140806889Y-122644975D01*
X140791890Y-122640570D01*
X140776885Y-122630930D01*
X140774791Y-122630315D01*
X140773362Y-122628666D01*
X140733144Y-122602827D01*
X140731957Y-122601458D01*
X140704477Y-122546583D01*
X140702832Y-122539021D01*
X140700000Y-122512668D01*
X140700000Y-122291829D01*
X140705023Y-122256893D01*
X140709427Y-122241895D01*
X140717293Y-122229650D01*
X140720633Y-122215501D01*
X140735777Y-122200879D01*
X140747172Y-122183144D01*
X140748541Y-122181957D01*
X140762742Y-122174845D01*
X140770898Y-122166972D01*
X140783467Y-122164467D01*
X140803420Y-122154477D01*
X140810979Y-122152833D01*
X140837332Y-122150000D01*
X143104503Y-122150000D01*
X143104504Y-122150000D01*
X143062031Y-122003804D01*
X142993253Y-121887506D01*
X142980079Y-121865230D01*
X142971388Y-121847426D01*
X142965480Y-121832378D01*
X142959307Y-121762783D01*
X142991740Y-121700896D01*
X143049216Y-121667185D01*
X143058927Y-121664618D01*
X143090617Y-121660500D01*
X143133494Y-121660500D01*
X143168426Y-121665521D01*
G37*
%TD.AperFunction*%
%TA.AperFunction,Conductor*%
G36*
X144552567Y-116155521D02*
G01*
X144565886Y-116159432D01*
X144624664Y-116197206D01*
X144653690Y-116260761D01*
X144653691Y-116260772D01*
X144654467Y-116266172D01*
X144644519Y-116335330D01*
X144642262Y-116340009D01*
X144626561Y-116370889D01*
X144615931Y-116407087D01*
X144612314Y-116417625D01*
X144609642Y-116424402D01*
X144608564Y-116430077D01*
X144607719Y-116433585D01*
X144607816Y-116433607D01*
X144606876Y-116437927D01*
X144606876Y-116437928D01*
X144595565Y-116516597D01*
X144594500Y-116524002D01*
X144594500Y-120370500D01*
X144574815Y-120437539D01*
X144522011Y-120483294D01*
X144470500Y-120494500D01*
X143624000Y-120494500D01*
X143623991Y-120494500D01*
X143623990Y-120494501D01*
X143559064Y-120501481D01*
X143559047Y-120501484D01*
X143537176Y-120506242D01*
X143467484Y-120501258D01*
X143411657Y-120459528D01*
X143404503Y-120450000D01*
X141795496Y-120450000D01*
X141793455Y-120452716D01*
X141795708Y-120468716D01*
X141795668Y-120482607D01*
X141775796Y-120549589D01*
X141722865Y-120595195D01*
X141715711Y-120598438D01*
X141664515Y-120609500D01*
X136667520Y-120609500D01*
X136536258Y-120644670D01*
X136536242Y-120644677D01*
X136527511Y-120647016D01*
X136513375Y-120655178D01*
X136513372Y-120655180D01*
X136401993Y-120719483D01*
X136401988Y-120719487D01*
X136401982Y-120719492D01*
X136401975Y-120719498D01*
X135120901Y-122000573D01*
X135092650Y-122021722D01*
X135069562Y-122034330D01*
X135010132Y-122049500D01*
X134493663Y-122049500D01*
X134477335Y-122044705D01*
X134460321Y-122044933D01*
X134458727Y-122044477D01*
X134433485Y-122037065D01*
X134380739Y-122005768D01*
X134372765Y-121997794D01*
X134372764Y-121997793D01*
X134372763Y-121997792D01*
X134311255Y-121970634D01*
X134281323Y-121951925D01*
X134272681Y-121944626D01*
X134234173Y-121886327D01*
X134233296Y-121816463D01*
X134270324Y-121757220D01*
X134277685Y-121750678D01*
X134309966Y-121729933D01*
X134372765Y-121702206D01*
X134431249Y-121643721D01*
X134438520Y-121639751D01*
X134453116Y-121622472D01*
X134457903Y-121617264D01*
X134459492Y-121614924D01*
X134460077Y-121614230D01*
X134460078Y-121614231D01*
X134473070Y-121598850D01*
X134531367Y-121560340D01*
X134531366Y-121560340D01*
X134545582Y-121555970D01*
X134582009Y-121550500D01*
X134659308Y-121550500D01*
X134659309Y-121550500D01*
X134749673Y-121526286D01*
X134773887Y-121519799D01*
X134876614Y-121460489D01*
X136260490Y-120076614D01*
X136319799Y-119973886D01*
X136326199Y-119950000D01*
X141795496Y-119950000D01*
X142350000Y-119950000D01*
X142850000Y-119950000D01*
X143404503Y-119950000D01*
X143404504Y-119950000D01*
X143362031Y-119803804D01*
X143279721Y-119664625D01*
X143279714Y-119664616D01*
X143165383Y-119550285D01*
X143165374Y-119550278D01*
X143131679Y-119530351D01*
X143026197Y-119467969D01*
X143026193Y-119467967D01*
X143026184Y-119467963D01*
X142870928Y-119422857D01*
X142870920Y-119422855D01*
X142870912Y-119422854D01*
X142850000Y-119421209D01*
X142850000Y-119950000D01*
X142350000Y-119950000D01*
X142350000Y-119421210D01*
X142349999Y-119421209D01*
X142329084Y-119422854D01*
X142329078Y-119422855D01*
X142329070Y-119422857D01*
X142173814Y-119467963D01*
X142173805Y-119467967D01*
X142173801Y-119467969D01*
X142034627Y-119550276D01*
X142034615Y-119550285D01*
X141920285Y-119664615D01*
X141920276Y-119664627D01*
X141837969Y-119803802D01*
X141837968Y-119803804D01*
X141795496Y-119950000D01*
X136326199Y-119950000D01*
X136350500Y-119859309D01*
X136350500Y-119670743D01*
X136355522Y-119635810D01*
X136356959Y-119630917D01*
X136361030Y-119617050D01*
X136380236Y-119578354D01*
X136387025Y-119569155D01*
X136396331Y-119557982D01*
X136408201Y-119545319D01*
X136410042Y-119538651D01*
X136415652Y-119530368D01*
X136474381Y-119450794D01*
X136505589Y-119361607D01*
X136517741Y-119326881D01*
X136517741Y-119326879D01*
X136518115Y-119324681D01*
X136518283Y-119321094D01*
X136520499Y-119297468D01*
X136520499Y-119297467D01*
X136520500Y-119297457D01*
X136520499Y-118922544D01*
X136517741Y-118893121D01*
X136474381Y-118769206D01*
X136414430Y-118687976D01*
X136409683Y-118674979D01*
X136400757Y-118664407D01*
X136397728Y-118656888D01*
X136392364Y-118642203D01*
X136391213Y-118624410D01*
X136390460Y-118622348D01*
X136390922Y-118619919D01*
X136387853Y-118572487D01*
X136390033Y-118562781D01*
X136411244Y-118516339D01*
X136474381Y-118430794D01*
X136502652Y-118350000D01*
X136517741Y-118306881D01*
X136517741Y-118306879D01*
X136518114Y-118304684D01*
X136518281Y-118301117D01*
X136520407Y-118278436D01*
X136520489Y-118277640D01*
X136520498Y-118277473D01*
X136520500Y-118277457D01*
X136520499Y-118175789D01*
X136525521Y-118140858D01*
X136532932Y-118115619D01*
X136564227Y-118062874D01*
X136618670Y-118008431D01*
X136827681Y-117799421D01*
X136855932Y-117778273D01*
X136879027Y-117765663D01*
X136938447Y-117750500D01*
X140159308Y-117750500D01*
X140159309Y-117750500D01*
X140249673Y-117726286D01*
X140273887Y-117719799D01*
X140376614Y-117660489D01*
X141837680Y-116199423D01*
X141865930Y-116178275D01*
X141889022Y-116165667D01*
X141948447Y-116150500D01*
X144517635Y-116150500D01*
X144552567Y-116155521D01*
G37*
%TD.AperFunction*%
%TA.AperFunction,Conductor*%
G36*
X150831783Y-111555523D02*
G01*
X150842037Y-111558534D01*
X150900815Y-111596310D01*
X150929839Y-111659866D01*
X150919895Y-111729024D01*
X150883525Y-111775160D01*
X150880415Y-111777594D01*
X150860288Y-111790428D01*
X150807075Y-111817542D01*
X150752435Y-111845382D01*
X150698282Y-111884727D01*
X150698282Y-111884728D01*
X151203850Y-112390296D01*
X151237335Y-112451619D01*
X151232351Y-112521311D01*
X151190479Y-112577244D01*
X151178173Y-112585362D01*
X151152996Y-112599898D01*
X151152990Y-112599903D01*
X151059903Y-112692990D01*
X151059898Y-112692996D01*
X151045362Y-112718173D01*
X150994793Y-112766387D01*
X150926185Y-112779607D01*
X150861322Y-112753637D01*
X150850296Y-112743850D01*
X150344728Y-112238282D01*
X150344727Y-112238282D01*
X150305380Y-112292438D01*
X150208903Y-112481784D01*
X150143242Y-112683865D01*
X150141798Y-112692990D01*
X150110000Y-112893753D01*
X150110000Y-113106246D01*
X150135843Y-113269409D01*
X150141715Y-113306485D01*
X150141716Y-113306493D01*
X150143242Y-113316133D01*
X150199506Y-113489293D01*
X150208904Y-113518217D01*
X150276828Y-113651524D01*
X150305374Y-113707548D01*
X150305375Y-113707550D01*
X150340674Y-113756137D01*
X150344728Y-113761716D01*
X150850297Y-113256147D01*
X150911619Y-113222663D01*
X150981311Y-113227647D01*
X151037244Y-113269519D01*
X151045363Y-113281828D01*
X151059896Y-113307000D01*
X151059899Y-113307004D01*
X151059901Y-113307007D01*
X151152993Y-113400099D01*
X151178169Y-113414634D01*
X151226384Y-113465202D01*
X151239606Y-113533809D01*
X151213638Y-113598673D01*
X151203849Y-113609702D01*
X150698282Y-114115268D01*
X150698282Y-114115269D01*
X150698282Y-114115270D01*
X150752449Y-114154624D01*
X150886618Y-114222987D01*
X150941784Y-114251096D01*
X151143866Y-114316756D01*
X151143867Y-114316756D01*
X151143870Y-114316757D01*
X151353754Y-114350000D01*
X151566245Y-114350000D01*
X151566246Y-114350000D01*
X151679050Y-114332132D01*
X151766487Y-114318284D01*
X151766493Y-114318283D01*
X151776127Y-114316757D01*
X151776130Y-114316757D01*
X151978217Y-114251095D01*
X152167554Y-114154622D01*
X152169976Y-114152862D01*
X152189121Y-114138953D01*
X152215858Y-114129412D01*
X152221717Y-114115269D01*
X151716149Y-113609702D01*
X151682664Y-113548379D01*
X151687648Y-113478688D01*
X151729519Y-113422754D01*
X151741822Y-113414639D01*
X151767007Y-113400099D01*
X151860099Y-113307007D01*
X151874634Y-113281830D01*
X151925199Y-113233616D01*
X151993805Y-113220391D01*
X152058671Y-113246358D01*
X152069702Y-113256149D01*
X152575269Y-113761717D01*
X152575269Y-113761716D01*
X152575270Y-113761717D01*
X152575270Y-113761716D01*
X152588738Y-113756137D01*
X152594955Y-113734967D01*
X152598954Y-113729118D01*
X152614622Y-113707554D01*
X152711095Y-113518217D01*
X152714982Y-113506254D01*
X152730550Y-113474586D01*
X152736934Y-113465248D01*
X152791019Y-113421015D01*
X152860432Y-113413044D01*
X152923136Y-113443867D01*
X152923140Y-113443871D01*
X152928791Y-113449057D01*
X152955432Y-113484119D01*
X153016004Y-113602995D01*
X153122441Y-113749494D01*
X153122445Y-113749499D01*
X153122450Y-113749505D01*
X153250493Y-113877548D01*
X153250497Y-113877551D01*
X153250500Y-113877554D01*
X153250505Y-113877558D01*
X153397001Y-113983993D01*
X153397003Y-113983994D01*
X153397010Y-113983999D01*
X153397269Y-113984130D01*
X153454285Y-114013181D01*
X153465910Y-114019104D01*
X153494758Y-114039441D01*
X153507167Y-114051161D01*
X153541720Y-114108924D01*
X153545197Y-114121777D01*
X153549500Y-114154157D01*
X153549500Y-115444205D01*
X153544476Y-115479142D01*
X153537064Y-115504383D01*
X153505769Y-115557127D01*
X151039518Y-118023377D01*
X151039513Y-118023382D01*
X150992531Y-118104755D01*
X150983014Y-118115607D01*
X150980199Y-118126114D01*
X150976250Y-118140858D01*
X150973988Y-118149301D01*
X150973986Y-118149307D01*
X150949500Y-118240691D01*
X150949500Y-118920170D01*
X150944475Y-118955114D01*
X150940070Y-118970112D01*
X150902327Y-119028855D01*
X150900958Y-119030042D01*
X150846097Y-119057518D01*
X150838539Y-119059163D01*
X150812168Y-119062000D01*
X150789364Y-119062000D01*
X150726802Y-119071114D01*
X150726798Y-119071114D01*
X150716376Y-119072633D01*
X150707180Y-119075476D01*
X150707022Y-119074966D01*
X150686882Y-119081460D01*
X150663860Y-119085390D01*
X150608064Y-119082136D01*
X150605632Y-119081422D01*
X150586103Y-119073845D01*
X150583629Y-119072635D01*
X150583626Y-119072634D01*
X150573198Y-119071114D01*
X150510636Y-119062000D01*
X150510630Y-119062000D01*
X150289364Y-119062000D01*
X150226802Y-119071114D01*
X150226798Y-119071114D01*
X150216376Y-119072633D01*
X150207180Y-119075476D01*
X150207022Y-119074966D01*
X150186882Y-119081460D01*
X150163860Y-119085390D01*
X150108064Y-119082136D01*
X150105632Y-119081422D01*
X150086103Y-119073845D01*
X150083629Y-119072635D01*
X150083626Y-119072634D01*
X150073198Y-119071114D01*
X150010636Y-119062000D01*
X150010630Y-119062000D01*
X149789364Y-119062000D01*
X149726802Y-119071114D01*
X149726798Y-119071114D01*
X149716376Y-119072633D01*
X149707180Y-119075476D01*
X149707022Y-119074966D01*
X149686882Y-119081460D01*
X149663860Y-119085390D01*
X149608064Y-119082136D01*
X149605632Y-119081422D01*
X149586103Y-119073845D01*
X149583629Y-119072635D01*
X149583626Y-119072634D01*
X149573198Y-119071114D01*
X149510636Y-119062000D01*
X149510630Y-119062000D01*
X149492330Y-119062000D01*
X149457389Y-119056975D01*
X149442390Y-119052570D01*
X149383644Y-119014827D01*
X149382457Y-119013458D01*
X149354977Y-118958583D01*
X149353332Y-118951021D01*
X149350500Y-118924668D01*
X149350500Y-115040693D01*
X149350500Y-115040691D01*
X149319799Y-114926114D01*
X149319799Y-114926113D01*
X149260489Y-114823386D01*
X148576614Y-114139511D01*
X148525250Y-114109856D01*
X148511997Y-114102204D01*
X148473889Y-114080201D01*
X148461777Y-114076956D01*
X148461777Y-114076955D01*
X148461769Y-114076954D01*
X148451484Y-114074197D01*
X148451466Y-114074193D01*
X148404825Y-114061696D01*
X148404823Y-114061695D01*
X148359310Y-114049500D01*
X148359309Y-114049500D01*
X148359308Y-114049500D01*
X146909608Y-114049500D01*
X146874668Y-114044476D01*
X146860809Y-114040406D01*
X146802033Y-114002629D01*
X146773264Y-113940753D01*
X146771248Y-113927974D01*
X146770669Y-113898513D01*
X146770287Y-113898491D01*
X146770497Y-113894889D01*
X146770498Y-113894882D01*
X146770500Y-113894865D01*
X146770499Y-112105136D01*
X146770497Y-112105117D01*
X146768409Y-112087113D01*
X146768078Y-112081390D01*
X146767955Y-112080630D01*
X146766406Y-112077339D01*
X146722206Y-111977235D01*
X146642765Y-111897794D01*
X146642763Y-111897793D01*
X146613174Y-111884728D01*
X146539994Y-111852415D01*
X146539987Y-111852413D01*
X146531140Y-111851387D01*
X146497023Y-111842372D01*
X146485806Y-111837615D01*
X146431772Y-111793319D01*
X146410265Y-111726842D01*
X146426726Y-111661641D01*
X146431855Y-111652722D01*
X146451660Y-111626863D01*
X146479105Y-111599418D01*
X146507353Y-111578274D01*
X146522169Y-111570185D01*
X146530448Y-111565665D01*
X146589869Y-111550500D01*
X150796847Y-111550500D01*
X150831783Y-111555523D01*
G37*
%TD.AperFunction*%
%TA.AperFunction,Conductor*%
G36*
X158329873Y-111554394D02*
G01*
X158333125Y-111554270D01*
X158334453Y-111555053D01*
X158337714Y-111555522D01*
X158344548Y-111557528D01*
X158362958Y-111562934D01*
X158415702Y-111594228D01*
X158444464Y-111622989D01*
X158446687Y-111625212D01*
X158467838Y-111653466D01*
X158473258Y-111663392D01*
X158488110Y-111731665D01*
X158463693Y-111797129D01*
X158407770Y-111838997D01*
X158404894Y-111840070D01*
X158400582Y-111841678D01*
X158357240Y-111849500D01*
X158185143Y-111849500D01*
X158185127Y-111849501D01*
X158185113Y-111849502D01*
X158163815Y-111851972D01*
X158160012Y-111852413D01*
X158160008Y-111852415D01*
X158152106Y-111855903D01*
X158152094Y-111855908D01*
X158057236Y-111897792D01*
X157977793Y-111977234D01*
X157932414Y-112080005D01*
X157931844Y-112082710D01*
X157931589Y-112087124D01*
X157929500Y-112105127D01*
X157929500Y-112825041D01*
X157924477Y-112859977D01*
X157922756Y-112865838D01*
X157884981Y-112924616D01*
X157821425Y-112953640D01*
X157752267Y-112943696D01*
X157699463Y-112897941D01*
X157699231Y-112897580D01*
X157681074Y-112849939D01*
X157674274Y-112807006D01*
X157665821Y-112753637D01*
X157662171Y-112730591D01*
X157607713Y-112562986D01*
X157606655Y-112559232D01*
X157601885Y-112549871D01*
X157567091Y-112481585D01*
X157551823Y-112451619D01*
X157523999Y-112397011D01*
X157523994Y-112397003D01*
X157510396Y-112378287D01*
X157510395Y-112378284D01*
X157417570Y-112250522D01*
X157417558Y-112250505D01*
X157417554Y-112250500D01*
X157417551Y-112250497D01*
X157417548Y-112250493D01*
X157289507Y-112122452D01*
X157289498Y-112122444D01*
X157289474Y-112122426D01*
X157150888Y-112021738D01*
X157150555Y-112021454D01*
X157142987Y-112015998D01*
X157142623Y-112015815D01*
X157066906Y-111977235D01*
X157066906Y-111977234D01*
X157066904Y-111977234D01*
X156981639Y-111933788D01*
X156981563Y-111933762D01*
X156809412Y-111877829D01*
X156809413Y-111877829D01*
X156671009Y-111855908D01*
X156630551Y-111849500D01*
X156630550Y-111849500D01*
X156449450Y-111849500D01*
X156449449Y-111849500D01*
X156423506Y-111853609D01*
X156270585Y-111877829D01*
X156098386Y-111933778D01*
X156098363Y-111933786D01*
X156098359Y-111933788D01*
X155937005Y-112016004D01*
X155937002Y-112016005D01*
X155937002Y-112016006D01*
X155888169Y-112051484D01*
X155790499Y-112122445D01*
X155790491Y-112122452D01*
X155662452Y-112250491D01*
X155662445Y-112250499D01*
X155556004Y-112397005D01*
X155473788Y-112558359D01*
X155473786Y-112558363D01*
X155473778Y-112558386D01*
X155417829Y-112730585D01*
X155395262Y-112873067D01*
X155384834Y-112906792D01*
X155381857Y-112913071D01*
X155335350Y-112965213D01*
X155268035Y-112983935D01*
X155201285Y-112963292D01*
X155157021Y-112911466D01*
X155154560Y-112906078D01*
X155144879Y-112873963D01*
X155133740Y-112803639D01*
X155122171Y-112730591D01*
X155122134Y-112730478D01*
X155096181Y-112650602D01*
X155067713Y-112562986D01*
X155066655Y-112559232D01*
X155061885Y-112549871D01*
X155027091Y-112481585D01*
X155011823Y-112451619D01*
X154983999Y-112397011D01*
X154983994Y-112397003D01*
X154970396Y-112378287D01*
X154970395Y-112378284D01*
X154877570Y-112250522D01*
X154877558Y-112250505D01*
X154877554Y-112250500D01*
X154877551Y-112250497D01*
X154877548Y-112250493D01*
X154749507Y-112122452D01*
X154749498Y-112122444D01*
X154749474Y-112122426D01*
X154610888Y-112021738D01*
X154610555Y-112021454D01*
X154602987Y-112015998D01*
X154602623Y-112015815D01*
X154526906Y-111977235D01*
X154526906Y-111977234D01*
X154526904Y-111977234D01*
X154441639Y-111933788D01*
X154441563Y-111933762D01*
X154269412Y-111877829D01*
X154269413Y-111877829D01*
X154131009Y-111855908D01*
X154090551Y-111849500D01*
X154090550Y-111849500D01*
X153909450Y-111849500D01*
X153909449Y-111849500D01*
X153883506Y-111853609D01*
X153730585Y-111877829D01*
X153558386Y-111933778D01*
X153558363Y-111933786D01*
X153558359Y-111933788D01*
X153397005Y-112016004D01*
X153397002Y-112016005D01*
X153397002Y-112016006D01*
X153348169Y-112051484D01*
X153250499Y-112122445D01*
X153250491Y-112122452D01*
X153122450Y-112250493D01*
X153122428Y-112250522D01*
X153016004Y-112397002D01*
X152957002Y-112512799D01*
X152936663Y-112541649D01*
X152928897Y-112549871D01*
X152868554Y-112585090D01*
X152798748Y-112582095D01*
X152741646Y-112541838D01*
X152736875Y-112535830D01*
X152716050Y-112497034D01*
X152711094Y-112481780D01*
X152711093Y-112481779D01*
X152711093Y-112481777D01*
X152670099Y-112401324D01*
X152614624Y-112292449D01*
X152575270Y-112238282D01*
X152575269Y-112238282D01*
X152575268Y-112238282D01*
X152069702Y-112743849D01*
X152008379Y-112777334D01*
X151938687Y-112772350D01*
X151882754Y-112730478D01*
X151874634Y-112718169D01*
X151860099Y-112692993D01*
X151767007Y-112599901D01*
X151767004Y-112599899D01*
X151767000Y-112599896D01*
X151741828Y-112585363D01*
X151693613Y-112534796D01*
X151680391Y-112466189D01*
X151706359Y-112401324D01*
X151716135Y-112390310D01*
X152221716Y-111884728D01*
X152167550Y-111845375D01*
X152167548Y-111845374D01*
X152167543Y-111845371D01*
X152064913Y-111793077D01*
X152036076Y-111772750D01*
X152028306Y-111765413D01*
X151993078Y-111705075D01*
X151996063Y-111635269D01*
X152036315Y-111578159D01*
X152089695Y-111553551D01*
X152093570Y-111552795D01*
X152117314Y-111550500D01*
X158302782Y-111550500D01*
X158329873Y-111554394D01*
G37*
%TD.AperFunction*%
%TD*%
%TA.AperFunction,Conductor*%
%TO.N,+3.3V*%
G36*
X145843039Y-116419685D02*
G01*
X145888794Y-116472489D01*
X145900000Y-116524000D01*
X145900000Y-121376000D01*
X145880315Y-121443039D01*
X145827511Y-121488794D01*
X145776000Y-121500000D01*
X143624000Y-121500000D01*
X143556961Y-121480315D01*
X143511206Y-121427511D01*
X143500000Y-121376000D01*
X143500000Y-120924000D01*
X143519685Y-120856961D01*
X143572489Y-120811206D01*
X143624000Y-120800000D01*
X144900000Y-120800000D01*
X144900000Y-116524000D01*
X144919685Y-116456961D01*
X144972489Y-116411206D01*
X145024000Y-116400000D01*
X145776000Y-116400000D01*
X145843039Y-116419685D01*
G37*
%TD.AperFunction*%
%TD*%
M02*
