%TF.GenerationSoftware,KiCad,Pcbnew,10.0.5*%
%TF.CreationDate,2026-08-18T20:29:32-04:00*%
%TF.ProjectId,STM32_BluePill,53544d33-325f-4426-9c75-6550696c6c2e,0.2*%
%TF.SameCoordinates,Original*%
%TF.FileFunction,Legend,Bot*%
%TF.FilePolarity,Positive*%
%FSLAX46Y46*%
G04 Gerber Fmt 4.6, Leading zero omitted, Abs format (unit mm)*
G04 Created by KiCad (PCBNEW 10.0.5) date 2026-08-18 20:29:32*
%MOMM*%
%LPD*%
G01*
G04 APERTURE LIST*
%ADD10C,0.100000*%
G04 APERTURE END LIST*
D10*
X132544594Y-133277068D02*
X132544594Y-133219925D01*
X132544594Y-133219925D02*
X132516023Y-133162782D01*
X132516023Y-133162782D02*
X132487451Y-133134211D01*
X132487451Y-133134211D02*
X132430308Y-133105639D01*
X132430308Y-133105639D02*
X132316023Y-133077068D01*
X132316023Y-133077068D02*
X132173166Y-133077068D01*
X132173166Y-133077068D02*
X132058880Y-133105639D01*
X132058880Y-133105639D02*
X132001737Y-133134211D01*
X132001737Y-133134211D02*
X131973166Y-133162782D01*
X131973166Y-133162782D02*
X131944594Y-133219925D01*
X131944594Y-133219925D02*
X131944594Y-133277068D01*
X131944594Y-133277068D02*
X131973166Y-133334211D01*
X131973166Y-133334211D02*
X132001737Y-133362782D01*
X132001737Y-133362782D02*
X132058880Y-133391353D01*
X132058880Y-133391353D02*
X132173166Y-133419925D01*
X132173166Y-133419925D02*
X132316023Y-133419925D01*
X132316023Y-133419925D02*
X132430308Y-133391353D01*
X132430308Y-133391353D02*
X132487451Y-133362782D01*
X132487451Y-133362782D02*
X132516023Y-133334211D01*
X132516023Y-133334211D02*
X132544594Y-133277068D01*
X132287451Y-132734210D02*
X132316023Y-132791353D01*
X132316023Y-132791353D02*
X132344594Y-132819924D01*
X132344594Y-132819924D02*
X132401737Y-132848496D01*
X132401737Y-132848496D02*
X132430308Y-132848496D01*
X132430308Y-132848496D02*
X132487451Y-132819924D01*
X132487451Y-132819924D02*
X132516023Y-132791353D01*
X132516023Y-132791353D02*
X132544594Y-132734210D01*
X132544594Y-132734210D02*
X132544594Y-132619924D01*
X132544594Y-132619924D02*
X132516023Y-132562782D01*
X132516023Y-132562782D02*
X132487451Y-132534210D01*
X132487451Y-132534210D02*
X132430308Y-132505639D01*
X132430308Y-132505639D02*
X132401737Y-132505639D01*
X132401737Y-132505639D02*
X132344594Y-132534210D01*
X132344594Y-132534210D02*
X132316023Y-132562782D01*
X132316023Y-132562782D02*
X132287451Y-132619924D01*
X132287451Y-132619924D02*
X132287451Y-132734210D01*
X132287451Y-132734210D02*
X132258880Y-132791353D01*
X132258880Y-132791353D02*
X132230308Y-132819924D01*
X132230308Y-132819924D02*
X132173166Y-132848496D01*
X132173166Y-132848496D02*
X132058880Y-132848496D01*
X132058880Y-132848496D02*
X132001737Y-132819924D01*
X132001737Y-132819924D02*
X131973166Y-132791353D01*
X131973166Y-132791353D02*
X131944594Y-132734210D01*
X131944594Y-132734210D02*
X131944594Y-132619924D01*
X131944594Y-132619924D02*
X131973166Y-132562782D01*
X131973166Y-132562782D02*
X132001737Y-132534210D01*
X132001737Y-132534210D02*
X132058880Y-132505639D01*
X132058880Y-132505639D02*
X132173166Y-132505639D01*
X132173166Y-132505639D02*
X132230308Y-132534210D01*
X132230308Y-132534210D02*
X132258880Y-132562782D01*
X132258880Y-132562782D02*
X132287451Y-132619924D01*
X132573166Y-131819924D02*
X131801737Y-132334210D01*
X132487451Y-131648496D02*
X132516023Y-131619924D01*
X132516023Y-131619924D02*
X132544594Y-131562782D01*
X132544594Y-131562782D02*
X132544594Y-131419924D01*
X132544594Y-131419924D02*
X132516023Y-131362782D01*
X132516023Y-131362782D02*
X132487451Y-131334210D01*
X132487451Y-131334210D02*
X132430308Y-131305639D01*
X132430308Y-131305639D02*
X132373166Y-131305639D01*
X132373166Y-131305639D02*
X132287451Y-131334210D01*
X132287451Y-131334210D02*
X131944594Y-131677067D01*
X131944594Y-131677067D02*
X131944594Y-131305639D01*
X132544594Y-130791353D02*
X132544594Y-130905638D01*
X132544594Y-130905638D02*
X132516023Y-130962781D01*
X132516023Y-130962781D02*
X132487451Y-130991353D01*
X132487451Y-130991353D02*
X132401737Y-131048495D01*
X132401737Y-131048495D02*
X132287451Y-131077067D01*
X132287451Y-131077067D02*
X132058880Y-131077067D01*
X132058880Y-131077067D02*
X132001737Y-131048495D01*
X132001737Y-131048495D02*
X131973166Y-131019924D01*
X131973166Y-131019924D02*
X131944594Y-130962781D01*
X131944594Y-130962781D02*
X131944594Y-130848495D01*
X131944594Y-130848495D02*
X131973166Y-130791353D01*
X131973166Y-130791353D02*
X132001737Y-130762781D01*
X132001737Y-130762781D02*
X132058880Y-130734210D01*
X132058880Y-130734210D02*
X132201737Y-130734210D01*
X132201737Y-130734210D02*
X132258880Y-130762781D01*
X132258880Y-130762781D02*
X132287451Y-130791353D01*
X132287451Y-130791353D02*
X132316023Y-130848495D01*
X132316023Y-130848495D02*
X132316023Y-130962781D01*
X132316023Y-130962781D02*
X132287451Y-131019924D01*
X132287451Y-131019924D02*
X132258880Y-131048495D01*
X132258880Y-131048495D02*
X132201737Y-131077067D01*
X132344594Y-128791354D02*
X131944594Y-128648497D01*
X131944594Y-128648497D02*
X132344594Y-128505640D01*
X132544594Y-128162783D02*
X132544594Y-128105640D01*
X132544594Y-128105640D02*
X132516023Y-128048497D01*
X132516023Y-128048497D02*
X132487451Y-128019926D01*
X132487451Y-128019926D02*
X132430308Y-127991354D01*
X132430308Y-127991354D02*
X132316023Y-127962783D01*
X132316023Y-127962783D02*
X132173166Y-127962783D01*
X132173166Y-127962783D02*
X132058880Y-127991354D01*
X132058880Y-127991354D02*
X132001737Y-128019926D01*
X132001737Y-128019926D02*
X131973166Y-128048497D01*
X131973166Y-128048497D02*
X131944594Y-128105640D01*
X131944594Y-128105640D02*
X131944594Y-128162783D01*
X131944594Y-128162783D02*
X131973166Y-128219926D01*
X131973166Y-128219926D02*
X132001737Y-128248497D01*
X132001737Y-128248497D02*
X132058880Y-128277068D01*
X132058880Y-128277068D02*
X132173166Y-128305640D01*
X132173166Y-128305640D02*
X132316023Y-128305640D01*
X132316023Y-128305640D02*
X132430308Y-128277068D01*
X132430308Y-128277068D02*
X132487451Y-128248497D01*
X132487451Y-128248497D02*
X132516023Y-128219926D01*
X132516023Y-128219926D02*
X132544594Y-128162783D01*
X132001737Y-127705639D02*
X131973166Y-127677068D01*
X131973166Y-127677068D02*
X131944594Y-127705639D01*
X131944594Y-127705639D02*
X131973166Y-127734211D01*
X131973166Y-127734211D02*
X132001737Y-127705639D01*
X132001737Y-127705639D02*
X131944594Y-127705639D01*
X132487451Y-127448497D02*
X132516023Y-127419925D01*
X132516023Y-127419925D02*
X132544594Y-127362783D01*
X132544594Y-127362783D02*
X132544594Y-127219925D01*
X132544594Y-127219925D02*
X132516023Y-127162783D01*
X132516023Y-127162783D02*
X132487451Y-127134211D01*
X132487451Y-127134211D02*
X132430308Y-127105640D01*
X132430308Y-127105640D02*
X132373166Y-127105640D01*
X132373166Y-127105640D02*
X132287451Y-127134211D01*
X132287451Y-127134211D02*
X131944594Y-127477068D01*
X131944594Y-127477068D02*
X131944594Y-127105640D01*
X130978628Y-133391353D02*
X131578628Y-133391353D01*
X130978628Y-133048496D02*
X131321485Y-133305639D01*
X131578628Y-133048496D02*
X131235771Y-133391353D01*
X130978628Y-132534211D02*
X131292914Y-132534211D01*
X131292914Y-132534211D02*
X131350057Y-132562782D01*
X131350057Y-132562782D02*
X131378628Y-132619925D01*
X131378628Y-132619925D02*
X131378628Y-132734211D01*
X131378628Y-132734211D02*
X131350057Y-132791353D01*
X131007200Y-132534211D02*
X130978628Y-132591353D01*
X130978628Y-132591353D02*
X130978628Y-132734211D01*
X130978628Y-132734211D02*
X131007200Y-132791353D01*
X131007200Y-132791353D02*
X131064342Y-132819925D01*
X131064342Y-132819925D02*
X131121485Y-132819925D01*
X131121485Y-132819925D02*
X131178628Y-132791353D01*
X131178628Y-132791353D02*
X131207200Y-132734211D01*
X131207200Y-132734211D02*
X131207200Y-132591353D01*
X131207200Y-132591353D02*
X131235771Y-132534211D01*
X130978628Y-132248496D02*
X131378628Y-132248496D01*
X131578628Y-132248496D02*
X131550057Y-132277068D01*
X131550057Y-132277068D02*
X131521485Y-132248496D01*
X131521485Y-132248496D02*
X131550057Y-132219925D01*
X131550057Y-132219925D02*
X131578628Y-132248496D01*
X131578628Y-132248496D02*
X131521485Y-132248496D01*
X131007200Y-131991354D02*
X130978628Y-131934211D01*
X130978628Y-131934211D02*
X130978628Y-131819925D01*
X130978628Y-131819925D02*
X131007200Y-131762782D01*
X131007200Y-131762782D02*
X131064342Y-131734211D01*
X131064342Y-131734211D02*
X131092914Y-131734211D01*
X131092914Y-131734211D02*
X131150057Y-131762782D01*
X131150057Y-131762782D02*
X131178628Y-131819925D01*
X131178628Y-131819925D02*
X131178628Y-131905640D01*
X131178628Y-131905640D02*
X131207200Y-131962782D01*
X131207200Y-131962782D02*
X131264342Y-131991354D01*
X131264342Y-131991354D02*
X131292914Y-131991354D01*
X131292914Y-131991354D02*
X131350057Y-131962782D01*
X131350057Y-131962782D02*
X131378628Y-131905640D01*
X131378628Y-131905640D02*
X131378628Y-131819925D01*
X131378628Y-131819925D02*
X131350057Y-131762782D01*
X131292914Y-130819925D02*
X131264342Y-130734211D01*
X131264342Y-130734211D02*
X131235771Y-130705640D01*
X131235771Y-130705640D02*
X131178628Y-130677068D01*
X131178628Y-130677068D02*
X131092914Y-130677068D01*
X131092914Y-130677068D02*
X131035771Y-130705640D01*
X131035771Y-130705640D02*
X131007200Y-130734211D01*
X131007200Y-130734211D02*
X130978628Y-130791354D01*
X130978628Y-130791354D02*
X130978628Y-131019925D01*
X130978628Y-131019925D02*
X131578628Y-131019925D01*
X131578628Y-131019925D02*
X131578628Y-130819925D01*
X131578628Y-130819925D02*
X131550057Y-130762783D01*
X131550057Y-130762783D02*
X131521485Y-130734211D01*
X131521485Y-130734211D02*
X131464342Y-130705640D01*
X131464342Y-130705640D02*
X131407200Y-130705640D01*
X131407200Y-130705640D02*
X131350057Y-130734211D01*
X131350057Y-130734211D02*
X131321485Y-130762783D01*
X131321485Y-130762783D02*
X131292914Y-130819925D01*
X131292914Y-130819925D02*
X131292914Y-131019925D01*
X131007200Y-130191354D02*
X130978628Y-130248497D01*
X130978628Y-130248497D02*
X130978628Y-130362783D01*
X130978628Y-130362783D02*
X131007200Y-130419925D01*
X131007200Y-130419925D02*
X131064342Y-130448497D01*
X131064342Y-130448497D02*
X131292914Y-130448497D01*
X131292914Y-130448497D02*
X131350057Y-130419925D01*
X131350057Y-130419925D02*
X131378628Y-130362783D01*
X131378628Y-130362783D02*
X131378628Y-130248497D01*
X131378628Y-130248497D02*
X131350057Y-130191354D01*
X131350057Y-130191354D02*
X131292914Y-130162783D01*
X131292914Y-130162783D02*
X131235771Y-130162783D01*
X131235771Y-130162783D02*
X131178628Y-130448497D01*
X130978628Y-129905639D02*
X131378628Y-129905639D01*
X131264342Y-129905639D02*
X131321485Y-129877068D01*
X131321485Y-129877068D02*
X131350057Y-129848497D01*
X131350057Y-129848497D02*
X131378628Y-129791354D01*
X131378628Y-129791354D02*
X131378628Y-129734211D01*
X131378628Y-129277068D02*
X130892914Y-129277068D01*
X130892914Y-129277068D02*
X130835771Y-129305639D01*
X130835771Y-129305639D02*
X130807200Y-129334210D01*
X130807200Y-129334210D02*
X130778628Y-129391353D01*
X130778628Y-129391353D02*
X130778628Y-129477068D01*
X130778628Y-129477068D02*
X130807200Y-129534210D01*
X131007200Y-129277068D02*
X130978628Y-129334210D01*
X130978628Y-129334210D02*
X130978628Y-129448496D01*
X130978628Y-129448496D02*
X131007200Y-129505639D01*
X131007200Y-129505639D02*
X131035771Y-129534210D01*
X131035771Y-129534210D02*
X131092914Y-129562782D01*
X131092914Y-129562782D02*
X131264342Y-129562782D01*
X131264342Y-129562782D02*
X131321485Y-129534210D01*
X131321485Y-129534210D02*
X131350057Y-129505639D01*
X131350057Y-129505639D02*
X131378628Y-129448496D01*
X131378628Y-129448496D02*
X131378628Y-129334210D01*
X131378628Y-129334210D02*
X131350057Y-129277068D01*
X130978628Y-128734211D02*
X131292914Y-128734211D01*
X131292914Y-128734211D02*
X131350057Y-128762782D01*
X131350057Y-128762782D02*
X131378628Y-128819925D01*
X131378628Y-128819925D02*
X131378628Y-128934211D01*
X131378628Y-128934211D02*
X131350057Y-128991353D01*
X131007200Y-128734211D02*
X130978628Y-128791353D01*
X130978628Y-128791353D02*
X130978628Y-128934211D01*
X130978628Y-128934211D02*
X131007200Y-128991353D01*
X131007200Y-128991353D02*
X131064342Y-129019925D01*
X131064342Y-129019925D02*
X131121485Y-129019925D01*
X131121485Y-129019925D02*
X131178628Y-128991353D01*
X131178628Y-128991353D02*
X131207200Y-128934211D01*
X131207200Y-128934211D02*
X131207200Y-128791353D01*
X131207200Y-128791353D02*
X131235771Y-128734211D01*
X130978628Y-128362782D02*
X131007200Y-128419925D01*
X131007200Y-128419925D02*
X131035771Y-128448496D01*
X131035771Y-128448496D02*
X131092914Y-128477068D01*
X131092914Y-128477068D02*
X131264342Y-128477068D01*
X131264342Y-128477068D02*
X131321485Y-128448496D01*
X131321485Y-128448496D02*
X131350057Y-128419925D01*
X131350057Y-128419925D02*
X131378628Y-128362782D01*
X131378628Y-128362782D02*
X131378628Y-128277068D01*
X131378628Y-128277068D02*
X131350057Y-128219925D01*
X131350057Y-128219925D02*
X131321485Y-128191354D01*
X131321485Y-128191354D02*
X131264342Y-128162782D01*
X131264342Y-128162782D02*
X131092914Y-128162782D01*
X131092914Y-128162782D02*
X131035771Y-128191354D01*
X131035771Y-128191354D02*
X131007200Y-128219925D01*
X131007200Y-128219925D02*
X130978628Y-128277068D01*
X130978628Y-128277068D02*
X130978628Y-128362782D01*
X131378628Y-127648497D02*
X130978628Y-127648497D01*
X131378628Y-127905639D02*
X131064342Y-127905639D01*
X131064342Y-127905639D02*
X131007200Y-127877068D01*
X131007200Y-127877068D02*
X130978628Y-127819925D01*
X130978628Y-127819925D02*
X130978628Y-127734211D01*
X130978628Y-127734211D02*
X131007200Y-127677068D01*
X131007200Y-127677068D02*
X131035771Y-127648497D01*
X130978628Y-127362782D02*
X131378628Y-127362782D01*
X131578628Y-127362782D02*
X131550057Y-127391354D01*
X131550057Y-127391354D02*
X131521485Y-127362782D01*
X131521485Y-127362782D02*
X131550057Y-127334211D01*
X131550057Y-127334211D02*
X131578628Y-127362782D01*
X131578628Y-127362782D02*
X131521485Y-127362782D01*
M02*
