%TF.GenerationSoftware,KiCad,Pcbnew,10.0.5*%
%TF.CreationDate,2026-08-18T14:00:30-04:00*%
%TF.ProjectId,STM32_BluePill,53544d33-325f-4426-9c75-6550696c6c2e,0.2*%
%TF.SameCoordinates,Original*%
%TF.FileFunction,Copper,L2,Bot*%
%TF.FilePolarity,Positive*%
%FSLAX46Y46*%
G04 Gerber Fmt 4.6, Leading zero omitted, Abs format (unit mm)*
G04 Created by KiCad (PCBNEW 10.0.5) date 2026-08-18 14:00:30*
%MOMM*%
%LPD*%
G01*
G04 APERTURE LIST*
%TA.AperFunction,ComponentPad*%
%ADD10R,1.700000X1.700000*%
%TD*%
%TA.AperFunction,ComponentPad*%
%ADD11C,1.700000*%
%TD*%
%TA.AperFunction,ViaPad*%
%ADD12C,0.700000*%
%TD*%
%TA.AperFunction,ViaPad*%
%ADD13C,0.600000*%
%TD*%
%TA.AperFunction,Conductor*%
%ADD14C,0.500000*%
%TD*%
G04 APERTURE END LIST*
D10*
%TO.P,J2,1,Pin_1_1*%
%TO.N,+3.3V*%
X159080000Y-113000000D03*
D11*
%TO.P,J2,2,Pin_2_2*%
%TO.N,/SWDIO*%
X156540000Y-113000000D03*
%TO.P,J2,3,Pin_3_3*%
%TO.N,/SWCLK*%
X154000000Y-113000000D03*
%TO.P,J2,4,Pin_4_4*%
%TO.N,GND*%
X151460000Y-113000000D03*
%TD*%
D10*
%TO.P,J3,1,Pin_1_1*%
%TO.N,+3.3V*%
X145620000Y-113000000D03*
D11*
%TO.P,J3,2,Pin_2_2*%
%TO.N,/USART1_TX*%
X143080000Y-113000000D03*
%TO.P,J3,3,Pin_3_3*%
%TO.N,/USART1_RX*%
X140540000Y-113000000D03*
%TO.P,J3,4,Pin_4_4*%
%TO.N,GND*%
X138000000Y-113000000D03*
%TD*%
D10*
%TO.P,J4,1,Pin_1_1*%
%TO.N,+3.3V*%
X137420000Y-137150000D03*
D11*
%TO.P,J4,2,Pin_2_2*%
%TO.N,/I2C2_SCL*%
X139960000Y-137150000D03*
%TO.P,J4,3,Pin_3_3*%
%TO.N,/I2C2_SDA*%
X142500000Y-137150000D03*
%TO.P,J4,4,Pin_4_4*%
%TO.N,GND*%
X145040000Y-137150000D03*
%TD*%
D12*
%TO.N,+3.3V*%
X145000000Y-133600000D03*
X147150000Y-133600000D03*
X142000000Y-133700000D03*
%TO.N,GND*%
X160400000Y-123600000D03*
X137200000Y-124600000D03*
X150900000Y-126750000D03*
X148300000Y-130200000D03*
X156380000Y-122440000D03*
X162300000Y-130300000D03*
X162400000Y-119500000D03*
X156380000Y-121210000D03*
X142600000Y-118900000D03*
X164900000Y-130200000D03*
X146800000Y-121600000D03*
X146000000Y-125500000D03*
D13*
X143130000Y-122410000D03*
D12*
X162200000Y-133650000D03*
X160400000Y-122450000D03*
%TO.N,+3.3V*%
X142000000Y-131460000D03*
%TD*%
%TO.N,+3.3V*%
D14*
X142000000Y-131460000D02*
X142000000Y-133700000D01*
X147150000Y-133600000D02*
X145000000Y-133600000D01*
%TD*%
%TA.AperFunction,Conductor*%
%TO.N,GND*%
G36*
X165004418Y-110254816D02*
G01*
X165239569Y-110271634D01*
X165257074Y-110274151D01*
X165483101Y-110323320D01*
X165500066Y-110328301D01*
X165716803Y-110409139D01*
X165732886Y-110416484D01*
X165935906Y-110527342D01*
X165950789Y-110536907D01*
X166135960Y-110675524D01*
X166149331Y-110687110D01*
X166312889Y-110850668D01*
X166324475Y-110864039D01*
X166463092Y-111049210D01*
X166472657Y-111064093D01*
X166583512Y-111267108D01*
X166590862Y-111283202D01*
X166671696Y-111499928D01*
X166676680Y-111516903D01*
X166725847Y-111742922D01*
X166728365Y-111760433D01*
X166734410Y-111844949D01*
X166743346Y-111969890D01*
X166745184Y-111995580D01*
X166745500Y-112004427D01*
X166745500Y-137995572D01*
X166745184Y-138004419D01*
X166728365Y-138239566D01*
X166725847Y-138257077D01*
X166676680Y-138483096D01*
X166671696Y-138500071D01*
X166590862Y-138716797D01*
X166583512Y-138732891D01*
X166472657Y-138935906D01*
X166463092Y-138950789D01*
X166324475Y-139135960D01*
X166312889Y-139149331D01*
X166149331Y-139312889D01*
X166135960Y-139324475D01*
X165950789Y-139463092D01*
X165935906Y-139472657D01*
X165732891Y-139583512D01*
X165716797Y-139590862D01*
X165500071Y-139671696D01*
X165483096Y-139676680D01*
X165257077Y-139725847D01*
X165239566Y-139728365D01*
X165024727Y-139743731D01*
X165004417Y-139745184D01*
X164995572Y-139745500D01*
X131504428Y-139745500D01*
X131495582Y-139745184D01*
X131472868Y-139743559D01*
X131260433Y-139728365D01*
X131242922Y-139725847D01*
X131016903Y-139676680D01*
X130999928Y-139671696D01*
X130783202Y-139590862D01*
X130767108Y-139583512D01*
X130564093Y-139472657D01*
X130549210Y-139463092D01*
X130364039Y-139324475D01*
X130350668Y-139312889D01*
X130187110Y-139149331D01*
X130175524Y-139135960D01*
X130036907Y-138950789D01*
X130027342Y-138935906D01*
X129916487Y-138732891D01*
X129909139Y-138716803D01*
X129828301Y-138500066D01*
X129823319Y-138483096D01*
X129806793Y-138407128D01*
X129774151Y-138257074D01*
X129771634Y-138239565D01*
X129766856Y-138172765D01*
X129754816Y-138004418D01*
X129754500Y-137995572D01*
X129754500Y-136893713D01*
X131149500Y-136893713D01*
X131149500Y-137106287D01*
X131156423Y-137149999D01*
X131178237Y-137287729D01*
X131182754Y-137316243D01*
X131243615Y-137503554D01*
X131248444Y-137518414D01*
X131344951Y-137707820D01*
X131469890Y-137879786D01*
X131620213Y-138030109D01*
X131792179Y-138155048D01*
X131792181Y-138155049D01*
X131792184Y-138155051D01*
X131981588Y-138251557D01*
X132183757Y-138317246D01*
X132393713Y-138350500D01*
X132393714Y-138350500D01*
X132606286Y-138350500D01*
X132606287Y-138350500D01*
X132816243Y-138317246D01*
X133018412Y-138251557D01*
X133207816Y-138155051D01*
X133259237Y-138117692D01*
X133379786Y-138030109D01*
X133379788Y-138030106D01*
X133379792Y-138030104D01*
X133530104Y-137879792D01*
X133530106Y-137879788D01*
X133530109Y-137879786D01*
X133655048Y-137707820D01*
X133655047Y-137707820D01*
X133655051Y-137707816D01*
X133751557Y-137518412D01*
X133817246Y-137316243D01*
X133850500Y-137106287D01*
X133850500Y-136893713D01*
X133817246Y-136683757D01*
X133751557Y-136481588D01*
X133655051Y-136292184D01*
X133655049Y-136292180D01*
X133628132Y-136255131D01*
X136269500Y-136255131D01*
X136269500Y-138044856D01*
X136269502Y-138044882D01*
X136272413Y-138069987D01*
X136272415Y-138069991D01*
X136317793Y-138172764D01*
X136317794Y-138172765D01*
X136397235Y-138252206D01*
X136500009Y-138297585D01*
X136525135Y-138300500D01*
X138314864Y-138300499D01*
X138314879Y-138300497D01*
X138314882Y-138300497D01*
X138339987Y-138297586D01*
X138339988Y-138297585D01*
X138339991Y-138297585D01*
X138442765Y-138252206D01*
X138522206Y-138172765D01*
X138567585Y-138069991D01*
X138570500Y-138044865D01*
X138570499Y-137307125D01*
X138590183Y-137240089D01*
X138642987Y-137194334D01*
X138712146Y-137184390D01*
X138775702Y-137213415D01*
X138813476Y-137272193D01*
X138816972Y-137287729D01*
X138837829Y-137419410D01*
X138893787Y-137591636D01*
X138893788Y-137591639D01*
X138976006Y-137752997D01*
X139082441Y-137899494D01*
X139082445Y-137899499D01*
X139210500Y-138027554D01*
X139210505Y-138027558D01*
X139334565Y-138117692D01*
X139357006Y-138133996D01*
X139433094Y-138172765D01*
X139518360Y-138216211D01*
X139518363Y-138216212D01*
X139590238Y-138239565D01*
X139690591Y-138272171D01*
X139773429Y-138285291D01*
X139869449Y-138300500D01*
X139869454Y-138300500D01*
X140050551Y-138300500D01*
X140137259Y-138286765D01*
X140229409Y-138272171D01*
X140401639Y-138216211D01*
X140562994Y-138133996D01*
X140709501Y-138027553D01*
X140837553Y-137899501D01*
X140943996Y-137752994D01*
X141026211Y-137591639D01*
X141082171Y-137419409D01*
X141098511Y-137316243D01*
X141107527Y-137259321D01*
X141137456Y-137196186D01*
X141196768Y-137159255D01*
X141266630Y-137160253D01*
X141324863Y-137198863D01*
X141352473Y-137259321D01*
X141377829Y-137419410D01*
X141433787Y-137591636D01*
X141433788Y-137591639D01*
X141516006Y-137752997D01*
X141622441Y-137899494D01*
X141622445Y-137899499D01*
X141750500Y-138027554D01*
X141750505Y-138027558D01*
X141874565Y-138117692D01*
X141897006Y-138133996D01*
X141973094Y-138172765D01*
X142058360Y-138216211D01*
X142058363Y-138216212D01*
X142130238Y-138239565D01*
X142230591Y-138272171D01*
X142313429Y-138285291D01*
X142409449Y-138300500D01*
X142409454Y-138300500D01*
X142590551Y-138300500D01*
X142677259Y-138286765D01*
X142769409Y-138272171D01*
X142941639Y-138216211D01*
X143102994Y-138133996D01*
X143225669Y-138044868D01*
X143249495Y-138027558D01*
X143249497Y-138027555D01*
X143249501Y-138027553D01*
X143377553Y-137899501D01*
X143483996Y-137752994D01*
X143551090Y-137621314D01*
X143599065Y-137570519D01*
X143666886Y-137553724D01*
X143733021Y-137576262D01*
X143776472Y-137630977D01*
X143779506Y-137639292D01*
X143788904Y-137668217D01*
X143885375Y-137857550D01*
X143924728Y-137911716D01*
X144557037Y-137279408D01*
X144574075Y-137342993D01*
X144639901Y-137457007D01*
X144732993Y-137550099D01*
X144847007Y-137615925D01*
X144910590Y-137632962D01*
X144278282Y-138265269D01*
X144278282Y-138265270D01*
X144332449Y-138304624D01*
X144521782Y-138401095D01*
X144723870Y-138466757D01*
X144933754Y-138500000D01*
X145146246Y-138500000D01*
X145356127Y-138466757D01*
X145356130Y-138466757D01*
X145558217Y-138401095D01*
X145747554Y-138304622D01*
X145801716Y-138265270D01*
X145801717Y-138265270D01*
X145169408Y-137632962D01*
X145232993Y-137615925D01*
X145347007Y-137550099D01*
X145440099Y-137457007D01*
X145505925Y-137342993D01*
X145522962Y-137279409D01*
X146155270Y-137911717D01*
X146155270Y-137911716D01*
X146194622Y-137857554D01*
X146291095Y-137668217D01*
X146356757Y-137466130D01*
X146356757Y-137466127D01*
X146390000Y-137256246D01*
X146390000Y-137043754D01*
X146368536Y-136908239D01*
X146368536Y-136908238D01*
X146366236Y-136893713D01*
X162649500Y-136893713D01*
X162649500Y-137106287D01*
X162656423Y-137149999D01*
X162678237Y-137287729D01*
X162682754Y-137316243D01*
X162743615Y-137503554D01*
X162748444Y-137518414D01*
X162844951Y-137707820D01*
X162969890Y-137879786D01*
X163120213Y-138030109D01*
X163292179Y-138155048D01*
X163292181Y-138155049D01*
X163292184Y-138155051D01*
X163481588Y-138251557D01*
X163683757Y-138317246D01*
X163893713Y-138350500D01*
X163893714Y-138350500D01*
X164106286Y-138350500D01*
X164106287Y-138350500D01*
X164316243Y-138317246D01*
X164518412Y-138251557D01*
X164707816Y-138155051D01*
X164759237Y-138117692D01*
X164879786Y-138030109D01*
X164879788Y-138030106D01*
X164879792Y-138030104D01*
X165030104Y-137879792D01*
X165030106Y-137879788D01*
X165030109Y-137879786D01*
X165155048Y-137707820D01*
X165155047Y-137707820D01*
X165155051Y-137707816D01*
X165251557Y-137518412D01*
X165317246Y-137316243D01*
X165350500Y-137106287D01*
X165350500Y-136893713D01*
X165317246Y-136683757D01*
X165251557Y-136481588D01*
X165155051Y-136292184D01*
X165155049Y-136292181D01*
X165155048Y-136292179D01*
X165030109Y-136120213D01*
X164879786Y-135969890D01*
X164707820Y-135844951D01*
X164518414Y-135748444D01*
X164518413Y-135748443D01*
X164518412Y-135748443D01*
X164316243Y-135682754D01*
X164316241Y-135682753D01*
X164316240Y-135682753D01*
X164154957Y-135657208D01*
X164106287Y-135649500D01*
X163893713Y-135649500D01*
X163845042Y-135657208D01*
X163683760Y-135682753D01*
X163481585Y-135748444D01*
X163292179Y-135844951D01*
X163120213Y-135969890D01*
X162969890Y-136120213D01*
X162844951Y-136292179D01*
X162748444Y-136481585D01*
X162682753Y-136683760D01*
X162658978Y-136833869D01*
X162649500Y-136893713D01*
X146366236Y-136893713D01*
X146356758Y-136833873D01*
X146356757Y-136833869D01*
X146291095Y-136631782D01*
X146194624Y-136442449D01*
X146155270Y-136388282D01*
X146155269Y-136388282D01*
X145522962Y-137020590D01*
X145505925Y-136957007D01*
X145440099Y-136842993D01*
X145347007Y-136749901D01*
X145232993Y-136684075D01*
X145169409Y-136667037D01*
X145801716Y-136034728D01*
X145747550Y-135995375D01*
X145558217Y-135898904D01*
X145356129Y-135833242D01*
X145146246Y-135800000D01*
X144933754Y-135800000D01*
X144723872Y-135833242D01*
X144723869Y-135833242D01*
X144521782Y-135898904D01*
X144332439Y-135995380D01*
X144278282Y-136034727D01*
X144278282Y-136034728D01*
X144910591Y-136667037D01*
X144847007Y-136684075D01*
X144732993Y-136749901D01*
X144639901Y-136842993D01*
X144574075Y-136957007D01*
X144557037Y-137020591D01*
X143924728Y-136388282D01*
X143924727Y-136388282D01*
X143885380Y-136442439D01*
X143788905Y-136631781D01*
X143779506Y-136660708D01*
X143740068Y-136718383D01*
X143675709Y-136745581D01*
X143606862Y-136733666D01*
X143555387Y-136686421D01*
X143551090Y-136678684D01*
X143527191Y-136631781D01*
X143483996Y-136547006D01*
X143470396Y-136528287D01*
X143377558Y-136400505D01*
X143377554Y-136400500D01*
X143249499Y-136272445D01*
X143249494Y-136272441D01*
X143125432Y-136182305D01*
X143102996Y-136166005D01*
X142941639Y-136083788D01*
X142941636Y-136083787D01*
X142769410Y-136027829D01*
X142590551Y-135999500D01*
X142590546Y-135999500D01*
X142409454Y-135999500D01*
X142409449Y-135999500D01*
X142230589Y-136027829D01*
X142058363Y-136083787D01*
X142058360Y-136083788D01*
X141897002Y-136166006D01*
X141750505Y-136272441D01*
X141750500Y-136272445D01*
X141622445Y-136400500D01*
X141622441Y-136400505D01*
X141516006Y-136547002D01*
X141433788Y-136708360D01*
X141433787Y-136708363D01*
X141377829Y-136880589D01*
X141352473Y-137040678D01*
X141322544Y-137103813D01*
X141263232Y-137140744D01*
X141193369Y-137139746D01*
X141135137Y-137101136D01*
X141107527Y-137040678D01*
X141086550Y-136908239D01*
X141082171Y-136880591D01*
X141039708Y-136749901D01*
X141026212Y-136708363D01*
X141026211Y-136708360D01*
X140987191Y-136631781D01*
X140943996Y-136547006D01*
X140930396Y-136528287D01*
X140837558Y-136400505D01*
X140837554Y-136400500D01*
X140709499Y-136272445D01*
X140709494Y-136272441D01*
X140562997Y-136166006D01*
X140562996Y-136166005D01*
X140562994Y-136166004D01*
X140486906Y-136127235D01*
X140401639Y-136083788D01*
X140401636Y-136083787D01*
X140229410Y-136027829D01*
X140050551Y-135999500D01*
X140050546Y-135999500D01*
X139869454Y-135999500D01*
X139869449Y-135999500D01*
X139690589Y-136027829D01*
X139518363Y-136083787D01*
X139518360Y-136083788D01*
X139357002Y-136166006D01*
X139210505Y-136272441D01*
X139210500Y-136272445D01*
X139082445Y-136400500D01*
X139082441Y-136400505D01*
X138976006Y-136547002D01*
X138893788Y-136708360D01*
X138893787Y-136708363D01*
X138837829Y-136880589D01*
X138816972Y-137012271D01*
X138787042Y-137075405D01*
X138727731Y-137112336D01*
X138657868Y-137111338D01*
X138599636Y-137072728D01*
X138571522Y-137008764D01*
X138570499Y-136992872D01*
X138570499Y-136255143D01*
X138570499Y-136255136D01*
X138570497Y-136255117D01*
X138567586Y-136230012D01*
X138567585Y-136230010D01*
X138567585Y-136230009D01*
X138522206Y-136127235D01*
X138442765Y-136047794D01*
X138442763Y-136047793D01*
X138339992Y-136002415D01*
X138314865Y-135999500D01*
X136525143Y-135999500D01*
X136525117Y-135999502D01*
X136500012Y-136002413D01*
X136500008Y-136002415D01*
X136397235Y-136047793D01*
X136317794Y-136127234D01*
X136272415Y-136230006D01*
X136272415Y-136230008D01*
X136269500Y-136255131D01*
X133628132Y-136255131D01*
X133530109Y-136120213D01*
X133379786Y-135969890D01*
X133207820Y-135844951D01*
X133018414Y-135748444D01*
X133018413Y-135748443D01*
X133018412Y-135748443D01*
X132816243Y-135682754D01*
X132816241Y-135682753D01*
X132816240Y-135682753D01*
X132654957Y-135657208D01*
X132606287Y-135649500D01*
X132393713Y-135649500D01*
X132345042Y-135657208D01*
X132183760Y-135682753D01*
X131981585Y-135748444D01*
X131792179Y-135844951D01*
X131620213Y-135969890D01*
X131469890Y-136120213D01*
X131344951Y-136292179D01*
X131248444Y-136481585D01*
X131182753Y-136683760D01*
X131158978Y-136833869D01*
X131149500Y-136893713D01*
X129754500Y-136893713D01*
X129754500Y-131524071D01*
X141349499Y-131524071D01*
X141374497Y-131649738D01*
X141374499Y-131649744D01*
X141423533Y-131768124D01*
X141423534Y-131768126D01*
X141423535Y-131768127D01*
X141428600Y-131775708D01*
X141449480Y-131842383D01*
X141449500Y-131844600D01*
X141449500Y-133315398D01*
X141429815Y-133382437D01*
X141428604Y-133384286D01*
X141423534Y-133391872D01*
X141374499Y-133510255D01*
X141374497Y-133510261D01*
X141349500Y-133635928D01*
X141349500Y-133635931D01*
X141349500Y-133764069D01*
X141349500Y-133764071D01*
X141349499Y-133764071D01*
X141374497Y-133889738D01*
X141374499Y-133889744D01*
X141423533Y-134008124D01*
X141423538Y-134008133D01*
X141494723Y-134114668D01*
X141494726Y-134114672D01*
X141585327Y-134205273D01*
X141585331Y-134205276D01*
X141691866Y-134276461D01*
X141691872Y-134276464D01*
X141691873Y-134276465D01*
X141810256Y-134325501D01*
X141810260Y-134325501D01*
X141810261Y-134325502D01*
X141935928Y-134350500D01*
X141935931Y-134350500D01*
X142064071Y-134350500D01*
X142148615Y-134333682D01*
X142189744Y-134325501D01*
X142308127Y-134276465D01*
X142414669Y-134205276D01*
X142505276Y-134114669D01*
X142576465Y-134008127D01*
X142625501Y-133889744D01*
X142650500Y-133764069D01*
X142650500Y-133664071D01*
X144349499Y-133664071D01*
X144374497Y-133789738D01*
X144374499Y-133789744D01*
X144423533Y-133908124D01*
X144423538Y-133908133D01*
X144494723Y-134014668D01*
X144494726Y-134014672D01*
X144585327Y-134105273D01*
X144585331Y-134105276D01*
X144691866Y-134176461D01*
X144691872Y-134176464D01*
X144691873Y-134176465D01*
X144810256Y-134225501D01*
X144810260Y-134225501D01*
X144810261Y-134225502D01*
X144935928Y-134250500D01*
X144935931Y-134250500D01*
X145064071Y-134250500D01*
X145148615Y-134233682D01*
X145189744Y-134225501D01*
X145308127Y-134176465D01*
X145315712Y-134171396D01*
X145382389Y-134150520D01*
X145384601Y-134150500D01*
X146765399Y-134150500D01*
X146832438Y-134170185D01*
X146834252Y-134171373D01*
X146841873Y-134176465D01*
X146960256Y-134225501D01*
X146960260Y-134225501D01*
X146960261Y-134225502D01*
X147085928Y-134250500D01*
X147085931Y-134250500D01*
X147214071Y-134250500D01*
X147298615Y-134233682D01*
X147339744Y-134225501D01*
X147458127Y-134176465D01*
X147564669Y-134105276D01*
X147655276Y-134014669D01*
X147726465Y-133908127D01*
X147775501Y-133789744D01*
X147800500Y-133664069D01*
X147800500Y-133535931D01*
X147800500Y-133535928D01*
X147775502Y-133410261D01*
X147775501Y-133410260D01*
X147775501Y-133410256D01*
X147726465Y-133291873D01*
X147726464Y-133291872D01*
X147726461Y-133291866D01*
X147655276Y-133185331D01*
X147655273Y-133185327D01*
X147564672Y-133094726D01*
X147564668Y-133094723D01*
X147458133Y-133023538D01*
X147458124Y-133023533D01*
X147339744Y-132974499D01*
X147339738Y-132974497D01*
X147214071Y-132949500D01*
X147214069Y-132949500D01*
X147085931Y-132949500D01*
X147085929Y-132949500D01*
X146960261Y-132974497D01*
X146960255Y-132974499D01*
X146841876Y-133023533D01*
X146841873Y-133023534D01*
X146841873Y-133023535D01*
X146834287Y-133028603D01*
X146767611Y-133049480D01*
X146765399Y-133049500D01*
X145384601Y-133049500D01*
X145317562Y-133029815D01*
X145315747Y-133028626D01*
X145308127Y-133023535D01*
X145308124Y-133023533D01*
X145308123Y-133023533D01*
X145189744Y-132974499D01*
X145189738Y-132974497D01*
X145064071Y-132949500D01*
X145064069Y-132949500D01*
X144935931Y-132949500D01*
X144935929Y-132949500D01*
X144810261Y-132974497D01*
X144810255Y-132974499D01*
X144691875Y-133023533D01*
X144691866Y-133023538D01*
X144585331Y-133094723D01*
X144585327Y-133094726D01*
X144494726Y-133185327D01*
X144494723Y-133185331D01*
X144423538Y-133291866D01*
X144423533Y-133291875D01*
X144374499Y-133410255D01*
X144374497Y-133410261D01*
X144349500Y-133535928D01*
X144349500Y-133535931D01*
X144349500Y-133664069D01*
X144349500Y-133664071D01*
X144349499Y-133664071D01*
X142650500Y-133664071D01*
X142650500Y-133635931D01*
X142650500Y-133635928D01*
X142636223Y-133564157D01*
X142636222Y-133564156D01*
X142625501Y-133510256D01*
X142576465Y-133391873D01*
X142563560Y-133372559D01*
X142558558Y-133359369D01*
X142556914Y-133338030D01*
X142550520Y-133317608D01*
X142550500Y-133315398D01*
X142550500Y-131844600D01*
X142570185Y-131777561D01*
X142571359Y-131775768D01*
X142576465Y-131768127D01*
X142625501Y-131649744D01*
X142650500Y-131524069D01*
X142650500Y-131395931D01*
X142650500Y-131395928D01*
X142625502Y-131270261D01*
X142625501Y-131270260D01*
X142625501Y-131270256D01*
X142576465Y-131151873D01*
X142576464Y-131151872D01*
X142576461Y-131151866D01*
X142505276Y-131045331D01*
X142505273Y-131045327D01*
X142414672Y-130954726D01*
X142414668Y-130954723D01*
X142308133Y-130883538D01*
X142308124Y-130883533D01*
X142189744Y-130834499D01*
X142189738Y-130834497D01*
X142064071Y-130809500D01*
X142064069Y-130809500D01*
X141935931Y-130809500D01*
X141935929Y-130809500D01*
X141810261Y-130834497D01*
X141810255Y-130834499D01*
X141691875Y-130883533D01*
X141691866Y-130883538D01*
X141585331Y-130954723D01*
X141585327Y-130954726D01*
X141494726Y-131045327D01*
X141494723Y-131045331D01*
X141423538Y-131151866D01*
X141423533Y-131151875D01*
X141374499Y-131270255D01*
X141374497Y-131270261D01*
X141349500Y-131395928D01*
X141349500Y-131395931D01*
X141349500Y-131524069D01*
X141349500Y-131524071D01*
X141349499Y-131524071D01*
X129754500Y-131524071D01*
X129754500Y-121918995D01*
X130989499Y-121918995D01*
X131016418Y-122054322D01*
X131016421Y-122054332D01*
X131069221Y-122181804D01*
X131069228Y-122181817D01*
X131145885Y-122296541D01*
X131145888Y-122296545D01*
X131243454Y-122394111D01*
X131243458Y-122394114D01*
X131358182Y-122470771D01*
X131358195Y-122470778D01*
X131485667Y-122523578D01*
X131485672Y-122523580D01*
X131485676Y-122523580D01*
X131485677Y-122523581D01*
X131621004Y-122550500D01*
X131621007Y-122550500D01*
X131758995Y-122550500D01*
X131850041Y-122532389D01*
X131894328Y-122523580D01*
X132021811Y-122470775D01*
X132136542Y-122394114D01*
X132234114Y-122296542D01*
X132310775Y-122181811D01*
X132363580Y-122054328D01*
X132390500Y-121918993D01*
X132390500Y-121781007D01*
X132390500Y-121781004D01*
X132363581Y-121645677D01*
X132363580Y-121645676D01*
X132363580Y-121645672D01*
X132363578Y-121645667D01*
X132310778Y-121518195D01*
X132310771Y-121518182D01*
X132234114Y-121403458D01*
X132234111Y-121403454D01*
X132136545Y-121305888D01*
X132136541Y-121305885D01*
X132021817Y-121229228D01*
X132021804Y-121229221D01*
X131894332Y-121176421D01*
X131894322Y-121176418D01*
X131758995Y-121149500D01*
X131758993Y-121149500D01*
X131621007Y-121149500D01*
X131621005Y-121149500D01*
X131485677Y-121176418D01*
X131485667Y-121176421D01*
X131358195Y-121229221D01*
X131358182Y-121229228D01*
X131243458Y-121305885D01*
X131243454Y-121305888D01*
X131145888Y-121403454D01*
X131145885Y-121403458D01*
X131069228Y-121518182D01*
X131069221Y-121518195D01*
X131016421Y-121645667D01*
X131016418Y-121645677D01*
X130989500Y-121781004D01*
X130989500Y-121781007D01*
X130989500Y-121918993D01*
X130989500Y-121918995D01*
X130989499Y-121918995D01*
X129754500Y-121918995D01*
X129754500Y-118918995D01*
X130989499Y-118918995D01*
X131016418Y-119054322D01*
X131016421Y-119054332D01*
X131069221Y-119181804D01*
X131069228Y-119181817D01*
X131145885Y-119296541D01*
X131145888Y-119296545D01*
X131243454Y-119394111D01*
X131243458Y-119394114D01*
X131358182Y-119470771D01*
X131358195Y-119470778D01*
X131485667Y-119523578D01*
X131485672Y-119523580D01*
X131485676Y-119523580D01*
X131485677Y-119523581D01*
X131621004Y-119550500D01*
X131621007Y-119550500D01*
X131758995Y-119550500D01*
X131850041Y-119532389D01*
X131894328Y-119523580D01*
X132021811Y-119470775D01*
X132136542Y-119394114D01*
X132234114Y-119296542D01*
X132310775Y-119181811D01*
X132363580Y-119054328D01*
X132390500Y-118918993D01*
X132390500Y-118781007D01*
X132390500Y-118781004D01*
X132363581Y-118645677D01*
X132363580Y-118645676D01*
X132363580Y-118645672D01*
X132363578Y-118645667D01*
X132310778Y-118518195D01*
X132310771Y-118518182D01*
X132234114Y-118403458D01*
X132234111Y-118403454D01*
X132136545Y-118305888D01*
X132136541Y-118305885D01*
X132021817Y-118229228D01*
X132021804Y-118229221D01*
X131894332Y-118176421D01*
X131894322Y-118176418D01*
X131758995Y-118149500D01*
X131758993Y-118149500D01*
X131621007Y-118149500D01*
X131621005Y-118149500D01*
X131485677Y-118176418D01*
X131485667Y-118176421D01*
X131358195Y-118229221D01*
X131358182Y-118229228D01*
X131243458Y-118305885D01*
X131243454Y-118305888D01*
X131145888Y-118403454D01*
X131145885Y-118403458D01*
X131069228Y-118518182D01*
X131069221Y-118518195D01*
X131016421Y-118645667D01*
X131016418Y-118645677D01*
X130989500Y-118781004D01*
X130989500Y-118781007D01*
X130989500Y-118918993D01*
X130989500Y-118918995D01*
X130989499Y-118918995D01*
X129754500Y-118918995D01*
X129754500Y-112893713D01*
X131149500Y-112893713D01*
X131149500Y-113106286D01*
X131182735Y-113316127D01*
X131182754Y-113316243D01*
X131238982Y-113489295D01*
X131248444Y-113518414D01*
X131344951Y-113707820D01*
X131469890Y-113879786D01*
X131620213Y-114030109D01*
X131792179Y-114155048D01*
X131792181Y-114155049D01*
X131792184Y-114155051D01*
X131981588Y-114251557D01*
X132183757Y-114317246D01*
X132393713Y-114350500D01*
X132393714Y-114350500D01*
X132606286Y-114350500D01*
X132606287Y-114350500D01*
X132816243Y-114317246D01*
X133018412Y-114251557D01*
X133207816Y-114155051D01*
X133262572Y-114115269D01*
X133379786Y-114030109D01*
X133379788Y-114030106D01*
X133379792Y-114030104D01*
X133530104Y-113879792D01*
X133530106Y-113879788D01*
X133530109Y-113879786D01*
X133655048Y-113707820D01*
X133655047Y-113707820D01*
X133655051Y-113707816D01*
X133751557Y-113518412D01*
X133817246Y-113316243D01*
X133850500Y-113106287D01*
X133850500Y-112893753D01*
X136650000Y-112893753D01*
X136650000Y-113106246D01*
X136683242Y-113316127D01*
X136683242Y-113316130D01*
X136748904Y-113518217D01*
X136845375Y-113707550D01*
X136884728Y-113761716D01*
X137517037Y-113129408D01*
X137534075Y-113192993D01*
X137599901Y-113307007D01*
X137692993Y-113400099D01*
X137807007Y-113465925D01*
X137870590Y-113482962D01*
X137238282Y-114115269D01*
X137238282Y-114115270D01*
X137292449Y-114154624D01*
X137481782Y-114251095D01*
X137683870Y-114316757D01*
X137893754Y-114350000D01*
X138106246Y-114350000D01*
X138316127Y-114316757D01*
X138316130Y-114316757D01*
X138518217Y-114251095D01*
X138707554Y-114154622D01*
X138761716Y-114115270D01*
X138761717Y-114115270D01*
X138129408Y-113482962D01*
X138192993Y-113465925D01*
X138307007Y-113400099D01*
X138400099Y-113307007D01*
X138465925Y-113192993D01*
X138482962Y-113129408D01*
X139115270Y-113761717D01*
X139115270Y-113761716D01*
X139154622Y-113707554D01*
X139251095Y-113518217D01*
X139260492Y-113489295D01*
X139299928Y-113431618D01*
X139364286Y-113404419D01*
X139433133Y-113416331D01*
X139484610Y-113463574D01*
X139488908Y-113471314D01*
X139556004Y-113602995D01*
X139662441Y-113749494D01*
X139662445Y-113749499D01*
X139790500Y-113877554D01*
X139790505Y-113877558D01*
X139918287Y-113970396D01*
X139937006Y-113983996D01*
X140042484Y-114037740D01*
X140098360Y-114066211D01*
X140098363Y-114066212D01*
X140184476Y-114094191D01*
X140270591Y-114122171D01*
X140353429Y-114135291D01*
X140449449Y-114150500D01*
X140449454Y-114150500D01*
X140630551Y-114150500D01*
X140717259Y-114136765D01*
X140809409Y-114122171D01*
X140981639Y-114066211D01*
X141142994Y-113983996D01*
X141289501Y-113877553D01*
X141417553Y-113749501D01*
X141523996Y-113602994D01*
X141606211Y-113441639D01*
X141662171Y-113269409D01*
X141683027Y-113137729D01*
X141687527Y-113109321D01*
X141717456Y-113046186D01*
X141776768Y-113009255D01*
X141846630Y-113010253D01*
X141904863Y-113048863D01*
X141932473Y-113109321D01*
X141957829Y-113269410D01*
X142013787Y-113441636D01*
X142013788Y-113441639D01*
X142096006Y-113602997D01*
X142202441Y-113749494D01*
X142202445Y-113749499D01*
X142330500Y-113877554D01*
X142330505Y-113877558D01*
X142458287Y-113970396D01*
X142477006Y-113983996D01*
X142582484Y-114037740D01*
X142638360Y-114066211D01*
X142638363Y-114066212D01*
X142724476Y-114094191D01*
X142810591Y-114122171D01*
X142893429Y-114135291D01*
X142989449Y-114150500D01*
X142989454Y-114150500D01*
X143170551Y-114150500D01*
X143257259Y-114136765D01*
X143349409Y-114122171D01*
X143521639Y-114066211D01*
X143682994Y-113983996D01*
X143829501Y-113877553D01*
X143957553Y-113749501D01*
X144063996Y-113602994D01*
X144146211Y-113441639D01*
X144202171Y-113269409D01*
X144223027Y-113137729D01*
X144252956Y-113074595D01*
X144312267Y-113037663D01*
X144382130Y-113038661D01*
X144440363Y-113077271D01*
X144468477Y-113141234D01*
X144469500Y-113157127D01*
X144469500Y-113894856D01*
X144469502Y-113894882D01*
X144472413Y-113919987D01*
X144472415Y-113919991D01*
X144517793Y-114022764D01*
X144517794Y-114022765D01*
X144597235Y-114102206D01*
X144700009Y-114147585D01*
X144725135Y-114150500D01*
X146514864Y-114150499D01*
X146514879Y-114150497D01*
X146514882Y-114150497D01*
X146539987Y-114147586D01*
X146539988Y-114147585D01*
X146539991Y-114147585D01*
X146642765Y-114102206D01*
X146722206Y-114022765D01*
X146767585Y-113919991D01*
X146770500Y-113894865D01*
X146770499Y-112893753D01*
X150110000Y-112893753D01*
X150110000Y-113106246D01*
X150143242Y-113316127D01*
X150143242Y-113316130D01*
X150208904Y-113518217D01*
X150305375Y-113707550D01*
X150344728Y-113761716D01*
X150977037Y-113129408D01*
X150994075Y-113192993D01*
X151059901Y-113307007D01*
X151152993Y-113400099D01*
X151267007Y-113465925D01*
X151330590Y-113482962D01*
X150698282Y-114115269D01*
X150698282Y-114115270D01*
X150752449Y-114154624D01*
X150941782Y-114251095D01*
X151143870Y-114316757D01*
X151353754Y-114350000D01*
X151566246Y-114350000D01*
X151776127Y-114316757D01*
X151776130Y-114316757D01*
X151978217Y-114251095D01*
X152167554Y-114154622D01*
X152221716Y-114115270D01*
X152221717Y-114115270D01*
X151589408Y-113482962D01*
X151652993Y-113465925D01*
X151767007Y-113400099D01*
X151860099Y-113307007D01*
X151925925Y-113192993D01*
X151942962Y-113129409D01*
X152575270Y-113761717D01*
X152575270Y-113761716D01*
X152614622Y-113707554D01*
X152711095Y-113518217D01*
X152720492Y-113489295D01*
X152759928Y-113431618D01*
X152824286Y-113404419D01*
X152893133Y-113416331D01*
X152944610Y-113463574D01*
X152948908Y-113471314D01*
X153016004Y-113602995D01*
X153122441Y-113749494D01*
X153122445Y-113749499D01*
X153250500Y-113877554D01*
X153250505Y-113877558D01*
X153378287Y-113970396D01*
X153397006Y-113983996D01*
X153502484Y-114037740D01*
X153558360Y-114066211D01*
X153558363Y-114066212D01*
X153644476Y-114094191D01*
X153730591Y-114122171D01*
X153813429Y-114135291D01*
X153909449Y-114150500D01*
X153909454Y-114150500D01*
X154090551Y-114150500D01*
X154177259Y-114136765D01*
X154269409Y-114122171D01*
X154441639Y-114066211D01*
X154602994Y-113983996D01*
X154749501Y-113877553D01*
X154877553Y-113749501D01*
X154983996Y-113602994D01*
X155066211Y-113441639D01*
X155122171Y-113269409D01*
X155143027Y-113137729D01*
X155147527Y-113109321D01*
X155177456Y-113046186D01*
X155236768Y-113009255D01*
X155306630Y-113010253D01*
X155364863Y-113048863D01*
X155392473Y-113109321D01*
X155417829Y-113269410D01*
X155473787Y-113441636D01*
X155473788Y-113441639D01*
X155556006Y-113602997D01*
X155662441Y-113749494D01*
X155662445Y-113749499D01*
X155790500Y-113877554D01*
X155790505Y-113877558D01*
X155918287Y-113970396D01*
X155937006Y-113983996D01*
X156042484Y-114037740D01*
X156098360Y-114066211D01*
X156098363Y-114066212D01*
X156184476Y-114094191D01*
X156270591Y-114122171D01*
X156353429Y-114135291D01*
X156449449Y-114150500D01*
X156449454Y-114150500D01*
X156630551Y-114150500D01*
X156717259Y-114136765D01*
X156809409Y-114122171D01*
X156981639Y-114066211D01*
X157142994Y-113983996D01*
X157289501Y-113877553D01*
X157417553Y-113749501D01*
X157523996Y-113602994D01*
X157606211Y-113441639D01*
X157662171Y-113269409D01*
X157683027Y-113137729D01*
X157712956Y-113074595D01*
X157772267Y-113037663D01*
X157842130Y-113038661D01*
X157900363Y-113077271D01*
X157928477Y-113141234D01*
X157929500Y-113157127D01*
X157929500Y-113894856D01*
X157929502Y-113894882D01*
X157932413Y-113919987D01*
X157932415Y-113919991D01*
X157977793Y-114022764D01*
X157977794Y-114022765D01*
X158057235Y-114102206D01*
X158160009Y-114147585D01*
X158185135Y-114150500D01*
X159974864Y-114150499D01*
X159974879Y-114150497D01*
X159974882Y-114150497D01*
X159999987Y-114147586D01*
X159999988Y-114147585D01*
X159999991Y-114147585D01*
X160102765Y-114102206D01*
X160182206Y-114022765D01*
X160227585Y-113919991D01*
X160230500Y-113894865D01*
X160230499Y-112893713D01*
X162649500Y-112893713D01*
X162649500Y-113106286D01*
X162682735Y-113316127D01*
X162682754Y-113316243D01*
X162738982Y-113489295D01*
X162748444Y-113518414D01*
X162844951Y-113707820D01*
X162969890Y-113879786D01*
X163120213Y-114030109D01*
X163292179Y-114155048D01*
X163292181Y-114155049D01*
X163292184Y-114155051D01*
X163481588Y-114251557D01*
X163683757Y-114317246D01*
X163893713Y-114350500D01*
X163893714Y-114350500D01*
X164106286Y-114350500D01*
X164106287Y-114350500D01*
X164316243Y-114317246D01*
X164518412Y-114251557D01*
X164707816Y-114155051D01*
X164762572Y-114115269D01*
X164879786Y-114030109D01*
X164879788Y-114030106D01*
X164879792Y-114030104D01*
X165030104Y-113879792D01*
X165030106Y-113879788D01*
X165030109Y-113879786D01*
X165155048Y-113707820D01*
X165155047Y-113707820D01*
X165155051Y-113707816D01*
X165251557Y-113518412D01*
X165317246Y-113316243D01*
X165350500Y-113106287D01*
X165350500Y-112893713D01*
X165317246Y-112683757D01*
X165251557Y-112481588D01*
X165155051Y-112292184D01*
X165155049Y-112292181D01*
X165155048Y-112292179D01*
X165030109Y-112120213D01*
X164879786Y-111969890D01*
X164707820Y-111844951D01*
X164518414Y-111748444D01*
X164518413Y-111748443D01*
X164518412Y-111748443D01*
X164316243Y-111682754D01*
X164316241Y-111682753D01*
X164316240Y-111682753D01*
X164154957Y-111657208D01*
X164106287Y-111649500D01*
X163893713Y-111649500D01*
X163845042Y-111657208D01*
X163683760Y-111682753D01*
X163481585Y-111748444D01*
X163292179Y-111844951D01*
X163120213Y-111969890D01*
X162969890Y-112120213D01*
X162844951Y-112292179D01*
X162748444Y-112481585D01*
X162682753Y-112683760D01*
X162649500Y-112893713D01*
X160230499Y-112893713D01*
X160230499Y-112105136D01*
X160230497Y-112105117D01*
X160227586Y-112080012D01*
X160227585Y-112080010D01*
X160227585Y-112080009D01*
X160182206Y-111977235D01*
X160102765Y-111897794D01*
X160102763Y-111897793D01*
X159999992Y-111852415D01*
X159974865Y-111849500D01*
X158185143Y-111849500D01*
X158185117Y-111849502D01*
X158160012Y-111852413D01*
X158160008Y-111852415D01*
X158057235Y-111897793D01*
X157977794Y-111977234D01*
X157932415Y-112080006D01*
X157932415Y-112080008D01*
X157929500Y-112105131D01*
X157929500Y-112842871D01*
X157909815Y-112909910D01*
X157857011Y-112955665D01*
X157787853Y-112965609D01*
X157724297Y-112936584D01*
X157686523Y-112877806D01*
X157683027Y-112862269D01*
X157674274Y-112807007D01*
X157662171Y-112730591D01*
X157606211Y-112558361D01*
X157606211Y-112558360D01*
X157567091Y-112481585D01*
X157523996Y-112397006D01*
X157510396Y-112378287D01*
X157417558Y-112250505D01*
X157417554Y-112250500D01*
X157289499Y-112122445D01*
X157289494Y-112122441D01*
X157142997Y-112016006D01*
X157142996Y-112016005D01*
X157142994Y-112016004D01*
X157066906Y-111977235D01*
X156981639Y-111933788D01*
X156981636Y-111933787D01*
X156809410Y-111877829D01*
X156630551Y-111849500D01*
X156630546Y-111849500D01*
X156449454Y-111849500D01*
X156449449Y-111849500D01*
X156270589Y-111877829D01*
X156098363Y-111933787D01*
X156098360Y-111933788D01*
X155937002Y-112016006D01*
X155790505Y-112122441D01*
X155790500Y-112122445D01*
X155662445Y-112250500D01*
X155662441Y-112250505D01*
X155556006Y-112397002D01*
X155473788Y-112558360D01*
X155473787Y-112558363D01*
X155417829Y-112730589D01*
X155392473Y-112890678D01*
X155362544Y-112953813D01*
X155303232Y-112990744D01*
X155233369Y-112989746D01*
X155175137Y-112951136D01*
X155147527Y-112890678D01*
X155133740Y-112803639D01*
X155122171Y-112730591D01*
X155066211Y-112558361D01*
X155066211Y-112558360D01*
X155027091Y-112481585D01*
X154983996Y-112397006D01*
X154970396Y-112378287D01*
X154877558Y-112250505D01*
X154877554Y-112250500D01*
X154749499Y-112122445D01*
X154749494Y-112122441D01*
X154602997Y-112016006D01*
X154602996Y-112016005D01*
X154602994Y-112016004D01*
X154526906Y-111977235D01*
X154441639Y-111933788D01*
X154441636Y-111933787D01*
X154269410Y-111877829D01*
X154090551Y-111849500D01*
X154090546Y-111849500D01*
X153909454Y-111849500D01*
X153909449Y-111849500D01*
X153730589Y-111877829D01*
X153558363Y-111933787D01*
X153558360Y-111933788D01*
X153397002Y-112016006D01*
X153250505Y-112122441D01*
X153250500Y-112122445D01*
X153122445Y-112250500D01*
X153122441Y-112250505D01*
X153016004Y-112397004D01*
X152948908Y-112528685D01*
X152900933Y-112579480D01*
X152833112Y-112596275D01*
X152766977Y-112573737D01*
X152723527Y-112519021D01*
X152720492Y-112510705D01*
X152711094Y-112481780D01*
X152614624Y-112292449D01*
X152575270Y-112238282D01*
X152575269Y-112238282D01*
X151942962Y-112870590D01*
X151925925Y-112807007D01*
X151860099Y-112692993D01*
X151767007Y-112599901D01*
X151652993Y-112534075D01*
X151589409Y-112517037D01*
X152221716Y-111884728D01*
X152167550Y-111845375D01*
X151978217Y-111748904D01*
X151776129Y-111683242D01*
X151566246Y-111650000D01*
X151353754Y-111650000D01*
X151143872Y-111683242D01*
X151143869Y-111683242D01*
X150941782Y-111748904D01*
X150752439Y-111845380D01*
X150698282Y-111884727D01*
X150698282Y-111884728D01*
X151330591Y-112517037D01*
X151267007Y-112534075D01*
X151152993Y-112599901D01*
X151059901Y-112692993D01*
X150994075Y-112807007D01*
X150977037Y-112870591D01*
X150344728Y-112238282D01*
X150344727Y-112238282D01*
X150305380Y-112292439D01*
X150208904Y-112481782D01*
X150143242Y-112683869D01*
X150143242Y-112683872D01*
X150110000Y-112893753D01*
X146770499Y-112893753D01*
X146770499Y-112105136D01*
X146770497Y-112105117D01*
X146767586Y-112080012D01*
X146767585Y-112080011D01*
X146767585Y-112080009D01*
X146722206Y-111977235D01*
X146642765Y-111897794D01*
X146642763Y-111897793D01*
X146539992Y-111852415D01*
X146514865Y-111849500D01*
X144725143Y-111849500D01*
X144725117Y-111849502D01*
X144700012Y-111852413D01*
X144700008Y-111852415D01*
X144597235Y-111897793D01*
X144517794Y-111977234D01*
X144472415Y-112080006D01*
X144472415Y-112080008D01*
X144469500Y-112105131D01*
X144469500Y-112842871D01*
X144449815Y-112909910D01*
X144397011Y-112955665D01*
X144327853Y-112965609D01*
X144264297Y-112936584D01*
X144226523Y-112877806D01*
X144223027Y-112862269D01*
X144214274Y-112807007D01*
X144202171Y-112730591D01*
X144146211Y-112558361D01*
X144146211Y-112558360D01*
X144107091Y-112481585D01*
X144063996Y-112397006D01*
X144050396Y-112378287D01*
X143957558Y-112250505D01*
X143957554Y-112250500D01*
X143829499Y-112122445D01*
X143829494Y-112122441D01*
X143682997Y-112016006D01*
X143682996Y-112016005D01*
X143682994Y-112016004D01*
X143606906Y-111977235D01*
X143521639Y-111933788D01*
X143521636Y-111933787D01*
X143349410Y-111877829D01*
X143170551Y-111849500D01*
X143170546Y-111849500D01*
X142989454Y-111849500D01*
X142989449Y-111849500D01*
X142810589Y-111877829D01*
X142638363Y-111933787D01*
X142638360Y-111933788D01*
X142477002Y-112016006D01*
X142330505Y-112122441D01*
X142330500Y-112122445D01*
X142202445Y-112250500D01*
X142202441Y-112250505D01*
X142096006Y-112397002D01*
X142013788Y-112558360D01*
X142013787Y-112558363D01*
X141957829Y-112730589D01*
X141932473Y-112890678D01*
X141902544Y-112953813D01*
X141843232Y-112990744D01*
X141773369Y-112989746D01*
X141715137Y-112951136D01*
X141687527Y-112890678D01*
X141673740Y-112803639D01*
X141662171Y-112730591D01*
X141606211Y-112558361D01*
X141606211Y-112558360D01*
X141567091Y-112481585D01*
X141523996Y-112397006D01*
X141510396Y-112378287D01*
X141417558Y-112250505D01*
X141417554Y-112250500D01*
X141289499Y-112122445D01*
X141289494Y-112122441D01*
X141142997Y-112016006D01*
X141142996Y-112016005D01*
X141142994Y-112016004D01*
X141066906Y-111977235D01*
X140981639Y-111933788D01*
X140981636Y-111933787D01*
X140809410Y-111877829D01*
X140630551Y-111849500D01*
X140630546Y-111849500D01*
X140449454Y-111849500D01*
X140449449Y-111849500D01*
X140270589Y-111877829D01*
X140098363Y-111933787D01*
X140098360Y-111933788D01*
X139937002Y-112016006D01*
X139790505Y-112122441D01*
X139790500Y-112122445D01*
X139662445Y-112250500D01*
X139662441Y-112250505D01*
X139556004Y-112397004D01*
X139488908Y-112528685D01*
X139440933Y-112579480D01*
X139373112Y-112596275D01*
X139306977Y-112573737D01*
X139263527Y-112519021D01*
X139260492Y-112510705D01*
X139251094Y-112481780D01*
X139154624Y-112292449D01*
X139115270Y-112238282D01*
X139115269Y-112238282D01*
X138482962Y-112870590D01*
X138465925Y-112807007D01*
X138400099Y-112692993D01*
X138307007Y-112599901D01*
X138192993Y-112534075D01*
X138129409Y-112517037D01*
X138761716Y-111884728D01*
X138707550Y-111845375D01*
X138518217Y-111748904D01*
X138316129Y-111683242D01*
X138106246Y-111650000D01*
X137893754Y-111650000D01*
X137683872Y-111683242D01*
X137683869Y-111683242D01*
X137481782Y-111748904D01*
X137292439Y-111845380D01*
X137238282Y-111884727D01*
X137238282Y-111884728D01*
X137870591Y-112517037D01*
X137807007Y-112534075D01*
X137692993Y-112599901D01*
X137599901Y-112692993D01*
X137534075Y-112807007D01*
X137517037Y-112870591D01*
X136884728Y-112238282D01*
X136884727Y-112238282D01*
X136845380Y-112292439D01*
X136748904Y-112481782D01*
X136683242Y-112683869D01*
X136683242Y-112683872D01*
X136650000Y-112893753D01*
X133850500Y-112893753D01*
X133850500Y-112893713D01*
X133817246Y-112683757D01*
X133751557Y-112481588D01*
X133655051Y-112292184D01*
X133655049Y-112292181D01*
X133655048Y-112292179D01*
X133530109Y-112120213D01*
X133379786Y-111969890D01*
X133207820Y-111844951D01*
X133018414Y-111748444D01*
X133018413Y-111748443D01*
X133018412Y-111748443D01*
X132816243Y-111682754D01*
X132816241Y-111682753D01*
X132816240Y-111682753D01*
X132654957Y-111657208D01*
X132606287Y-111649500D01*
X132393713Y-111649500D01*
X132345042Y-111657208D01*
X132183760Y-111682753D01*
X131981585Y-111748444D01*
X131792179Y-111844951D01*
X131620213Y-111969890D01*
X131469890Y-112120213D01*
X131344951Y-112292179D01*
X131248444Y-112481585D01*
X131182753Y-112683760D01*
X131149500Y-112893713D01*
X129754500Y-112893713D01*
X129754500Y-112004427D01*
X129754816Y-111995581D01*
X129756653Y-111969896D01*
X129771634Y-111760428D01*
X129774152Y-111742922D01*
X129823321Y-111516894D01*
X129828300Y-111499936D01*
X129909142Y-111283191D01*
X129916482Y-111267118D01*
X130027346Y-111064085D01*
X130036902Y-111049216D01*
X130175529Y-110864032D01*
X130187103Y-110850675D01*
X130350675Y-110687103D01*
X130364032Y-110675529D01*
X130549216Y-110536902D01*
X130564085Y-110527346D01*
X130767118Y-110416482D01*
X130783191Y-110409142D01*
X130999936Y-110328300D01*
X131016894Y-110323321D01*
X131242927Y-110274151D01*
X131260428Y-110271634D01*
X131495582Y-110254816D01*
X131504428Y-110254500D01*
X131544875Y-110254500D01*
X164955125Y-110254500D01*
X164995572Y-110254500D01*
X165004418Y-110254816D01*
G37*
%TD.AperFunction*%
%TD*%
M02*
