M48
; DRILL file KiCad 10.0.5 date 2026-08-18T20:29:34
; FORMAT={-:-/ absolute / metric / decimal}
; #@! TF.CreationDate,2026-08-18T20:29:34-04:00
; #@! TF.GenerationSoftware,Kicad,Pcbnew,10.0.5
; #@! TF.FileFunction,Plated,1,2,PTH
FMAT,2
METRIC
; #@! TA.AperFunction,Plated,PTH,ViaDrill
T1C0.300
; #@! TA.AperFunction,Plated,PTH,ComponentDrill
T2C1.000
%
G90
G05
T1
X137.2Y-124.6
X142.0Y-131.46
X142.0Y-133.7
X142.6Y-118.9
X143.13Y-122.41
X145.0Y-133.6
X146.0Y-125.5
X146.8Y-121.6
X147.15Y-133.6
X148.3Y-130.2
X150.9Y-126.75
X156.38Y-121.21
X156.38Y-122.44
X160.4Y-122.45
X160.4Y-123.6
X162.2Y-133.65
X162.3Y-130.3
X162.4Y-119.5
X164.9Y-130.2
T2
X137.42Y-137.15
X138.0Y-113.0
X139.96Y-137.15
X140.54Y-113.0
X142.5Y-137.15
X143.08Y-113.0
X145.04Y-137.15
X145.62Y-113.0
X151.46Y-113.0
X154.0Y-113.0
X156.54Y-113.0
X159.08Y-113.0
M30
